<svg   
   xmlns="http://www.w3.org/2000/svg"
   xmlns:xlink="http://www.w3.org/1999/xlink"
      version="1.1"
   viewBox="0 0 424 424"
   id="svg5396"
   width="200"
   height="200"
   >
  <defs
     id="defs5058">
    <radialGradient
       id="radialGradient30"
       cx="0"
       cy="0"
       r="1"
       gradientTransform="matrix(212.6,0,0,212.6,212.4,212.4)"
       gradientUnits="userSpaceOnUse">
      <stop
         stop-color="#6dcff6"
         offset="0"
         id="stop5051" />
      <stop
         stop-color="#0071bc"
         offset=".737"
         id="stop5053" />
      <stop
         stop-color="#0071bc"
         offset="1"
         id="stop5055" />
    </radialGradient>
    <symbol
     id="plane-icon" height="20" width="20">
      <path
         class="plane-rt"
         d="m 40 40 c 0.1254,-0.3813 0.5561,-0.7608 0.957,-0.8429 l 10.28,-2.113 c 0.2108,-0.9437 0.543,-2.02 0.725,-2.129 0.7812,-0.4678 3.159,0.0876 3.634,0.8482 0.0332,0.0532 0.0379,0.1903 0.0196,0.3798 l 2.202,-0.4525 c 0.2091,-0.9607 0.5544,-2.09 0.7415,-2.203 0.7808,-0.4674 3.159,0.088 3.634,0.8484 0.0373,0.0596 0.0384,0.2246 0.0132,0.452 l 5.318,-1.093 c 0.4339,-1.927 0.8889,-3.856 1.364,-5.767 2.104,-8.458 5.983,-12.74 9.26,-11.98 l -13.99,56.2 c -0.6224,-0.1449 -1.024,-1.083 -1.231,-2.648 l -7.078,-0.1563 c -0.4094,0.004 -0.6414,-0.3038 -0.5156,-0.6852 l 0.9918,-2.755 c 0.1256,-0.3813 0.5564,-0.7606 0.9574,-0.8431 l 5.536,-1.119 c 0.237,-5.093 1.157,-12.1 2.549,-19.72 l -26.12,0.2812 c -0.4094,0.004 -0.6414,-0.3039 -0.5159,-0.6851"
         style="fill:#00ff00"
         id="pright"
         />
      <path
         class="plane-lt"
         d="m 40 40 c 0.0682,-0.3944 -0.1372,-0.9224 -0.4554,-1.173 l -8.156,-6.417 c 0.2568,-0.9332 0.4659,-2.037 0.3555,-2.214 -0.4753,-0.7612 -2.853,-1.317 -3.634,-0.8484 -0.0545,0.0327 -0.1228,0.1536 -0.1971,0.3292 l -1.747,-1.375 c 0.266,-0.9477 0.4911,-2.106 0.3757,-2.287 -0.4755,-0.7609 -2.854,-1.316 -3.634,-0.8485 -0.0611,0.0366 -0.1393,0.1834 -0.2244,0.3966 l -4.22,-3.32 c 0.5202,-1.906 1.022,-3.825 1.497,-5.736 2.104,-8.458 0.6678,-13.99 -2.609,-14.75 l -13.99,56.2 c 0.6222,0.1447 1.42,-0.5125 2.341,-1.815 l 6.373,2.984 c 0.3626,0.1842 0.7142,0.0122 0.7817,-0.3822 l 0.4128,-2.89 c 0.0684,-0.3947 -0.1375,-0.9226 -0.4554,-1.173 l -4.401,-3.439 c 2.183,-4.638 4.661,-11.28 7.005,-18.68 l 23.11,11.77 c 0.3623,0.1842 0.7141,0.0123 0.7816,-0.3822"
         style="fill:#666666;stroke-width:0.18089999"
         id="pleft"
        />
    </symbol>
  </defs>
  <path
     id="sky"
     d="M 0,425 H 425 V 0 H 0 Z"
     style="fill:url(#radialGradient30);stroke-width:0.07087;opacity:.2"
     />
  <g
     id="flightpaths"
     transform="matrix(0.5479,0,0,0.5479,486.2,244.9)"
     stroke-miterlimit="10"
     style="stroke-miterlimit:10">
    <path
       id="pathE"
       d="M -880.2,-433.7 C -667.1,59.7 -231,247.8 293.8,192.9"
       style="fill:none;stroke:#ffffff;stroke-width:2.58500004;stroke-miterlimit:10;stroke-dasharray:11.6371192, 11.6371192"
       />
    <path
       id="pathD"
       d="M -1012,272.5 C -795.1,78.6 -349.2,-115.9 80,-10.9"
       style="fill:none;stroke:#ffffff;stroke-width:2.58500004;stroke-miterlimit:10;stroke-dasharray:11.63324145"
        />
    <path
       id="pathC"
       d="m -637.8,-520.3 c -166.5,249.5 -244.1,518 -30.86,895.8"
       style="fill:none;stroke:#ffffff;stroke-width:2.58500004;stroke-miterlimit:10;stroke-dasharray:11.63324145"
        />
    <path
       id="pathB"
       d="m -1018,-375.2 c 157,118.5 744.5,172.8 1098,-88.93"
       style="fill:none;stroke:#ffffff;stroke-width:2.58500004;stroke-miterlimit:10;stroke-dasharray:11.63324145"
        />
    <path
       id="pathA"
       d="m -486.5,-545.6 c 178.3,230 271.4,662.4 108.5,1005"
       style="fill:none;stroke:#ffffff;stroke-width:2.58500004;stroke-miterlimit:10;stroke-dasharray:11.63324145"
        />
  </g>
  <g
     id="planeA-icons" height="30">
      <use xlink:href="#plane-icon" style="fill:#00ff00"/>
    </g>
    
</svg>
