<?xml version="1.0" encoding="UTF-8" standalone="no"?>
<!-- Created with Inkscape (http://www.inkscape.org/) -->

<svg
   xmlns:dc="http://purl.org/dc/elements/1.1/"
   xmlns:cc="http://creativecommons.org/ns#"
   xmlns:rdf="http://www.w3.org/1999/02/22-rdf-syntax-ns#"
   xmlns:svg="http://www.w3.org/2000/svg"
   xmlns="http://www.w3.org/2000/svg"
   xmlns:xlink="http://www.w3.org/1999/xlink"
   xmlns:sodipodi="http://sodipodi.sourceforge.net/DTD/sodipodi-0.dtd"
   xmlns:inkscape="http://www.inkscape.org/namespaces/inkscape"
   version="1.1"
   id="svg2"
   width="800"
   height="800"
   viewBox="0 0 1200 1200"
   inkscape:version="0.92.1 r15371"
   sodipodi:docname="airplane-routes-basic.svg">
  <sodipodi:namedview
     pagecolor="#ffffff"
     bordercolor="#666666"
     borderopacity="1"
     objecttolerance="10"
     gridtolerance="10"
     guidetolerance="10"
     inkscape:pageopacity="0"
     inkscape:pageshadow="2"
     inkscape:window-width="1920"
     inkscape:window-height="1001"
     id="namedview4"
     showgrid="false"
     inkscape:zoom="0.16"
     inkscape:cx="1915.1263"
     inkscape:cy="-190.62771"
     inkscape:window-x="-9"
     inkscape:window-y="41"
     inkscape:window-maximized="1"
     inkscape:current-layer="g32344"
     inkscape:snap-global="false" />
  <defs
     id="defs6">
    <g
       id="g7344">
      <path
         transform="matrix(1.3235408,-0.16129644,-0.16129644,-1.3235408,1280.4831,1124.129)"
         inkscape:connector-curvature="0"
         id="plane-icon-L"
         style="fill:#e7e8e9;fill-opacity:1;fill-rule:nonzero;stroke:none"
         d="m 0,0 -16.099,15.563 c -1.609,1.553 -4.678,2.307 -6.822,1.671 L -77.909,0.961 c -3.497,4.11 -7.931,8.549 -9.093,8.614 -4.99,0.279 -14.959,-8.635 -15.236,-13.623 -0.022,-0.347 0.321,-1.035 0.902,-1.926 l -11.781,-3.486 c -3.536,4.197 -8.175,8.872 -9.368,8.939 -4.989,0.278 -14.958,-8.636 -15.237,-13.624 -0.022,-0.391 0.409,-1.207 1.126,-2.264 l -28.448,-8.419 c -7.164,8.381 -14.438,16.71 -21.765,24.902 -32.41,36.252 -62.354,47.318 -76.095,35.031 l 215.358,-240.869 c 2.608,2.333 2.067,8.001 -1.061,16.255 l 33.618,19.152 c 1.979,1.042 2.283,3.167 0.674,4.72 l -12.031,11.013 c -1.609,1.554 -4.679,2.307 -6.824,1.673 l -29.569,-8.858 c -14.563,24.501 -37.454,56.678 -64.244,90.648 L -0.675,-4.718 C 1.305,-3.677 1.609,-1.555 0,0" />
      <path
         transform="matrix(1.3235408,-0.16129644,-0.16129644,-1.3235408,977.00755,1470.1472)"
         inkscape:connector-curvature="0"
         id="plane-icon-R"
         style="display:inline;fill:#ffffff;fill-opacity:1;fill-rule:nonzero;stroke:none"
         d="m 0,0 -13.669,17.733 c -1.364,1.771 -1.77,4.908 -0.901,6.965 L 7.732,77.53 c -3.693,3.935 -7.613,8.835 -7.547,9.997 0.28,4.99 10.25,13.905 15.236,13.623 0.346,-0.019 0.992,-0.435 1.814,-1.111 l 4.779,11.318 c -3.777,3.983 -7.905,9.113 -7.839,10.308 0.28,4.987 10.249,13.9 15.237,13.621 0.391,-0.021 1.152,-0.541 2.124,-1.373 l 11.539,27.335 c -7.529,8.052 -14.995,16.21 -22.321,24.404 -32.411,36.252 -40.072,67.242 -26.329,79.527 L 209.783,24.31 c -2.609,-2.333 -8.18,-1.162 -16.036,2.867 L 170.968,-4.097 c -1.257,-1.852 -3.4,-1.914 -4.765,-0.143 l -9.604,13.185 c -1.365,1.771 -1.771,4.906 -0.9,6.968 l 12.095,28.396 c -22.723,17.203 -52.148,43.54 -82.92,73.951 L 4.766,0.145 C 3.51,-1.706 1.366,-1.771 0,0" />
    </g>
    <radialGradient
       id="radialGradient30"
       spreadMethod="pad"
       gradientTransform="matrix(3000.0001,0,0,3000.0001,1992.3729,1207.6275)"
       gradientUnits="userSpaceOnUse"
       r="1"
       cy="0"
       cx="0"
       fy="0"
       fx="0">
      <stop
         id="stop24"
         offset="0"
         style="stop-opacity:1;stop-color:#6dcff6" />
      <stop
         id="stop26"
         offset="0.73696312"
         style="stop-opacity:1;stop-color:#0071bc" />
      <stop
         id="stop28"
         offset="1"
         style="stop-opacity:1;stop-color:#0071bc" />
    </radialGradient>
  </defs>
  <g
     inkscape:groupmode="layer"
     id="layer1"
     inkscape:label="Layer 1">
    <path
       inkscape:connector-curvature="0"
       id="path32"
       style="display:inline;fill:url(#radialGradient30);stroke:none;stroke-width:2.5"
       d="M -1007.6271,4207.6274 H 4992.3727 V -1792.3724 H -1007.6271 Z"
       inkscape:label="sky" />
    <path
       clip-path="url(#clipPath3)"
       transform="matrix(2.4999999,0,0,-2.4999999,2090.7597,-2533.2211)"
       inkscape:connector-curvature="0"
       id="path56"
       style="display:inline;fill:none;stroke:#ffffff;stroke-width:8;stroke-linecap:butt;stroke-linejoin:miter;stroke-miterlimit:10;stroke-dasharray:36;stroke-dashoffset:0;stroke-opacity:1"
       d="M 0,0 C 551.89,-711.728 839.832,-2050.179 335.933,-3109.673"
       inkscape:label="pathE" />
    <path
       clip-path="url(#clipPathwG)"
       transform="matrix(2.4999999,0,0,-2.4999999,-1970.53,3796.1014)"
       inkscape:connector-curvature="0"
       id="path52"
       style="display:inline;fill:none;stroke:#ffffff;stroke-width:8;stroke-linecap:butt;stroke-linejoin:miter;stroke-miterlimit:10;stroke-dasharray:36;stroke-dashoffset:0;stroke-opacity:1"
       d="M 0,0 C 671.068,599.982 2050.867,1202.305 3379.448,876.923"
       inkscape:label="pathD" />
    <path
       clip-path="url(#clipPath5I)"
       transform="matrix(2.4999999,0,0,-2.4999999,919.82458,-2338.26)"
       inkscape:connector-curvature="0"
       id="path60"
       style="display:inline;fill:none;stroke:#ffffff;stroke-width:8;stroke-linecap:butt;stroke-linejoin:miter;stroke-miterlimit:10;stroke-dasharray:36;stroke-dashoffset:0;stroke-opacity:1"
       d="M 0,0 C -515.43,-772.211 -755.383,-1603.114 -95.514,-2772.163"
       inkscape:label="pathC" />
    <path
       clip-path="url(#clipPathC)"
       transform="matrix(2.4999999,0,0,-2.4999999,-954.8903,-1668.0622)"
       inkscape:connector-curvature="0"
       id="path48"
       style="display:inline;fill:none;stroke:#ffffff;stroke-width:8;stroke-linecap:butt;stroke-linejoin:miter;stroke-miterlimit:10;stroke-dasharray:36.012, 36.012;stroke-dashoffset:0;stroke-opacity:1"
       d="M 0,0 C 659.567,-1526.975 2009.209,-2109.412 3633.726,-1938.787"
       inkscape:label="pathB" />
    <path
       clip-path="url(#clipPath5)"
       transform="matrix(2.4999999,0,0,-2.4999999,-2018.7405,-1215.4278)"
       inkscape:connector-curvature="0"
       id="path64"
       style="display:inline;fill:none;stroke:#ffffff;stroke-width:8;stroke-linecap:butt;stroke-linejoin:miter;stroke-miterlimit:10;stroke-dasharray:36;stroke-dashoffset:0;stroke-opacity:1"
       d="M 0,0 C 486.031,-366.704 2304.237,-534.67 3398.733,275.168"
       inkscape:label="pathA" />
    <g
       id="g5102"
       inkscape:label="planeE">
      <path
         transform="matrix(1.3297934,0.0970899,0.0970899,-1.3297934,3737.1232,1080.5255)"
         inkscape:connector-curvature="0"
         id="path76"
         style="fill:#e7e8e9;fill-opacity:1;fill-rule:nonzero;stroke:none"
         d="m 0,0 -6.267,21.495 c -0.626,2.148 -2.919,4.323 -5.096,4.835 l -55.822,13.128 c -1,5.303 -2.649,11.357 -3.627,11.989 -4.194,2.716 -17.271,-0.083 -19.985,-4.277 -0.191,-0.292 -0.233,-1.059 -0.172,-2.12 l -11.959,2.813 c -0.99,5.398 -2.701,11.757 -3.704,12.407 -4.194,2.714 -17.272,-0.085 -19.986,-4.278 -0.214,-0.329 -0.243,-1.251 -0.144,-2.525 l -28.883,6.793 c -2.065,10.828 -4.253,21.668 -6.554,32.416 -10.176,47.551 -30.694,72.007 -48.719,68.149 l 67.616,-315.952 c 3.422,0.732 5.761,5.924 7.137,14.644 l 38.69,-0.035 c 2.236,-0.077 3.553,1.617 2.927,3.764 l -4.989,15.53 c -0.627,2.147 -2.92,4.323 -5.098,4.835 l -30.07,6.968 c -0.502,28.497 -4.429,67.792 -10.854,110.574 L -2.926,-3.764 C -0.69,-3.84 0.626,-2.147 0,0" />
      <path
         transform="matrix(1.3297934,0.0970899,0.0970899,-1.3297934,3281.2485,1143.8142)"
         inkscape:connector-curvature="0"
         id="path80"
         style="fill:#ffffff;fill-opacity:1;fill-rule:nonzero;stroke:none"
         d="m 0,0 -3.079,22.178 c -0.308,2.215 0.894,5.139 2.671,6.496 l 45.56,34.825 c -1.257,5.248 -2.231,11.447 -1.598,12.424 2.716,4.194 15.794,6.993 19.986,4.277 0.291,-0.189 0.646,-0.871 1.023,-1.864 l 9.761,7.46 c -1.305,5.331 -2.346,11.833 -1.697,12.837 2.716,4.193 15.793,6.992 19.985,4.277 0.329,-0.213 0.734,-1.043 1.164,-2.245 l 23.574,18.018 c -2.547,10.726 -4.986,21.512 -7.287,32.259 -10.175,47.552 -1.464,78.263 16.561,82.121 L 194.24,-82.89 c -3.423,-0.732 -7.68,3.047 -12.505,10.441 l -35.288,-15.867 c -2.009,-0.985 -3.901,0.022 -4.209,2.237 l -1.803,16.211 c -0.308,2.216 0.894,5.139 2.671,6.499 l 24.583,18.664 C 156.484,-18.499 143.986,18.961 132.338,60.626 L 4.211,-2.237 C 2.202,-3.221 0.309,-2.215 0,0" />
    </g>
    <g
       id="g5098"
       inkscape:label="planeD">
      <path
         transform="matrix(1.3329334,0.03264238,0.03264238,-1.3329334,846.4907,1862.2088)"
         inkscape:connector-curvature="0"
         id="path84"
         style="fill:#e7e8e9;fill-opacity:1;fill-rule:nonzero;stroke:none"
         d="m 0,0 -19.971,-10.124 c -1.995,-1.012 -3.711,-3.666 -3.811,-5.901 l -2.606,-57.286 c -5.027,-1.96 -10.673,-4.699 -11.113,-5.776 -1.897,-4.623 3.267,-16.96 7.89,-18.853 0.321,-0.134 1.083,-0.035 2.115,0.222 l -0.558,-12.272 c -5.123,-1.97 -11.058,-4.824 -11.511,-5.93 -1.894,-4.623 3.27,-16.96 7.891,-18.854 0.363,-0.15 1.275,-0.008 2.507,0.324 l -1.346,-29.639 c -10.263,-4.028 -20.514,-8.179 -30.652,-12.423 -44.858,-18.772 -65.108,-43.45 -57.992,-60.454 l 298.056,124.74 c -1.351,3.228 -6.885,4.57 -15.708,4.313 l -7.104,38.033 c -0.337,2.211 -2.245,3.193 -4.239,2.182 l -14.344,-7.769 c -1.993,-1.012 -3.709,-3.667 -3.811,-5.901 l -1.301,-30.84 c -27.916,-5.75 -65.81,-16.858 -106.674,-31.065 L 4.239,-2.181 C 3.902,0.03 1.995,1.012 0,0" />
      <path
         inkscape:label="path88"
         clip-path="url(#clipPathv)"
         transform="matrix(1.3329334,0.03264238,0.03264238,-1.3329334,1013.7289,2290.9956)"
         inkscape:connector-curvature="0"
         id="path88"
         style="fill:#ffffff;fill-opacity:1;fill-rule:nonzero;stroke:none"
         d="m 0,0 -21.229,-7.118 c -2.12,-0.71 -5.216,-0.069 -6.877,1.427 l -42.632,38.354 c -4.927,-2.204 -10.839,-4.305 -11.916,-3.863 -4.623,1.896 -9.787,14.233 -7.891,18.854 0.131,0.321 0.737,0.795 1.644,1.35 l -9.134,8.218 c -4.998,-2.267 -11.196,-4.49 -12.303,-4.036 -4.622,1.895 -9.785,14.231 -7.89,18.853 0.148,0.362 0.889,0.912 1.993,1.558 l -22.058,19.844 c -10.072,-4.481 -20.224,-8.868 -30.362,-13.112 -44.859,-18.772 -76.65,-15.877 -83.766,1.128 l 298.056,124.74 c 1.351,-3.228 -1.577,-8.11 -7.954,-14.217 l 22.104,-31.754 c 1.339,-1.793 0.698,-3.838 -1.422,-4.549 l -15.601,-4.764 c -2.12,-0.711 -5.216,-0.069 -6.88,1.427 l -22.879,20.719 c -23.689,-15.848 -58.2,-35.041 -97.002,-54.176 L 1.422,4.551 C 2.759,2.759 2.12,0.712 0,0" />
    </g>
    <g
       id="g5094"
       inkscape:label="planeC">
      <path
         transform="matrix(1.3322108,0.05469235,0.05469235,-1.3322108,-137.28143,3401.7075)"
         inkscape:connector-curvature="0"
         id="path92"
         style="fill:#e7e8e9;fill-opacity:1;fill-rule:nonzero;stroke:none"
         d="m 0,0 9.991,-20.036 c 0.998,-2.003 3.643,-3.736 5.877,-3.85 l 57.267,-2.984 c 1.928,-5.039 4.628,-10.705 5.703,-11.152 4.609,-1.928 16.981,3.156 18.905,7.764 0.137,0.322 0.041,1.086 -0.209,2.119 l 12.269,-0.638 c 1.936,-5.136 4.751,-11.092 5.854,-11.552 4.61,-1.923 16.981,3.157 18.905,7.767 0.152,0.363 0.017,1.275 -0.309,2.51 l 29.631,-1.543 c 3.961,-10.289 8.043,-20.567 12.22,-30.733 18.476,-44.982 43.02,-65.393 60.071,-58.39 L 113.403,178.153 c -3.236,-1.327 -4.614,-6.852 -4.415,-15.678 l -38.079,-6.853 c -2.214,-0.32 -3.21,-2.224 -2.211,-4.226 l 7.674,-14.39 c 0.999,-2.002 3.642,-3.736 5.877,-3.852 l 30.83,-1.504 C 118.645,103.696 129.502,65.729 143.44,24.772 L 2.209,4.225 C -0.005,3.902 -0.999,2.002 0,0" />
      <path
         transform="matrix(1.3322108,0.05469235,0.05469235,-1.3322108,295.26102,3244.4349)"
         inkscape:connector-curvature="0"
         id="path96"
         style="fill:#ffffff;fill-opacity:1;fill-rule:nonzero;stroke:none"
         d="m 0,0 6.978,-21.276 c 0.696,-2.124 0.035,-5.216 -1.473,-6.869 l -38.634,-42.377 c 2.171,-4.94 4.233,-10.866 3.785,-11.943 -1.927,-4.609 -14.298,-9.692 -18.907,-7.766 -0.319,0.134 -0.79,0.745 -1.339,1.654 l -8.277,-9.079 c 2.234,-5.014 4.415,-11.227 3.954,-12.329 -1.927,-4.611 -14.295,-9.691 -18.905,-7.766 -0.361,0.15 -0.905,0.896 -1.543,2.002 l -19.992,-21.926 c 4.416,-10.101 8.736,-20.281 12.913,-30.448 18.476,-44.981 15.371,-76.752 -1.68,-83.757 L -205.892,46.991 c 3.237,1.332 8.1,-1.63 14.163,-8.047 l 31.901,21.895 c 1.802,1.327 3.842,0.672 4.539,-1.453 l 4.662,-15.631 c 0.696,-2.125 0.034,-5.215 -1.474,-6.87 l -20.869,-22.74 c 15.692,-23.793 34.657,-58.432 53.535,-97.359 L -4.541,1.452 C -2.741,2.777 -0.698,2.126 0,0" />
    </g>
    <g
       id="g32344"
       inkscape:label="planeB">
      <use
         xlink:href="#plane-icon"
         id="use4654"
         x="0"
         y="0"
         width="100%"
         height="100%" />
    </g>
    <g
       id="g5086"
       inkscape:label="planeA">
      <path
         clip-path="url(#clipPathk)"
         transform="matrix(1.3215658,0.17675079,0.17675079,-1.3215658,2706.6064,-304.01688)"
         inkscape:connector-curvature="0"
         id="path108"
         style="display:inline;fill:#e7e8e9;fill-opacity:1;fill-rule:nonzero;stroke:none"
         d="m 0,0 20.862,8.133 c 2.083,0.812 4.049,3.288 4.367,5.501 l 8.167,56.761 c 5.196,1.463 11.081,3.638 11.625,4.667 2.336,4.417 -1.601,17.198 -6.017,19.533 -0.309,0.163 -1.077,0.138 -2.129,-0.016 l 1.75,12.159 c 5.291,1.462 11.475,3.726 12.034,4.782 2.334,4.417 -1.604,17.199 -6.018,19.533 -0.346,0.183 -1.268,0.131 -2.528,-0.08 l 4.225,29.368 c 10.605,3.011 21.211,6.144 31.714,9.381 46.473,14.318 69.029,36.907 63.601,54.523 l -308.781,-95.141 c 1.03,-3.344 6.407,-5.217 15.215,-5.82 l 3.367,-38.544 c 0.122,-2.234 1.925,-3.396 4.007,-2.584 l 15.03,6.336 c 2.084,0.813 4.05,3.289 4.37,5.503 l 4.295,30.565 c 28.344,3.007 67.141,10.375 109.193,20.537 L -4.007,2.584 C -3.886,0.351 -2.083,-0.812 0,0" />
      <path
         clip-path="url(#clipPath)"
         transform="matrix(1.3215658,0.17675079,0.17675079,-1.3215658,2630.5882,-757.94189)"
         inkscape:connector-curvature="0"
         id="path112"
         style="display:inline;fill:#ffffff;fill-opacity:1;fill-rule:nonzero;stroke:none"
         d="M 0,0 21.82,5.018 C 24,5.519 27.019,4.58 28.527,2.928 l 38.696,-42.32 c 5.117,1.715 11.206,3.229 12.235,2.685 4.417,-2.337 8.355,-15.118 6.019,-19.533 -0.163,-0.307 -0.811,-0.719 -1.767,-1.184 l 8.289,-9.066 c 5.195,1.769 11.581,3.378 12.639,2.82 4.414,-2.336 8.352,-15.118 6.017,-19.533 -0.183,-0.346 -0.974,-0.821 -2.134,-1.357 l 20.02,-21.898 c 10.461,3.481 20.992,6.859 31.494,10.096 46.474,14.319 77.832,8.342 83.259,-9.274 l -308.781,-95.141 c -1.031,3.345 2.36,7.92 9.3,13.375 l -18.909,33.756 c -1.158,1.914 -0.322,3.889 1.859,4.389 l 15.989,3.224 c 2.181,0.5 5.199,-0.44 6.709,-2.091 l 20.753,-22.848 c 25.119,13.468 61.336,29.212 101.815,44.48 L -1.858,-4.39 C -3.016,-2.476 -2.18,-0.501 0,0" />
    </g>
  </g>
  <metadata
     id="metadata7346">
    <rdf:RDF>
      <cc:Work
         rdf:about="">
        <dc:title></dc:title>
      </cc:Work>
    </rdf:RDF>
  </metadata>
</svg>
