<svg width="6e3" height="6e3" version="1.1" viewBox="0 0 5999.9999 6000.0015" xmlns="http://www.w3.org/2000/svg">
 <defs>
  <radialGradient id="radialGradient30" cx="0" cy="0" r="1" gradientTransform="matrix(3e3 0 0 3e3 3e3 3e3)" gradientUnits="userSpaceOnUse">
   <stop stop-color="#6dcff6" offset="0"/>
   <stop stop-color="#0071bc" offset=".737"/>
   <stop stop-color="#0071bc" offset="1"/>
  </radialGradient>
 </defs>
 <path d="m0 6e3h6e3v-6e3h-6e3z" style="fill:url(#radialGradient30)"/>
 <g stroke-miterlimit="10">
  <path d="m3099-741c1380 1779 2100 5125 839.8 7775" style="fill:none;stroke-dasharray:90;stroke-miterlimit:10;stroke-width:20;stroke:#fff"/>
  <path d="m-963 5588c1678-1500 5128-3005 8448-2192" style="fill:none;stroke-dasharray:90;stroke-miterlimit:10;stroke-width:20;stroke:#fff"/>
  <path d="m1928-546c-1288 1930-1888 4008-238.8 6930" style="fill:none;stroke-dasharray:90;stroke-miterlimit:10;stroke-width:20;stroke:#fff"/>
  <path d="m53.1 124c1649 3817 5022 5272 9085 4847" style="fill:none;stroke-dasharray:90.03, 90.03;stroke-miterlimit:10;stroke-width:20;stroke:#fff"/>
  <path d="m-1011 577c1215 916.7 5760 1337 8498-688" style="fill:none;stroke-dasharray:90;stroke-miterlimit:10;stroke-width:20;stroke:#fff"/>
 </g>
 <path transform="matrix(1.33 .09709 .09709 -1.33 4745 2873)" d="m0 0-6.267 21.5c-0.626 2.148-2.919 4.323-5.096 4.835l-55.82 13.13c-1 5.303-2.649 11.36-3.627 11.99-4.194 2.716-17.27-0.083-19.98-4.277-0.191-0.292-0.233-1.059-0.172-2.12l-11.96 2.813c-0.99 5.398-2.701 11.76-3.704 12.41-4.194 2.714-17.27-0.085-19.99-4.278-0.214-0.329-0.243-1.251-0.144-2.525l-28.88 6.793c-2.065 10.83-4.253 21.67-6.554 32.42-10.18 47.55-30.69 72.01-48.72 68.15l67.62-316c3.422 0.732 5.761 5.924 7.137 14.64l38.69-0.035c2.236-0.077 3.553 1.617 2.927 3.764l-4.989 15.53c-0.627 2.147-2.92 4.323-5.098 4.835l-30.07 6.968c-0.502 28.5-4.429 67.79-10.85 110.6l142.6-4.917c2.236-0.076 3.552 1.617 2.926 3.764" style="fill:#e7e8e9"/>
 <path transform="matrix(1.33 .09709 .09709 -1.33 4289 2936)" d="m0 0-3.079 22.18c-0.308 2.215 0.894 5.139 2.671 6.496l45.56 34.82c-1.257 5.248-2.231 11.45-1.598 12.42 2.716 4.194 15.79 6.993 19.99 4.277 0.291-0.189 0.646-0.871 1.023-1.864l9.761 7.46c-1.305 5.331-2.346 11.83-1.697 12.84 2.716 4.193 15.79 6.992 19.98 4.277 0.329-0.213 0.734-1.043 1.164-2.245l23.57 18.02c-2.547 10.73-4.986 21.51-7.287 32.26-10.18 47.55-1.464 78.26 16.56 82.12l67.62-316c-3.423-0.732-7.68 3.047-12.5 10.44l-35.29-15.87c-2.009-0.985-3.901 0.022-4.209 2.237l-1.803 16.21c-0.308 2.216 0.894 5.139 2.671 6.499l24.58 18.66c-11.2 26.21-23.7 63.67-35.35 105.3l-128.1-62.86c-2.009-0.984-3.902 0.022-4.211 2.237" style="fill:#fff"/>
 <path transform="matrix(1.333 .03264 .03264 -1.333 1854 3654)" d="m0 0-19.97-10.12c-1.995-1.012-3.711-3.666-3.811-5.901l-2.606-57.29c-5.027-1.96-10.67-4.699-11.11-5.776-1.897-4.623 3.267-16.96 7.89-18.85 0.321-0.134 1.083-0.035 2.115 0.222l-0.558-12.27c-5.123-1.97-11.06-4.824-11.51-5.93-1.894-4.623 3.27-16.96 7.891-18.85 0.363-0.15 1.275-8e-3 2.507 0.324l-1.346-29.64c-10.26-4.028-20.51-8.179-30.65-12.42-44.86-18.77-65.11-43.45-57.99-60.45l298.1 124.7c-1.351 3.228-6.885 4.57-15.71 4.313l-7.104 38.03c-0.337 2.211-2.245 3.193-4.239 2.182l-14.34-7.769c-1.993-1.012-3.709-3.667-3.811-5.901l-1.301-30.84c-27.92-5.75-65.81-16.86-106.7-31.06l-21.48 141.1c-0.337 2.211-2.244 3.193-4.239 2.181" style="fill:#e7e8e9"/>
 <path transform="matrix(1.333 .03264 .03264 -1.333 2022 4083)" d="m0 0-21.23-7.118c-2.12-0.71-5.216-0.069-6.877 1.427l-42.63 38.35c-4.927-2.204-10.84-4.305-11.92-3.863-4.623 1.896-9.787 14.23-7.891 18.85 0.131 0.321 0.737 0.795 1.644 1.35l-9.134 8.218c-4.998-2.267-11.2-4.49-12.3-4.036-4.622 1.895-9.785 14.23-7.89 18.85 0.148 0.362 0.889 0.912 1.993 1.558l-22.06 19.84c-10.07-4.481-20.22-8.868-30.36-13.11-44.86-18.77-76.65-15.88-83.77 1.128l298.1 124.7c1.351-3.228-1.577-8.11-7.954-14.22l22.1-31.75c1.339-1.793 0.698-3.838-1.422-4.549l-15.6-4.764c-2.12-0.711-5.216-0.069-6.88 1.427l-22.88 20.72c-23.69-15.85-58.2-35.04-97-54.18l85.42-114.3c1.337-1.792 0.698-3.839-1.422-4.551" style="fill:#fff"/>
 <path transform="matrix(1.332 .05469 .05469 -1.332 870.7 5194)" d="m0 0 9.991-20.04c0.998-2.003 3.643-3.736 5.877-3.85l57.27-2.984c1.928-5.039 4.628-10.7 5.703-11.15 4.609-1.928 16.98 3.156 18.9 7.764 0.137 0.322 0.041 1.086-0.209 2.119l12.27-0.638c1.936-5.136 4.751-11.09 5.854-11.55 4.61-1.923 16.98 3.157 18.9 7.767 0.152 0.363 0.017 1.275-0.309 2.51l29.63-1.543c3.961-10.29 8.043-20.57 12.22-30.73 18.48-44.98 43.02-65.39 60.07-58.39l-122.8 298.9c-3.236-1.327-4.614-6.852-4.415-15.68l-38.08-6.853c-2.214-0.32-3.21-2.224-2.211-4.226l7.674-14.39c0.999-2.002 3.642-3.736 5.877-3.852l30.83-1.504c5.566-27.95 16.42-65.92 30.36-106.9l-141.2-20.55c-2.214-0.323-3.208-2.223-2.209-4.225" style="fill:#e7e8e9"/>
 <path transform="matrix(1.332 .05469 .05469 -1.332 1303 5036)" d="m0 0 6.978-21.28c0.696-2.124 0.035-5.216-1.473-6.869l-38.63-42.38c2.171-4.94 4.233-10.87 3.785-11.94-1.927-4.609-14.3-9.692-18.91-7.766-0.319 0.134-0.79 0.745-1.339 1.654l-8.277-9.079c2.234-5.014 4.415-11.23 3.954-12.33-1.927-4.611-14.3-9.691-18.9-7.766-0.361 0.15-0.905 0.896-1.543 2.002l-19.99-21.93c4.416-10.1 8.736-20.28 12.91-30.45 18.48-44.98 15.37-76.75-1.68-83.76l-122.8 298.9c3.237 1.332 8.1-1.63 14.16-8.047l31.9 21.9c1.802 1.327 3.842 0.672 4.539-1.453l4.662-15.63c0.696-2.125 0.034-5.215-1.474-6.87l-20.87-22.74c15.69-23.79 34.66-58.43 53.54-97.36l114.9 84.67c1.8 1.325 3.843 0.674 4.541-1.452" style="fill:#fff"/>
 <path transform="matrix(1.324 -.1613 -.1613 -1.324 2288 2916)" d="m0 0-16.1 15.56c-1.609 1.553-4.678 2.307-6.822 1.671l-54.99-16.27c-3.497 4.11-7.931 8.549-9.093 8.614-4.99 0.279-14.96-8.635-15.24-13.62-0.022-0.347 0.321-1.035 0.902-1.926l-11.78-3.486c-3.536 4.197-8.175 8.872-9.368 8.939-4.989 0.278-14.96-8.636-15.24-13.62-0.022-0.391 0.409-1.207 1.126-2.264l-28.45-8.419c-7.164 8.381-14.44 16.71-21.76 24.9-32.41 36.25-62.35 47.32-76.1 35.03l215.4-240.9c2.608 2.333 2.067 8.001-1.061 16.26l33.62 19.15c1.979 1.042 2.283 3.167 0.674 4.72l-12.03 11.01c-1.609 1.554-4.679 2.307-6.824 1.673l-29.57-8.858c-14.56 24.5-37.45 56.68-64.24 90.65l126.3 66.44c1.98 1.041 2.284 3.163 0.675 4.718" style="fill:#e7e8e9"/>
 <path transform="matrix(1.324 -.1613 -.1613 -1.324 1985 3262)" d="m0 0-13.67 17.73c-1.364 1.771-1.77 4.908-0.901 6.965l22.3 52.83c-3.693 3.935-7.613 8.835-7.547 9.997 0.28 4.99 10.25 13.9 15.24 13.62 0.346-0.019 0.992-0.435 1.814-1.111l4.779 11.32c-3.777 3.983-7.905 9.113-7.839 10.31 0.28 4.987 10.25 13.9 15.24 13.62 0.391-0.021 1.152-0.541 2.124-1.373l11.54 27.34c-7.529 8.052-15 16.21-22.32 24.4-32.41 36.25-40.07 67.24-26.33 79.53l215.4-240.9c-2.609-2.333-8.18-1.162-16.04 2.867l-22.78-31.27c-1.257-1.852-3.4-1.914-4.765-0.143l-9.604 13.18c-1.365 1.771-1.771 4.906-0.9 6.968l12.1 28.4c-22.72 17.2-52.15 43.54-82.92 73.95l-80.11-118.1c-1.256-1.851-3.4-1.916-4.766-0.145" style="fill:#fff"/>
 <path transform="matrix(1.322 .1768 .1768 -1.322 3715 1488)" d="m0 0 20.86 8.133c2.083 0.812 4.049 3.288 4.367 5.501l8.167 56.76c5.196 1.463 11.08 3.638 11.62 4.667 2.336 4.417-1.601 17.2-6.017 19.53-0.309 0.163-1.077 0.138-2.129-0.016l1.75 12.16c5.291 1.462 11.48 3.726 12.03 4.782 2.334 4.417-1.604 17.2-6.018 19.53-0.346 0.183-1.268 0.131-2.528-0.08l4.225 29.37c10.6 3.011 21.21 6.144 31.71 9.381 46.47 14.32 69.03 36.91 63.6 54.52l-308.8-95.14c1.03-3.344 6.407-5.217 15.22-5.82l3.367-38.54c0.122-2.234 1.925-3.396 4.007-2.584l15.03 6.336c2.084 0.813 4.05 3.289 4.37 5.503l4.295 30.56c28.34 3.007 67.14 10.38 109.2 20.54l7.644-142.5c0.121-2.233 1.924-3.396 4.007-2.584" style="fill:#e7e8e9"/>
 <path transform="matrix(1.322 .1768 .1768 -1.322 3639 1034)" width="100%" d="m0 0 21.82 5.018c2.18 0.501 5.199-0.438 6.707-2.09l38.7-42.32c5.117 1.715 11.21 3.229 12.24 2.685 4.417-2.337 8.355-15.12 6.019-19.53-0.163-0.307-0.811-0.719-1.767-1.184l8.289-9.066c5.195 1.769 11.58 3.378 12.64 2.82 4.414-2.336 8.352-15.12 6.017-19.53-0.183-0.346-0.974-0.821-2.134-1.357l20.02-21.9c10.46 3.481 20.99 6.859 31.49 10.1 46.47 14.32 77.83 8.342 83.26-9.274l-308.8-95.14c-1.031 3.345 2.36 7.92 9.3 13.38l-18.91 33.76c-1.158 1.914-0.322 3.889 1.859 4.389l15.99 3.224c2.181 0.5 5.199-0.44 6.709-2.091l20.75-22.85c25.12 13.47 61.34 29.21 101.8 44.48l-73.89 122.1c-1.158 1.914-0.322 3.889 1.858 4.39" style="fill:#fff"/>
</svg>
