<?xml version="1.0" encoding="UTF-8" standalone="no"?>
<svg
   xmlns:dc="http://purl.org/dc/elements/1.1/"
   xmlns:cc="http://creativecommons.org/ns#"
   xmlns:rdf="http://www.w3.org/1999/02/22-rdf-syntax-ns#"
   xmlns:svg="http://www.w3.org/2000/svg"
   xmlns="http://www.w3.org/2000/svg"
   xmlns:sodipodi="http://sodipodi.sourceforge.net/DTD/sodipodi-0.dtd"
   xmlns:inkscape="http://www.inkscape.org/namespaces/inkscape"
   width="6e3"
   height="6e3"
   version="1.1"
   viewBox="0 0 5999.9999 6000.0015"
   id="svg4133"
   sodipodi:docname="airplane routes-working copy.svg"
   inkscape:version="0.92.1 r15371">
  <metadata
     id="metadata4137">
    <rdf:RDF>
      <cc:Work
         rdf:about="">
        <dc:format>image/svg+xml</dc:format>
        <dc:type
           rdf:resource="http://purl.org/dc/dcmitype/StillImage" />
      </cc:Work>
    </rdf:RDF>
  </metadata>
  <sodipodi:namedview
     pagecolor="#ffffff"
     bordercolor="#666666"
     borderopacity="1"
     objecttolerance="10"
     gridtolerance="10"
     guidetolerance="10"
     inkscape:pageopacity="0"
     inkscape:pageshadow="2"
     inkscape:window-width="2560"
     inkscape:window-height="1018"
     id="namedview4135"
     showgrid="false"
     inkscape:zoom="0.078666667"
     inkscape:cx="1661.8847"
     inkscape:cy="2336.8482"
     inkscape:window-x="-8"
     inkscape:window-y="-8"
     inkscape:window-maximized="1"
     inkscape:current-layer="svg4133" />
  <defs
     id="defs4097">
    <radialGradient
       id="radialGradient30"
       cx="0"
       cy="0"
       r="1"
       gradientTransform="matrix(6000,0,0,3000,6000,3000)"
       gradientUnits="userSpaceOnUse">
      <stop
         stop-color="#6dcff6"
         offset="0"
         id="stop4090" />
      <stop
         stop-color="#0071bc"
         offset=".737"
         id="stop4092" />
      <stop
         stop-color="#0071bc"
         offset="1"
         id="stop4094" />
    </radialGradient>
  </defs>
  <path
     d="M 0,6000 H 12000 V 0 H 0 Z"
     style="fill:url(#radialGradient30);stroke-width:1.41421354"
     id="path4099"
     inkscape:connector-curvature="0"
     inkscape:label="bg" />
  <path
     id="path4101"
     style="fill:none;stroke:#ffffff;stroke-width:20;stroke-miterlimit:10;stroke-dasharray:90"
     d="m 5959.8597,-741 c 1380,1779 2100,5125 839.8,7775"
     inkscape:connector-curvature="0"
     inkscape:label="pathB" />
  <path
     id="path4103"
     style="fill:none;stroke:#ffffff;stroke-width:24.97418022;stroke-miterlimit:10;stroke-dasharray:112.38381266"
     d="M 1436.7081,6060.102 C 3087.1266,4009.0724 7840.088,2307.7314 11985.802,3322.9318"
     inkscape:connector-curvature="0"
     inkscape:label="pathA"
     sodipodi:nodetypes="cc" />
  <path
     id="path4105"
     style="fill:none;stroke:#ffffff;stroke-width:20;stroke-miterlimit:10;stroke-dasharray:90"
     d="m 4788.8597,-546 c -1288,1930 -1888,4008 -238.8,6930"
     inkscape:connector-curvature="0"
     inkscape:label="pathE" />
  <path
     id="path4107"
     style="fill:none;stroke:#ffffff;stroke-width:20;stroke-miterlimit:10;stroke-dasharray:90.03, 90.03"
     d="m 2913.9597,124 c 1649,3817 5022,5272 9085.0003,4847"
     inkscape:connector-curvature="0"
     inkscape:label="pathD" />
  <g
     id="g4202"
     inkscape:label="planeA">
    <path
       id="path4117"
       style="fill:#e7e8e9;stroke-width:1.33339953"
       d="m 4714.8597,3654 -26.9503,12.8381 c -2.6924,1.2839 -5.0664,4.7657 -5.2727,7.7417 l -5.3437,76.2825 c -6.765,2.4486 -14.3765,5.9155 -14.9982,7.3368 -2.6796,6.1005 3.8013,22.7143 9.9021,25.3845 0.4235,0.1891 1.4425,0.082 2.8265,-0.2268 l -1.1443,16.3377 c -6.8932,2.4587 -14.9004,6.0693 -15.5363,7.529 -2.6756,6.1006 3.8053,22.7144 9.9034,25.3846 0.479,0.2118 1.6993,0.052 3.3524,-0.3501 l -2.7617,39.4662 c -13.808,5.0344 -27.6068,10.2332 -41.2618,15.5554 -60.411,23.5562 -88.2098,55.7937 -79.2738,78.6871 l 401.4375,-156.4951 c -1.6955,-4.347 -9.0285,-6.3166 -20.8006,-6.262 l -8.2283,-50.9259 c -0.3771,-2.9583 -2.8884,-4.3295 -5.5794,-3.047 l -19.3688,9.8881 c -2.6897,1.2839 -5.0638,4.767 -5.2727,7.7416 l -2.7408,41.0673 c -37.4051,6.7534 -88.2751,20.3263 -143.2449,37.9203 l -24.0274,-188.7875 c -0.377,-2.9582 -2.887,-4.3295 -5.5794,-3.0456"
       inkscape:connector-curvature="0"
       inkscape:label="planeA-r" />
    <path
       id="path4119"
       style="fill:#ffffff;stroke-width:1.33339953"
       d="m 4882.8597,4083 -28.5319,8.7953 c -2.8492,0.8773 -6.9552,-0.078 -9.1205,-2.1266 l -55.574,-52.512 c -6.6397,2.7771 -14.5903,5.3847 -16.0155,4.7603 -6.1006,-2.6783 -12.5816,-19.288 -9.9034,-25.3846 0.1851,-0.4236 1.0084,-1.0357 2.2355,-1.7459 l -11.9074,-11.2527 c -6.7363,2.8588 -15.0761,5.6196 -16.5276,4.9785 -6.0993,-2.6769 -12.579,-19.288 -9.9021,-25.3846 0.2091,-0.4777 1.2148,-1.1867 2.7075,-2.0117 l -28.7584,-27.1668 c -13.5696,5.6445 -27.2427,11.1611 -40.8978,16.4847 -60.411,23.5562 -102.6928,18.6662 -111.6286,-4.2379 l 401.4375,-156.4951 c 1.6955,4.347 -2.3668,10.7591 -11.0668,18.6956 l 28.423,43.0441 c 1.7263,2.4338 0.8051,5.1389 -2.044,6.0174 l -20.9503,5.8412 c -2.8492,0.8786 -6.9552,-0.078 -9.1245,-2.1267 l -29.8227,-28.3666 c -32.0961,20.3548 -78.7243,44.8087 -131.0695,69.0559 l 110.1341,155.15 c 1.7238,2.4324 0.8052,5.1402 -2.044,6.0201"
       inkscape:connector-curvature="0"
       inkscape:label="planeA-l" />
  </g>
  <path
     id="path4109"
     style="fill:none;stroke:#ffffff;stroke-width:20;stroke-miterlimit:10;stroke-dasharray:90"
     d="M 591.38512,17.677966 C 1844.5207,1760.6492 7609.8597,1914 10347.86,-111"
     inkscape:connector-curvature="0"
     sodipodi:nodetypes="cc"
     inkscape:label="pathC" />
  <g
     id="g4206"
     inkscape:label="planeB">
    <path
       id="path4113"
       style="fill:#e7e8e9;stroke-width:1.33353913"
       d="m 7605.8597,2873 -6.2477,-29.2035 c -0.624,-2.9176 -3.4625,-6.033 -6.3082,-6.9253 l -72.9658,-22.8824 c -0.8152,-7.1501 -2.4203,-15.366 -3.6598,-16.2989 -5.3144,-4.0195 -22.9772,-1.5663 -26.9887,3.7486 -0.2824,0.3698 -0.4127,1.3858 -0.4346,2.8029 l -15.6337,-4.9025 c -0.7926,-7.2755 -2.4505,-15.9031 -3.7214,-16.8649 -5.3145,-4.0169 -22.9774,-1.5637 -27.002,3.7489 -0.3166,0.4168 -0.4447,1.6402 -0.4367,3.3442 l -37.7509,-11.8386 c -1.695,-14.6044 -3.5525,-29.234 -5.5692,-43.7549 -8.9227,-64.2299 -33.8262,-98.753 -58.1809,-95.3698 l 59.2542,426.8453 c 4.6223,-0.6414 8.2373,-7.3196 10.9136,-18.7783 l 51.4543,3.8029 c 2.9664,0.3196 4.8825,-1.8056 4.2584,-4.7219 l -5.1276,-21.1393 c -0.6255,-2.9164 -3.4639,-6.0331 -6.3109,-6.9255 l -39.3166,-12.1869 c 2.0994,-37.9538 0.6912,-90.5907 -3.6923,-148.1514 l 189.1806,20.3846 c 2.9665,0.3182 4.8811,-1.8058 4.257,-4.722"
       inkscape:connector-curvature="0"
       inkscape:label="planeB-r" />
    <path
       id="path4115"
       style="fill:#ffffff;stroke-width:1.33353913"
       d="m 7149.8597,2936 -1.9416,-29.7983 c -0.1946,-2.9759 1.688,-6.7481 4.1831,-8.3804 l 63.9755,-41.8872 c -1.1623,-7.1019 -1.8556,-15.4451 -0.9195,-16.6737 4.0195,-5.3143 21.6797,-7.7677 27.002,-3.7476 0.3686,0.2796 0.7746,1.2211 1.1796,2.5784 l 13.7064,-8.9741 c -1.2181,-7.2169 -1.9716,-15.9616 -1.0104,-17.2419 4.0194,-5.313 21.6796,-7.7663 26.9887,-3.7486 0.4169,0.3153 0.8749,1.4585 1.3301,3.0989 l 33.0977,-21.6782 c -2.3457,-14.5182 -4.543,-29.0924 -6.5596,-43.6133 -8.9228,-64.2299 5.6511,-104.2279 29.9978,-107.6118 l 59.2542,426.8452 c -4.6237,0.6413 -9.9186,-4.7981 -15.6114,-15.0988 l -48.4765,17.6808 c -2.7676,1.115 -5.1862,-0.408 -5.3808,-3.3839 l -0.8241,-21.7343 c -0.1945,-2.9772 1.6879,-6.7481 4.1834,-8.3844 l 34.5031,-22.4313 c -12.3513,-35.9467 -25.3393,-86.9821 -36.792,-143.4811 l -176.476,71.1666 c -2.7675,1.1136 -5.1876,-0.4081 -5.3835,-3.3841"
       inkscape:connector-curvature="0"
       inkscape:label="planeB-l" />
  </g>
  <g
     id="g4210"
     inkscape:label="planeC">
    <path
       id="path4129"
       style="fill:#e7e8e9;stroke-width:1.33376992"
       d="m 6575.8597,1488 29.0148,-7.0638 c 2.8973,-0.7052 5.9341,-3.6309 6.7458,-6.5002 l 20.8319,-73.5928 c 7.1278,-1.0154 15.291,-2.8505 16.1868,-4.1154 3.8691,-5.4262 0.9244,-23.0214 -4.5016,-26.8824 -0.3797,-0.2701 -1.3994,-0.3729 -2.8173,-0.3553 l 4.4633,-15.7661 c 7.2532,-0.9973 15.8354,-2.8961 16.7492,-4.1949 3.8664,-5.4266 0.9204,-23.022 -4.5029,-26.8826 -0.4251,-0.3031 -1.6532,-0.3974 -3.3562,-0.3412 l 10.7781,-38.0802 c 14.5455,-2.1065 29.1259,-4.3724 43.5792,-6.7954 63.9651,-10.7151 97.7833,-36.5905 93.7183,-60.8309 l -425.0544,71.1792 c 0.7705,4.6029 7.5477,8.0297 19.0919,10.385 l -2.3627,51.5451 c -0.2337,2.9749 1.9444,4.8299 4.8404,4.1245 l 20.9899,-5.7189 c 2.8988,-0.7063 5.9356,-3.632 6.75,-6.5023 l 11.081,-39.641 c 37.9972,1.0353 90.5943,-1.852 147.9939,-7.8473 l -15.0886,189.7365 c -0.2349,2.9734 1.9431,4.8296 4.8404,4.1244"
       inkscape:connector-curvature="0"
       inkscape:label="pathC-r" />
    <path
       id="path4131"
       style="fill:#ffffff;stroke-width:1.33376992"
       d="m 6499.8597,1034 29.7332,-2.776 c 2.9706,-0.2769 6.7957,1.4982 8.4972,3.9488 l 43.6792,62.7892 c 7.0679,-1.3626 15.3905,-2.2869 16.656,-1.3856 5.4261,3.8705 8.3721,21.4658 4.5042,26.8828 -0.2698,0.3771 -1.1993,0.8072 -2.5453,1.2529 l 9.3552,13.4507 c 7.1805,-1.4201 15.906,-2.4183 17.2086,-1.4933 5.4223,3.8686 8.3682,21.4653 4.5016,26.8825 -0.3031,0.4251 -1.4328,0.9132 -3.0611,1.4167 l 22.5946,32.4913 c 14.4435,-2.7525 28.9614,-5.3566 43.4154,-7.7848 63.9651,-10.7151 104.3661,2.7323 108.4301,26.9806 l -425.0544,71.1793 c -0.7715,-4.6044 4.5202,-10.053 14.6602,-16.0441 l -19.0302,-47.9741 c -1.1925,-2.735 0.2619,-5.1981 3.2335,-5.4735 l 21.7088,-1.4351 c 2.9717,-0.2754 6.7953,1.5008 8.4996,3.9504 l 23.3917,33.8763 c 35.5901,-13.3661 86.2558,-27.7707 142.4436,-40.8043 l -76.0953,-174.48 c -1.1925,-2.735 0.2619,-5.1981 3.2324,-5.475"
       width="100%"
       inkscape:connector-curvature="0"
       inkscape:label="planeC-l" />
  </g>
  <g
     id="g4214"
     inkscape:label="planeD">
    <path
       id="path4125"
       style="fill:#e7e8e9;stroke-width:1.33378923"
       d="m 5148.8597,2916 -23.8262,-18.0045 c -2.3808,-1.7967 -6.5658,-2.2999 -9.3019,-1.112 l -70.1824,30.4113 c -5.293,-4.8775 -11.8796,-10.0396 -13.4286,-9.9382 -6.6517,0.4355 -18.4142,13.8458 -17.9808,20.4911 0.027,0.463 0.5919,1.3186 1.5049,2.4045 l -15.0344,6.5156 c -5.3587,-4.9865 -12.2548,-10.4279 -13.8451,-10.3242 -6.6503,0.4367 -18.4141,13.8471 -17.9809,20.4911 0.034,0.5213 0.7362,1.5321 1.856,2.8159 l -36.3098,15.7358 c -10.837,-9.9409 -21.8139,-19.7949 -32.8266,-29.4577 -48.758,-42.7673 -90.1841,-52.5947 -106.4067,-34.1048 l 324.0467,284.2076 c 3.0767,-3.5096 1.4462,-10.9268 -4.0275,-21.3571 l 41.424,-30.7776 c 2.4521,-1.6988 2.5119,-4.5613 0.1311,-6.3579 l -17.7037,-12.6369 c -2.381,-1.7979 -6.5671,-2.2997 -9.3048,-1.1143 l -37.7219,16.4976 c -23.2293,-30.0894 -58.7263,-69.0036 -99.6756,-109.6586 l 156.5044,-108.3388 c 2.4536,-1.6977 2.5138,-4.5562 0.1327,-6.3555"
       inkscape:connector-curvature="0"
       inkscape:label="planeD-r" />
    <path
       id="path4127"
       style="fill:#ffffff;stroke-width:1.33378923"
       d="m 4845.8597,3262 -20.9589,-21.2695 c -2.0916,-2.1248 -3.1352,-6.2127 -2.3164,-9.0764 l 21.0037,-73.5439 c -5.5242,-4.6142 -11.5047,-10.4696 -11.6047,-12.0187 -0.4342,-6.6519 11.3289,-20.0569 17.9808,-20.4911 0.4612,-0.031 1.3836,0.416 2.581,1.1784 l 4.5014,-15.7585 c -5.6432,-4.6643 -11.9361,-10.7906 -12.0418,-12.3861 -0.4337,-6.6479 11.3289,-20.0569 17.9809,-20.491 0.521,-0.035 1.6125,0.5304 3.0336,1.4752 l 10.869,-38.0596 c -11.2672,-9.4464 -22.4747,-19.0425 -33.4874,-28.7053 -48.7579,-42.7673 -63.8985,-82.5625 -47.6891,-101.0507 l 324.0468,284.2075 c -3.078,3.5098 -10.6429,2.858 -21.6994,-1.2086 l -25.1169,45.0759 c -1.3655,2.6548 -4.1929,3.0825 -6.2858,0.9579 l -14.8416,-15.9012 c -2.0929,-2.1246 -3.1362,-6.2099 -2.3156,-9.0804 l 11.4395,-39.5534 c -32.8556,-19.108 -76.0696,-49.2351 -121.7142,-84.5348 l -87.0161,169.2862 c -1.3644,2.6533 -4.1926,3.0852 -6.2868,0.9607"
       inkscape:connector-curvature="0"
       inkscape:label="planeD-l" />
  </g>
  <g
     id="g4218"
     inkscape:label="planeE">
    <path
       id="path4121"
       style="fill:#e7e8e9;stroke-width:1.33312225"
       d="m 3731.5597,5194 12.212,27.2397 c 1.2198,2.7226 4.6482,5.1756 7.6176,5.4496 l 76.1205,7.1068 c 2.2925,6.8174 5.5793,14.5055 6.9866,15.1637 6.0337,2.8201 22.7899,-3.2752 25.5994,-9.308 0.2001,-0.4214 0.114,-1.4443 -0.1625,-2.834 l 16.3087,1.5209 c 2.2979,6.947 5.7219,15.0317 7.1659,15.7048 6.0354,2.8135 22.79,-3.2765 25.5996,-9.312 0.2223,-0.4753 0.092,-1.6974 -0.2743,-3.3603 l 39.3827,3.6758 c 4.7133,13.9229 9.5883,27.8391 14.5964,41.6006 22.1555,60.9241 53.7265,89.4523 76.8199,81.0608 l -147.2227,-404.8508 c -4.3829,1.5906 -6.5206,8.8745 -6.7383,20.6443 l -51.0974,7.0456 c -2.9665,0.3052 -4.3973,2.7868 -3.1762,5.5081 l 9.4348,19.5872 c 1.2212,2.7213 4.6468,5.1755 7.6175,5.4523 l 40.9833,3.6894 c 5.8853,37.5338 18.2663,88.7035 34.5932,144.0512 l -189.2023,19.6504 c -2.9667,0.3091 -4.3946,2.7856 -3.1735,5.5069"
       inkscape:connector-curvature="0"
       inkscape:label="planeE-r" />
    <path
       id="path4123"
       style="fill:#ffffff;stroke-width:1.33312225"
       d="m 4163.8597,5036 8.1309,28.7266 c 0.8109,2.8672 -0.2387,6.9496 -2.3377,9.0689 l -53.7729,54.3375 c 2.6216,6.6988 5.0438,14.7104 4.3886,16.1111 -2.8188,6.0338 -19.5777,12.1277 -25.6129,9.3101 -0.4175,-0.1959 -1.0115,-1.0355 -1.693,-2.2763 l -11.5215,11.6405 c 2.7014,6.8009 5.2666,15.1998 4.5924,16.6398 -2.819,6.0365 -19.5776,12.1264 -25.5996,9.3107 -0.4726,-0.2195 -1.1564,-1.243 -1.9457,-2.751 l -27.8261,28.1175 c 5.3298,13.6947 10.5273,27.4907 15.5308,41.2654 22.1554,60.924 16.2754,103.0716 -6.8186,111.4764 l -147.2227,-404.8507 c 4.3845,-1.5972 10.7,2.6142 18.421,11.493 l 43.6885,-27.4262 c 2.4729,-1.669 5.1543,-0.6849 5.9665,2.1837 l 5.355,21.0741 c 0.8108,2.8686 -0.2399,6.9482 -2.3391,9.0702 l -29.0425,29.1483 c 19.598,32.5464 42.9716,79.7243 65.9907,132.6116 l 157.6774,-106.4965 c 2.47,-1.6665 5.1557,-0.6876 5.9692,2.1824"
       inkscape:connector-curvature="0"
       inkscape:label="planeE-l" />
  </g>
</svg>
