
<svg width="2931" height="2931" version="1.1" viewBox="0 0 775.54944 775.54944" xmlns="http://www.w3.org/2000/svg">
 <defs>
  <radialGradient id="radialGradient30" cx="0" cy="0" r="1" gradientTransform="matrix(387.8 0 0 387.8 -499.3 -62)" gradientUnits="userSpaceOnUse">
   <stop stop-color="#6dcff6" offset="0"/>
   <stop stop-color="#0071bc" offset=".737"/>
   <stop stop-color="#0071bc" offset="1"/>
  </radialGradient
  <symbol id="plane-icon" viewBox="0 0 55.713339 59.503548" >
    <path d="m88.76 0.006487 3.847 0.3175c0.3843 0.03177 0.8311 0.344 0.9924 0.6943l4.143 8.977c0.9303-0.01397 2.01 0.05616 2.151 0.1994 0.6033 0.615 0.5813 2.921-0.0332 3.523-0.04287 0.0419-0.1708 0.07567-0.3522 0.102l0.8872 1.923c0.9459-0.01875 2.079 0.05104 2.224 0.1982 0.6028 0.6147 0.5808 2.921-0.0335 3.523-0.0482 0.04725-0.203 0.0839-0.4216 0.1112l2.143 4.645c1.9-0.02448 3.807-0.02839 5.701-0.01135 8.383 0.07928 13.22 2.702 13.19 5.88l-55.7-0.5299c0.0057-0.6034 0.8021-1.178 2.228-1.711l-1.34-6.535c-0.09006-0.375 0.1507-0.6557 0.535-0.6237l2.795 0.3071c0.3844 0.03199 0.831 0.3443 0.9927 0.6945l2.213 4.839c4.831-0.8983 11.6-1.589 19.05-1.98l-5.749-23.92c-0.09007-0.375 0.1506-0.6557 0.5349-0.6239" style="fill:#fff;stroke-width:.1724"/>
    <path d="m88.19 59.5 3.852-0.2445c0.3847-0.02439 0.8372-0.3282 1.005-0.6751l4.312-8.897c0.9301 0.03156 2.01-0.01783 2.153-0.1586 0.6149-0.6033 0.637-2.909 0.03354-3.523-0.04225-0.04295-0.1697-0.07902-0.3506-0.1088l0.9238-1.906c0.9456 0.0367 2.081-0.01136 2.226-0.156 0.6145-0.6034 0.6365-2.909 0.0334-3.523-0.0472-0.04816-0.2014-0.08787-0.4195-0.1191l2.231-4.603c1.899 0.06005 3.806 0.1006 5.7 0.1183 8.383 0.07928 13.27-2.451 13.3-5.628l-55.7-0.5299c-0.0058 0.6032 0.7795 1.192 2.196 1.752l-1.464 6.507c-0.09685 0.3734 0.1385 0.6586 0.523 0.6341l2.8-0.2543c0.3849-0.0245 0.8374-0.3284 1.006-0.6753l2.305-4.795c4.813 0.989 11.57 1.808 19.01 2.34l-6.201 23.81c-0.09692 0.3732 0.1384 0.6585 0.523 0.6341" style="fill:#e7e8e9;stroke-width:.1724"/>
  </symbol>
 </defs>
 <g transform="translate(887 449.8)">
  <path d="m-887 325.8h775.5v-775.5h-775.5z" style="fill:url(#radialGradient30);stroke-width:.1293"/>
  <g stroke-miterlimit="10">
   <path d="m-486.5-545.6c178.3 230 271.4 662.4 108.5 1005" style="fill:none;stroke-dasharray:11.63324145;stroke-miterlimit:10;stroke-width:2.585;stroke:#fff"/>
   <path d="m-1012 272.5c216.9-193.9 662.8-388.4 1092-283.4" style="fill:none;stroke-dasharray:11.63324145;stroke-miterlimit:10;stroke-width:2.585;stroke:#fff"/>
   <path d="m-637.8-520.3c-166.5 249.5-244.1 518-30.86 895.8" style="fill:none;stroke-dasharray:11.63324145;stroke-miterlimit:10;stroke-width:2.585;stroke:#fff"/>
   <path d="m-880.2-433.7c213.1 493.4 649.2 681.5 1174 626.6" style="fill:none;stroke-dasharray:11.6371192, 11.6371192;stroke-miterlimit:10;stroke-width:2.585;stroke:#fff"/>
   <path d="m-1018-375.2c157 118.5 744.5 172.8 1098-88.93" style="fill:none;stroke-dasharray:11.63324145;stroke-miterlimit:10;stroke-width:2.585;stroke:#fff"/>
  </g>
  <g id="planeA">
<use href'="#plane-icon" x="3023"  y="540"/>
  </g>
 </g>
</svg>
