<svg xmlns:dc="http://purl.org/dc/elements/1.1/" xmlns:cc="http://creativecommons.org/ns#" xmlns:rdf="http://www.w3.org/1999/02/22-rdf-syntax-ns#" xmlns:svg="http://www.w3.org/2000/svg" xmlns="http://www.w3.org/2000/svg" xmlns:xlink="http://www.w3.org/1999/xlink" viewBox="0 0 6000 6000" height="6000" width="6000" xml:space="preserve" id="svg2" version="1.1"><style>.s0{stop-color:#0071bc;stop-opacity:1;}.s1{fill:none;stroke-dasharray:36;stroke-width:8;stroke:#fff;}.s2{fill:#e7e8e9;}.s3{fill:#fff;}</style><defs id="defs6"><radialGradient fx="0" fy="0" cx="0" cy="0" r="1" gradientUnits="userSpaceOnUse" gradientTransform="matrix(3000.0001,0,0,3000.0001,1992.3729,1207.6275)" spreadMethod="pad" id="radialGradient30"><stop offset="0" id="stop24" style="stop-color:#6dcff6;stop-opacity:1"/><stop offset="0.7" id="stop26" class="s0"/><stop offset="1" id="stop28" class="s0"/></radialGradient><clipPath clipPathUnits="userSpaceOnUse" id="clipPath40"><path d="M0 0H2400V2400H0Z" id="path38"/></clipPath><clipPath clipPathUnits="userSpaceOnUse" id="clipPath72"><path d="M0 2400H2400V0H0Z" id="path70"/></clipPath><clipPath clipPathUnits="userSpaceOnUse" id="clipPath"><use height="100" width="100" y="0" x="0" id="use" transform="translate(-2069.9814,-2188.9736)" xlink:href="#path70"/></clipPath><clipPath clipPathUnits="userSpaceOnUse" id="clipPathk"><use height="100" width="100" y="0" x="0" id="useF" transform="translate(-2171.6221,-1859.0923)" xlink:href="#path70"/></clipPath><clipPath clipPathUnits="userSpaceOnUse" id="clipPathZ"><use height="100" width="100" y="0" x="0" id="usew" transform="translate(-514.6304,-1261.7339)" xlink:href="#path70"/></clipPath><clipPath clipPathUnits="userSpaceOnUse" id="clipPathY"><use height="100" width="100" y="0" x="0" id="use4" transform="translate(-771.9595,-1491.8076)" xlink:href="#path70"/></clipPath><clipPath clipPathUnits="userSpaceOnUse" id="clipPathl"><use height="100" width="100" y="0" x="0" id="useJ" transform="translate(-614.0928,-369.8359)" xlink:href="#path70"/></clipPath><clipPath clipPathUnits="userSpaceOnUse" id="clipPatha"><use height="100" width="100" y="0" x="0" id="use5" transform="translate(-294.7974,-238.6738)" xlink:href="#path70"/></clipPath><clipPath clipPathUnits="userSpaceOnUse" id="clipPathv"><use height="100" width="100" y="0" x="0" id="useh" transform="translate(-787.5752,-671.1826)" xlink:href="#path70"/></clipPath><clipPath clipPathUnits="userSpaceOnUse" id="clipPathw"><use height="100" width="100" y="0" x="0" id="useE" transform="translate(-654.311,-989.6055)" xlink:href="#path70"/></clipPath><clipPath clipPathUnits="userSpaceOnUse" id="clipPathZ7"><use height="100" width="100" y="0" x="0" id="useFF" transform="translate(-1602.3105,-1424.9072)" xlink:href="#path70"/></clipPath><clipPath clipPathUnits="userSpaceOnUse" id="clipPatho"><use height="100" width="100" y="0" x="0" id="useM" transform="translate(-1939.8525,-1497.1445)" xlink:href="#path70"/></clipPath><clipPath clipPathUnits="userSpaceOnUse" id="clipPath5"><use height="100" width="100" y="0" x="0" id="useY" transform="translate(404.4453,-2169.2217)" xlink:href="#path38"/></clipPath><clipPath clipPathUnits="userSpaceOnUse" id="clipPath5I"><use height="100" width="100" y="0" x="0" id="use2" transform="translate(-770.9805,-2618.3545)" xlink:href="#path38"/></clipPath><clipPath clipPathUnits="userSpaceOnUse" id="clipPath3"><use height="100" width="100" y="0" x="0" id="usem" transform="translate(-1239.3545,-2696.3389)" xlink:href="#path38"/></clipPath><clipPath clipPathUnits="userSpaceOnUse" id="clipPathwG"><use height="100" width="100" y="0" x="0" id="useX" transform="translate(385.1611,-164.6104)" xlink:href="#path38"/></clipPath><clipPath clipPathUnits="userSpaceOnUse" id="clipPathC"><use height="100" width="100" y="0" x="0" id="useK" transform="translate(-21.0947,-2350.2754)" xlink:href="#path38"/></clipPath><clipPath clipPathUnits="userSpaceOnUse" id="clipPathU"><use height="100" width="100" y="0" x="0" id="useV" transform="translate(0,-2400)" xlink:href="#path38"/></clipPath><clipPath clipPathUnits="userSpaceOnUse" id="clipPathU-9"><use height="100" width="100" y="0" x="0" id="useV-0" transform="translate(0,-2400)" xlink:href="#path38"/></clipPath></defs><metadata id="metadata5062"><rdf:RDF><cc:Work rdf:about=""/></rdf:RDF></metadata><g transform="translate(1007.6273,1792.3739)" id="layer1"><path d="M-1007.6 4207.6H4992.4V-1792.4H-1007.6Z" id="path32" fill="url(#radialGradient30)"/><path d="M0 0C551.9-711.7 839.8-2050.2 335.9-3109.7" id="path56" transform="matrix(2.4999999,0,0,-2.4999999,2090.7597,-2533.2211)" clip-path="url(#clipPath3)" class="s1"/><path d="M0 0C671.1 600 2050.9 1202.3 3379.4 876.9" id="path52" transform="matrix(2.4999999,0,0,-2.4999999,-1970.53,3796.1014)" clip-path="url(#clipPathwG)" class="s1"/><path d="M0 0C-515.4-772.2-755.4-1603.1-95.5-2772.2" id="path60" transform="matrix(2.4999999,0,0,-2.4999999,919.82458,-2338.26)" clip-path="url(#clipPath5I)" class="s1"/><path d="M0 0C659.6-1527 2009.2-2109.4 3633.7-1938.8" id="path48" transform="matrix(2.4999999,0,0,-2.4999999,-954.8903,-1668.0622)" clip-path="url(#clipPathC)" class="s1"/><path d="M0 0C486-366.7 2304.2-534.7 3398.7 275.2" id="path64" transform="matrix(2.4999999,0,0,-2.4999999,-2018.7405,-1215.4278)" clip-path="url(#clipPath5)" class="s1"/><g id="g5102"><path d="m0 0-6.3 21.5c-0.6 2.1-2.9 4.3-5.1 4.8l-55.8 13.1c-1 5.3-2.6 11.4-3.6 12-4.2 2.7-17.3-0.1-20-4.3-0.2-0.3-0.2-1.1-0.2-2.1l-12 2.8c-1 5.4-2.7 11.8-3.7 12.4-4.2 2.7-17.3-0.1-20-4.3-0.2-0.3-0.2-1.3-0.1-2.5l-28.9 6.8c-2.1 10.8-4.3 21.7-6.6 32.4-10.2 47.6-30.7 72-48.7 68.1l67.6-316c3.4 0.7 5.8 5.9 7.1 14.6l38.7 0c2.2-0.1 3.6 1.6 2.9 3.8l-5 15.5c-0.6 2.1-2.9 4.3-5.1 4.8l-30.1 7c-0.5 28.5-4.4 67.8-10.9 110.6L-2.9-3.8C-0.7-3.8 0.6-2.1 0 0" id="path76" transform="matrix(1.3297934,0.0970899,0.0970899,-1.3297934,3737.1232,1080.5255)" clip-path="url(#clipPatho)" fill="#e7e8e9"/><path d="m0 0-3.1 22.2c-0.3 2.2 0.9 5.1 2.7 6.5l45.6 34.8c-1.3 5.2-2.2 11.4-1.6 12.4 2.7 4.2 15.8 7 20 4.3 0.3-0.2 0.6-0.9 1-1.9l9.8 7.5c-1.3 5.3-2.3 11.8-1.7 12.8 2.7 4.2 15.8 7 20 4.3 0.3-0.2 0.7-1 1.2-2.2l23.6 18c-2.5 10.7-5 21.5-7.3 32.3-10.2 47.6-1.5 78.3 16.6 82.1L194.2-82.9c-3.4-0.7-7.7 3-12.5 10.4l-35.3-15.9c-2-1-3.9 0-4.2 2.2l-1.8 16.2c-0.3 2.2 0.9 5.1 2.7 6.5l24.6 18.7C156.5-18.5 144 19 132.3 60.6L4.2-2.2C2.2-3.2 0.3-2.2 0 0" id="path80" transform="matrix(1.3297934,0.0970899,0.0970899,-1.3297934,3281.2485,1143.8142)" clip-path="url(#clipPathZ7)" fill="#fff"/></g><g id="g5098"><path d="m0 0-20-10.1c-2-1-3.7-3.7-3.8-5.9l-2.6-57.3c-5-2-10.7-4.7-11.1-5.8-1.9-4.6 3.3-17 7.9-18.9 0.3-0.1 1.1 0 2.1 0.2l-0.6-12.3c-5.1-2-11.1-4.8-11.5-5.9-1.9-4.6 3.3-17 7.9-18.9 0.4-0.1 1.3 0 2.5 0.3l-1.3-29.6c-10.3-4-20.5-8.2-30.7-12.4-44.9-18.8-65.1-43.4-58-60.5l298.1 124.7c-1.4 3.2-6.9 4.6-15.7 4.3l-7.1 38c-0.3 2.2-2.2 3.2-4.2 2.2l-14.3-7.8c-2-1-3.7-3.7-3.8-5.9l-1.3-30.8c-27.9-5.7-65.8-16.9-106.7-31.1L4.2-2.2C3.9 0 2 1 0 0" id="path84" transform="matrix(1.3329334,0.03264238,0.03264238,-1.3329334,846.4907,1862.2088)" clip-path="url(#clipPathw)" fill="#e7e8e9"/><path d="m0 0-21.2-7.1c-2.1-0.7-5.2-0.1-6.9 1.4l-42.6 38.4c-4.9-2.2-10.8-4.3-11.9-3.9-4.6 1.9-9.8 14.2-7.9 18.9 0.1 0.3 0.7 0.8 1.6 1.4l-9.1 8.2c-5-2.3-11.2-4.5-12.3-4-4.6 1.9-9.8 14.2-7.9 18.9 0.1 0.4 0.9 0.9 2 1.6l-22.1 19.8c-10.1-4.5-20.2-8.9-30.4-13.1-44.9-18.8-76.6-15.9-83.8 1.1l298.1 124.7c1.4-3.2-1.6-8.1-8-14.2l22.1-31.8c1.3-1.8 0.7-3.8-1.4-4.5l-15.6-4.8c-2.1-0.7-5.2-0.1-6.9 1.4l-22.9 20.7c-23.7-15.8-58.2-35-97-54.2L1.4 4.6C2.8 2.8 2.1 0.7 0 0" id="path88" transform="matrix(1.3329334,0.03264238,0.03264238,-1.3329334,1013.7289,2290.9956)" clip-path="url(#clipPathv)" fill="#fff"/></g><g id="g5094"><path d="m0 0 10-20c1-2 3.6-3.7 5.9-3.8l57.3-3c1.9-5 4.6-10.7 5.7-11.2 4.6-1.9 17 3.2 18.9 7.8 0.1 0.3 0 1.1-0.2 2.1l12.3-0.6c1.9-5.1 4.8-11.1 5.9-11.6 4.6-1.9 17 3.2 18.9 7.8 0.2 0.4 0 1.3-0.3 2.5l29.6-1.5c4-10.3 8-20.6 12.2-30.7 18.5-45 43-65.4 60.1-58.4L113.4 178.2c-3.2-1.3-4.6-6.9-4.4-15.7l-38.1-6.9c-2.2-0.3-3.2-2.2-2.2-4.2l7.7-14.4c1-2 3.6-3.7 5.9-3.9l30.8-1.5C118.6 103.7 129.5 65.7 143.4 24.8L2.2 4.2C0 3.9-1 2 0 0" id="path92" transform="matrix(1.3322108,0.05469235,0.05469235,-1.3322108,-137.28143,3401.7075)" clip-path="url(#clipPatha)" fill="#e7e8e9"/><path d="m0 0 7-21.3c0.7-2.1 0-5.2-1.5-6.9l-38.6-42.4c2.2-4.9 4.2-10.9 3.8-11.9-1.9-4.6-14.3-9.7-18.9-7.8-0.3 0.1-0.8 0.7-1.3 1.7l-8.3-9.1c2.2-5 4.4-11.2 4-12.3-1.9-4.6-14.3-9.7-18.9-7.8-0.4 0.2-0.9 0.9-1.5 2l-20-21.9c4.4-10.1 8.7-20.3 12.9-30.4 18.5-45 15.4-76.8-1.7-83.8L-205.9 47c3.2 1.3 8.1-1.6 14.2-8l31.9 21.9c1.8 1.3 3.8 0.7 4.5-1.5l4.7-15.6c0.7-2.1 0-5.2-1.5-6.9l-20.9-22.7c15.7-23.8 34.7-58.4 53.5-97.4L-4.5 1.5C-2.7 2.8-0.7 2.1 0 0" id="path96" transform="matrix(1.3322108,0.05469235,0.05469235,-1.3322108,295.26102,3244.4349)" clip-path="url(#clipPathl)" fill="#fff"/></g><g id="g5090"><path d="m0 0-16.1 15.6c-1.6 1.6-4.7 2.3-6.8 1.7L-77.9 1c-3.5 4.1-7.9 8.5-9.1 8.6-5 0.3-15-8.6-15.2-13.6 0-0.3 0.3-1 0.9-1.9l-11.8-3.5c-3.5 4.2-8.2 8.9-9.4 8.9-5 0.3-15-8.6-15.2-13.6 0-0.4 0.4-1.2 1.1-2.3l-28.4-8.4c-7.2 8.4-14.4 16.7-21.8 24.9-32.4 36.3-62.4 47.3-76.1 35l215.4-240.9c2.6 2.3 2.1 8-1.1 16.3l33.6 19.2c2 1 2.3 3.2 0.7 4.7l-12 11c-1.6 1.6-4.7 2.3-6.8 1.7l-29.6-8.9c-14.6 24.5-37.5 56.7-64.2 90.6L-0.7-4.7C1.3-3.7 1.6-1.6 0 0" id="path100" transform="matrix(1.3235408,-0.16129644,-0.16129644,-1.3235408,1280.4831,1124.129)" clip-path="url(#clipPathY)" fill="#e7e8e9"/><path d="m0 0-13.7 17.7c-1.4 1.8-1.8 4.9-0.9 7L7.7 77.5c-3.7 3.9-7.6 8.8-7.5 10 0.3 5 10.3 13.9 15.2 13.6 0.3 0 1-0.4 1.8-1.1l4.8 11.3c-3.8 4-7.9 9.1-7.8 10.3 0.3 5 10.2 13.9 15.2 13.6 0.4 0 1.2-0.5 2.1-1.4l11.5 27.3c-7.5 8.1-15 16.2-22.3 24.4-32.4 36.3-40.1 67.2-26.3 79.5L209.8 24.3c-2.6-2.3-8.2-1.2-16 2.9L171-4.1c-1.3-1.9-3.4-1.9-4.8-0.1l-9.6 13.2c-1.4 1.8-1.8 4.9-0.9 7l12.1 28.4c-22.7 17.2-52.1 43.5-82.9 74L4.8 0.1C3.5-1.7 1.4-1.8 0 0" id="path104" transform="matrix(1.3235408,-0.16129644,-0.16129644,-1.3235408,977.00755,1470.1472)" clip-path="url(#clipPathZ)" fill="#fff"/></g><g id="g5086"><path d="m0 0 20.9 8.1c2.1 0.8 4 3.3 4.4 5.5l8.2 56.8c5.2 1.5 11.1 3.6 11.6 4.7 2.3 4.4-1.6 17.2-6 19.5-0.3 0.2-1.1 0.1-2.1 0l1.8 12.2c5.3 1.5 11.5 3.7 12 4.8 2.3 4.4-1.6 17.2-6 19.5-0.3 0.2-1.3 0.1-2.5-0.1l4.2 29.4c10.6 3 21.2 6.1 31.7 9.4 46.5 14.3 69 36.9 63.6 54.5l-308.8-95.1c1-3.3 6.4-5.2 15.2-5.8l3.4-38.5c0.1-2.2 1.9-3.4 4-2.6l15 6.3c2.1 0.8 4.1 3.3 4.4 5.5l4.3 30.6c28.3 3 67.1 10.4 109.2 20.5L-4 2.6C-3.9 0.4-2.1-0.8 0 0" id="path108" transform="matrix(1.3215658,0.17675079,0.17675079,-1.3215658,2706.6064,-304.01688)" clip-path="url(#clipPathk)" fill="#e7e8e9"/><path d="M0 0 21.8 5C24 5.5 27 4.6 28.5 2.9l38.7-42.3c5.1 1.7 11.2 3.2 12.2 2.7 4.4-2.3 8.4-15.1 6-19.5-0.2-0.3-0.8-0.7-1.8-1.2l8.3-9.1c5.2 1.8 11.6 3.4 12.6 2.8 4.4-2.3 8.4-15.1 6-19.5-0.2-0.3-1-0.8-2.1-1.4l20-21.9c10.5 3.5 21 6.9 31.5 10.1 46.5 14.3 77.8 8.3 83.3-9.3l-308.8-95.1c-1 3.3 2.4 7.9 9.3 13.4l-18.9 33.8c-1.2 1.9-0.3 3.9 1.9 4.4l16 3.2c2.2 0.5 5.2-0.4 6.7-2.1l20.8-22.8c25.1 13.5 61.3 29.2 101.8 44.5L-1.9-4.4C-3-2.5-2.2-0.5 0 0" id="path112" transform="matrix(1.3215658,0.17675079,0.17675079,-1.3215658,2630.5882,-757.94189)" clip-path="url(#clipPath)" fill="#fff"/></g></g></svg>