<svg width="114" height="121.8" version="1.1" viewBox="0 0 113.98373 121.78059" xmlns="http://www.w3.org/2000/svg">
 <path d="m51.36 0.6609c-2.69-0.2729-5.457-0.4468-8.175-0.6565-0.7867-0.0608-1.276 0.5165-1.088 1.283l12.02 48.89c-15.24 0.8786-29.09 2.366-38.96 4.256l-4.582-9.878c-0.3346-0.7149-1.252-1.349-2.039-1.41l-5.723-0.5977c-0.787-0.0613-1.276 0.5159-1.088 1.282l2.813 13.36c-2.911 1.106-4.535 2.29-4.54 3.524-5e-3 1.234 1.608 2.431 4.51 3.562l-2.925 13.33c-0.1941 0.765 0.2904 1.346 1.077 1.292l5.728-0.5507c0.7873-0.0543 1.71-0.6809 2.051-1.393l4.664-9.839c9.86 1.972 23.7 3.576 38.93 4.583l-12.43 48.79c-0.1944 0.7646 0.2905 1.346 1.077 1.292l7.88-0.5417c0.7868-0.0541 1.709-0.6808 2.049-1.392l8.726-18.25c1.904 0.0545 4.114-0.0582 4.406-0.3474 1.252-1.241 1.272-5.959 0.0306-7.21-0.0869-0.0874-0.3481-0.16-0.7185-0.2189l1.869-3.91c1.935 0.0649 4.256-0.0464 4.556-0.3431 1.251-1.241 1.27-5.96 0.03-7.21-0.097-0.0981-0.4127-0.1777-0.8592-0.2394l4.514-9.443c3.888 0.1028 7.789 0.1644 11.67 0.1804 17.15 0.0724 27.13-5.158 27.16-11.66 0.027-6.503-9.901-11.82-27.06-11.89-3.877-0.0159-7.778 0.013-11.67 0.0836l-4.435-9.481c0.447-0.0583 0.7635-0.1349 0.8615-0.2321 1.251-1.241 1.271-5.959 0.031-7.211-0.2975-0.2993-2.617-0.4297-4.552-0.3809l-1.837-3.926c0.3708-0.0559 0.6325-0.1263 0.7197-0.2125 1.251-1.241 1.271-5.959 0.0301-7.211-0.2892-0.2915-2.499-0.4226-4.402-0.384l-8.573-18.32c-0.2921-0.6256-1.031-1.19-1.739-1.362z"/>
</svg>
