<svg  viewBox="0 0 424.89998 424.89998" xmlns="http://www.w3.org/2000/svg">
 <defs id="defs14710">
  <radialGradient id="radialGradient30" cx="0" cy="0" r="1" gradientTransform="matrix(212.5,0,0,212.5,212.4,212.4)" gradientUnits="userSpaceOnUse">
   <stop id="stop14698" stop-color="#6dcff6" offset="0"/>
   <stop id="stop14700" stop-color="#0071bc" offset=".737"/>
   <stop id="stop14702" stop-color="#0071bc" offset="1"/>
  </radialGradient>
 </defs>
 <path id="sky" d="M 0,424.9 H 424.9 V 0 H 0 Z" style="fill:url(#radialGradient30);stroke-width:.07085"/>
 <g id="flightpaths" transform="matrix(.5479 0 0 .5479 486.15 244.75)" stroke-miterlimit="10" style="stroke-miterlimit:10">
  <path id="pathE" d="m-880.2-433.7c213.1 493.4 649.2 681.5 1174 626.6" style="fill:none;stroke-dasharray:11.6371192, 11.6371192;stroke-miterlimit:10;stroke-width:2.585;stroke:#fff"/>
  <path id="pathD" d="m-1012 272.5c216.9-193.9 662.8-388.4 1092-283.4" style="fill:none;stroke-dasharray:11.63324145;stroke-miterlimit:10;stroke-width:2.585;stroke:#fff"/>
  <path id="pathC" d="m-637.8-520.3c-166.5 249.5-244.1 518-30.86 895.8" style="fill:none;stroke-dasharray:11.63324145;stroke-miterlimit:10;stroke-width:2.585;stroke:#fff"/>
  <path id="pathB" d="m-1018-375.2c157 118.5 744.5 172.8 1098-88.93" style="fill:none;stroke-dasharray:11.63324145;stroke-miterlimit:10;stroke-width:2.585;stroke:#fff"/>
  <path id="pathA" d="m-486.5-545.6c178.3 230 271.4 662.4 108.5 1005" style="fill:none;stroke-dasharray:11.63324145;stroke-miterlimit:10;stroke-width:2.585;stroke:#fff"/>
 </g>
 <g id="planeA-icons" transform="matrix(.5479 0 0 .5479 1.002 1.409)">
  <g  class="hide" transform="matrix(.5845 .074664 -.074664 .5845 282.6 282.18)">
   <path class="A-1" d="m529.8 767.4 1.256-3.816c0.1254-0.3813 0.5561-0.7608 0.957-0.8429l10.28-2.113c0.2108-0.9437 0.543-2.02 0.725-2.129 0.7812-0.4678 3.159 0.0876 3.634 0.8482 0.0332 0.0532 0.0379 0.1903 0.0196 0.3798l2.202-0.4525c0.2091-0.9607 0.5544-2.09 0.7415-2.203 0.7808-0.4674 3.159 0.088 3.634 0.8484 0.0373 0.0596 0.0384 0.2246 0.0132 0.452l5.318-1.093c0.4339-1.927 0.8889-3.856 1.364-5.767 2.104-8.458 5.983-12.74 9.26-11.98l-13.99 56.2c-0.6224-0.1449-1.024-1.083-1.231-2.648l-7.078-0.1563c-0.4094 4e-3 -0.6414-0.3038-0.5156-0.6852l0.9918-2.755c0.1256-0.3813 0.5564-0.7606 0.9574-0.8431l5.536-1.119c0.237-5.093 1.157-12.1 2.549-19.72l-26.12 0.2812c-0.4094 4e-3 -0.6414-0.3039-0.5159-0.6851" style="fill:#fff"/>
   <path class="A-1" d="m591.2 781.7 0.6766-3.952c0.0682-0.3944-0.1372-0.9224-0.4554-1.173l-8.156-6.417c0.2568-0.9332 0.4659-2.037 0.3555-2.214-0.4753-0.7612-2.853-1.317-3.634-0.8484-0.0545 0.0327-0.1228 0.1536-0.1971 0.3292l-1.747-1.375c0.266-0.9477 0.4911-2.106 0.3757-2.287-0.4755-0.7609-2.854-1.316-3.634-0.8485-0.0611 0.0366-0.1393 0.1834-0.2244 0.3966l-4.22-3.32c0.5202-1.906 1.022-3.825 1.497-5.736 2.104-8.458 0.6678-13.99-2.609-14.75l-13.99 56.2c0.6222 0.1447 1.42-0.5125 2.341-1.815l6.373 2.984c0.3626 0.1842 0.7142 0.0122 0.7817-0.3822l0.4128-2.89c0.0684-0.3947-0.1375-0.9226-0.4554-1.173l-4.401-3.439c2.183-4.638 4.661-11.28 7.005-18.68l23.11 11.77c0.3623 0.1842 0.7141 0.0123 0.7816-0.3822" style="fill:#e7e8e9;stroke-width:.1809"/>
  </g>
  <g class="hide" transform="matrix(.57866 -.054434 .054434 .57866 204.36 320.85)">
   <path  class="A-2" d="m546.4 681.8 1.256-3.816c0.1254-0.3813 0.5561-0.7608 0.957-0.8429l10.28-2.113c0.2108-0.9437 0.543-2.02 0.725-2.129 0.7812-0.4678 3.159 0.0876 3.634 0.8482 0.0332 0.0532 0.0379 0.1903 0.0196 0.3798l2.202-0.4525c0.2091-0.9607 0.5544-2.09 0.7415-2.203 0.7808-0.4674 3.159 0.088 3.634 0.8484 0.0373 0.0596 0.0384 0.2246 0.0132 0.452l5.318-1.093c0.4339-1.927 0.8889-3.856 1.364-5.767 2.104-8.458 5.983-12.74 9.26-11.98l-13.99 56.2c-0.6224-0.1449-1.024-1.083-1.231-2.648l-7.078-0.1563c-0.4094 4e-3 -0.6414-0.3038-0.5156-0.6852l0.9918-2.755c0.1256-0.3813 0.5564-0.7606 0.9574-0.8431l5.536-1.119c0.237-5.093 1.157-12.1 2.549-19.72l-26.12 0.2812c-0.4094 4e-3 -0.6414-0.3039-0.5159-0.6851" style="fill:#fff;stroke-width:.1809"/>
   <path class="A-2" d="m607.8 696.1 0.6766-3.952c0.0682-0.3944-0.1372-0.9224-0.4554-1.173l-8.156-6.417c0.2568-0.9332 0.4659-2.037 0.3555-2.214-0.4753-0.7612-2.853-1.317-3.634-0.8484-0.0545 0.0327-0.1228 0.1536-0.1971 0.3292l-1.747-1.375c0.266-0.9477 0.4911-2.106 0.3757-2.287-0.4755-0.7609-2.854-1.316-3.634-0.8485-0.0611 0.0366-0.1393 0.1834-0.2244 0.3966l-4.22-3.32c0.5202-1.906 1.022-3.825 1.497-5.736 2.104-8.458 0.6678-13.99-2.609-14.75l-13.99 56.2c0.6222 0.1447 1.42-0.5125 2.341-1.815l6.373 2.984c0.3626 0.1842 0.7142 0.0122 0.7817-0.3822l0.4128-2.89c0.0684-0.3947-0.1375-0.9226-0.4554-1.173l-4.401-3.439c2.183-4.638 4.661-11.28 7.005-18.68l23.11 11.77c0.3623 0.1842 0.7141 0.0123 0.7816-0.3822" style="fill:#e7e8e9;stroke-width:.1809"/>
  </g>
  <g id="g25" class="hide" transform="matrix(.57907 -.02264 .02264 .57907 235.55 262.14)">
   <path  class="A-3" d="m555.5 592.2 0.7967-3.938c0.0795-0.3934 0.4624-0.8212 0.8508-0.95l9.957-3.312c0.0979-0.962 0.3007-2.07 0.4685-2.2 0.7205-0.5568 3.148-0.2861 3.708 0.4131 0.0393 0.0489 0.0601 0.1845 0.0643 0.3749l2.133-0.7094c0.0942-0.9787 0.3037-2.141 0.4762-2.275 0.7202-0.5564 3.147-0.2857 3.708 0.4134 0.0441 0.0548 0.0647 0.2185 0.0665 0.4473l5.152-1.713c0.2033-1.965 0.4273-3.934 0.6738-5.888 1.091-8.647 4.436-13.36 7.781-12.99l-7.251 57.46c-0.6352-0.0704-1.144-0.9548-1.536-2.484l-7.047 0.6807c-0.406 0.0523-0.6728-0.226-0.5929-0.6195l0.6594-2.853c0.0797-0.3935 0.4626-0.821 0.8511-0.9503l5.365-1.765c-0.3661-5.085-0.2798-12.15 0.2024-19.88l-25.9 3.363c-0.406 0.0523-0.6728-0.226-0.5932-0.6194" style="fill:#fff;stroke-width:.1809"/>
   <path  class="A-3" d="m618.2 599.2 0.2052-4.004c0.0211-0.3997-0.2451-0.8997-0.5906-1.111l-8.857-5.409c0.1448-0.957 0.2221-2.078 0.0916-2.24-0.5619-0.6997-2.989-0.9706-3.708-0.4134-0.0503 0.0389-0.1038 0.167-0.1568 0.3502l-1.897-1.159c0.1523-0.9724 0.2389-2.15 0.103-2.316-0.562-0.6995-2.989-0.9701-3.708-0.4134-0.0563 0.0436-0.1167 0.1986-0.176 0.4203l-4.583-2.798c0.2915-1.954 0.5631-3.919 0.8092-5.873 1.091-8.647-0.9884-13.97-4.333-14.34l-7.251 57.46c0.635 0.0702 1.35-0.6766 2.11-2.079l6.681 2.211c0.3818 0.1401 0.7106-0.0722 0.7311-0.4719l0.0685-2.919c0.0213-0.4-0.2455-0.9-0.5908-1.111l-4.776-2.895c1.62-4.863 3.296-11.75 4.75-19.38l24.34 8.963c0.3816 0.1401 0.7105-0.0721 0.731-0.4719" style="fill:#e7e8e9;stroke-width:.1809"/>
  </g>
  <g id="g29" class="hide" transform="matrix(.57662 -.062559 .062559 .57662 223 253.89)">
   <path  class="A-4" d="m555.7 484.7 0.5796-3.976c0.0579-0.3972 0.4166-0.8453 0.7974-0.9952l9.76-3.853c0.045-0.9659 0.1868-2.083 0.3472-2.222 0.6889-0.5954 3.127-0.4582 3.725 0.2092 0.0419 0.0467 0.0701 0.181 0.0848 0.3708l2.091-0.8252c0.0404-0.9824 0.1859-2.155 0.3508-2.298 0.6886-0.595 3.127-0.4578 3.725 0.2095 0.047 0.0523 0.0765 0.2146 0.0909 0.4429l5.05-1.993c0.0953-1.973 0.2111-3.951 0.3501-5.916 0.6152-8.694 3.697-13.58 7.057-13.4l-4.09 57.77c-0.6381-0.0355-1.195-0.8907-1.669-2.396l-6.999 1.066c-0.4025 0.0745-0.6842-0.1888-0.626-0.5861l0.502-2.885c0.058-0.3973 0.4169-0.8451 0.7978-0.9955l5.26-2.056c-0.6442-5.057-0.9455-12.12-0.8877-19.86l-25.68 4.778c-0.4026 0.0745-0.6842-0.1888-0.6262-0.586" style="fill:#fff;stroke-width:.1809"/>
   <path  class="A-4" d="m618.6 488.3-0.0146-4.009c-7.9e-4 -0.4003-0.2941-0.8849-0.6506-1.076l-9.14-4.915c0.0921-0.9635 0.1079-2.087-0.0313-2.242-0.5994-0.6678-3.038-0.8053-3.725-0.2095-0.048 0.0416-0.0945 0.1724-0.1374 0.3583l-1.958-1.053c0.0987-0.9793 0.1207-2.159-0.0241-2.318-0.5995-0.6676-3.038-0.8048-3.725-0.2095-0.0539 0.0466-0.1056 0.2047-0.1527 0.4293l-4.729-2.543c0.1839-1.967 0.3474-3.944 0.4862-5.908 0.6152-8.694-1.752-13.89-5.112-14.08l-4.09 57.77c0.6379 0.0353 1.311-0.7496 1.993-2.191l6.792 1.841c0.3889 0.1189 0.7056-0.1111 0.7041-0.5112l-0.0915-2.918c-6.4e-4 -0.4006-0.2944-0.8851-0.6508-1.077l-4.928-2.629c1.351-4.944 2.646-11.92 3.681-19.61l24.8 7.615c0.3887 0.119 0.7055-0.111 0.704-0.5112" style="fill:#e7e8e9;stroke-width:.1809"/>
  </g>
  <g id="g33" class="hide" transform="matrix(.58288 0 0 .58288 247.51 178.87)">
   <path  class="A-5" d="m551.6 385.4-0.2138-4.012c-0.0214-0.4008 0.2422-0.9107 0.5861-1.133l8.812-5.698c-0.1459-0.9559-0.2266-2.079-0.0967-2.247 0.5583-0.7193 2.976-1.064 3.694-0.5277 0.0502 0.0375 0.1044 0.1636 0.1561 0.3469l1.888-1.22c-0.1536-0.9712-0.2416-2.149-0.1081-2.322 0.5581-0.7189 2.976-1.064 3.694-0.5274 0.0564 0.042 0.1173 0.1954 0.1763 0.4164l4.56-2.947c-0.2947-1.953-0.5704-3.916-0.8206-5.869-1.107-8.645 0.9522-14.05 4.284-14.52l7.355 57.45c-0.6326 0.0907-1.347-0.6382-2.108-2.021l-6.653 2.422c-0.38 0.1522-0.708-0.0505-0.7291-0.4515l-0.0753-2.928c-0.0213-0.4009 0.2425-0.9106 0.5863-1.133l4.753-3.051c-1.627-4.832-3.311-11.7-4.778-19.3l-24.23 9.736c-0.38 0.1522-0.708-0.0505-0.7293-0.4513" style="fill:#fff;stroke-width:.1809"/>
   <path  class="A-5" d="m614 376.5-0.803-3.928c-0.0795-0.3923-0.4624-0.8098-0.8497-0.9274l-9.928-3.021c-0.0992-0.9628-0.3048-2.067-0.4717-2.192-0.7191-0.5369-3.137-0.192-3.694 0.5274-0.0389 0.0503-0.0588 0.1876-0.0642 0.3783l-2.127-0.6472c-0.0958-0.9796-0.3065-2.141-0.4796-2.268-0.7192-0.5366-3.137-0.1915-3.694 0.5274-0.0437 0.0563-0.0633 0.2215-0.0652 0.4509l-5.137-1.563c-0.2066-1.965-0.4352-3.935-0.6856-5.888-1.107-8.645-4.451-13.27-7.782-12.8l7.355 57.45c0.6324-0.0909 1.138-0.9928 1.523-2.54l7.022 0.4692c0.4047 0.0401 0.67-0.2477 0.5898-0.6398l-0.6639-2.843c-0.0794-0.3926-0.4628-0.8099-0.85-0.928l-5.349-1.608c0.3522-5.114 0.2502-12.2-0.2494-19.95l25.81 2.588c0.4045 0.0402 0.6699-0.2476 0.5897-0.6397" style="fill:#e7e8e9;stroke-width:.1809"/>
  </g>
  <g id="g37" class="hide" transform="matrix(.58789 -.019759 .019759 .58789 230.11 139.36)">
   <path  class="A-6" d="m537.1 295.4-0.4231-3.995c-0.0423-0.3992 0.1943-0.9221 0.5261-1.162l8.502-6.15c-0.1956-0.947-0.3349-2.065-0.2139-2.239 0.52-0.7475 2.916-1.218 3.661-0.72 0.0521 0.0349 0.1128 0.158 0.174 0.3382l1.821-1.317c-0.2042-0.9618-0.3535-2.133-0.2292-2.313 0.5198-0.747 2.916-1.218 3.661-0.7197 0.0584 0.039 0.1273 0.189 0.1978 0.4066l4.4-3.182c-0.3963-1.935-0.7741-3.881-1.126-5.818-1.557-8.575 0.2173-14.08 3.52-14.73l10.35 56.98c-0.627 0.1236-1.378-0.567-2.211-1.908l-6.517 2.766c-0.3716 0.1719-0.7096-0.0134-0.7517-0.4128l-0.2282-2.92c-0.0422-0.3993 0.1946-0.9221 0.5263-1.162l4.587-3.295c-1.877-4.74-3.918-11.51-5.78-19.03l-23.69 10.99c-0.3716 0.1719-0.7096-0.0134-0.7519-0.4126" style="fill:#fff;stroke-width:.1809"/>
   <path  class="A-6" d="m599 283.3-1.007-3.881c-0.0999-0.3876-0.5041-0.7845-0.897-0.8818l-10.07-2.498c-0.1494-0.9563-0.4124-2.049-0.5855-2.164-0.7461-0.4986-3.143-0.0279-3.661 0.7197-0.0362 0.0523-0.0489 0.1905-0.0443 0.3812l-2.158-0.5353c-0.1469-0.9733-0.4179-2.122-0.5974-2.24-0.7462-0.4983-3.143-0.0274-3.661 0.7197-0.0407 0.0585-0.0516 0.2245-0.0416 0.4537l-5.212-1.293c-0.309-1.951-0.6401-3.907-0.9923-5.844-1.557-8.575-5.138-13.02-8.44-12.37l10.35 56.98c0.6267-0.1238 1.084-1.051 1.389-2.617l7.036 0.1018c0.4062 0.0189 0.6561-0.2824 0.5555-0.6697l-0.8114-2.805c-0.0998-0.3879-0.5045-0.7846-0.8973-0.8824l-5.425-1.327c0.0847-5.125-0.3877-12.2-1.291-19.91l25.91 1.236c0.406 0.019 0.656-0.2822 0.5555-0.6697" style="fill:#e7e8e9;stroke-width:.1809"/>
  </g>
  <g id="g41" class="hide" transform="matrix(.59965 0 0 .59965 220.89 88.835)">
   <path  class="A-7" d="m516.5 209-0.9007-3.916c-0.09-0.3912 0.082-0.9388 0.3825-1.217l7.7-7.129c-0.3081-0.9165-0.5809-2.009-0.4817-2.197 0.4263-0.8046 2.749-1.56 3.548-1.155 0.0559 0.0283 0.1309 0.1432 0.2134 0.3149l1.65-1.527c-0.3184-0.9302-0.6076-2.075-0.5058-2.269 0.4261-0.8041 2.749-1.56 3.548-1.155 0.0628 0.0317 0.1491 0.1723 0.2452 0.3799l3.985-3.688c-0.6262-1.873-1.235-3.759-1.818-5.641-2.578-8.326-1.478-14 1.723-15.04l17.13 55.33c-0.6076 0.1982-1.437-0.397-2.424-1.628l-6.137 3.53c-0.3482 0.2153-0.7061 0.0721-0.7958-0.3194l-0.5778-2.871c-0.0899-0.3913 0.0823-0.9388 0.3827-1.217l4.158-3.823c-2.433-4.48-5.274-10.95-8.027-18.19l-22.2 13.76c-0.3482 0.2153-0.7061 0.072-0.796-0.3192" style="fill:#fff;stroke-width:.1809"/>
   <path  class="A-7" d="m576.4 189.5-1.467-3.731c-0.1458-0.3727-0.5948-0.7182-0.9965-0.7675l-10.3-1.268c-0.2633-0.9314-0.6558-1.984-0.8416-2.078-0.8007-0.4052-3.123 0.3504-3.548 1.155-0.0297 0.0562-0.0256 0.195 2e-3 0.3837l-2.207-0.2718c-0.2629-0.9486-0.6702-2.056-0.8625-2.151-0.8007-0.4049-3.123 0.3509-3.548 1.155-0.0333 0.0629-0.0243 0.2291 0.0133 0.4554l-5.329-0.6562c-0.5415-1.9-1.105-3.801-1.688-5.683-2.578-8.326-6.668-12.31-9.867-11.27l17.13 55.33c0.6073-0.1983 0.95-1.174 1.064-2.765l6.998-0.7454c0.4056-0.0301 0.6174-0.3592 0.471-0.7316l-1.143-2.687c-0.1458-0.3731-0.5952-0.7182-0.9969-0.768l-5.545-0.6645c-0.5325-5.098-1.853-12.07-3.677-19.61l25.87-1.89c0.4054-0.03 0.6173-0.3591 0.4709-0.7316" style="fill:#e7e8e9;stroke-width:.1809"/>
  </g>
  <g id="g45" class="hide" transform="matrix(.61575 0 0 .61575 195.75 33.243)">
   <path  class="A-8" d="m487.1 125.2-1.259-3.815c-0.1258-0.3812-5e-3 -0.9424 0.2683-1.247l7.008-7.81c-0.3916-0.8841-0.7643-1.947-0.6829-2.143 0.35-0.8406 2.592-1.808 3.426-1.478 0.0583 0.023 0.1436 0.1305 0.2416 0.2938l1.501-1.673c-0.4031-0.8968-0.797-2.01-0.7135-2.212 0.3499-0.8401 2.592-1.808 3.426-1.478 0.0654 0.0258 0.1644 0.1578 0.2793 0.3556l3.627-4.041c-0.7969-1.807-1.578-3.629-2.332-5.448-3.337-8.052-2.767-13.8 0.3234-15.14l22.17 53.5c-0.5867 0.2535-1.467-0.2624-2.565-1.397l-5.784 4.083c-0.3268 0.2466-0.6964 0.1371-0.822-0.2444l-0.8409-2.805c-0.1257-0.3813-5e-3 -0.9424 0.2685-1.247l3.786-4.191c-2.837-4.236-6.264-10.42-9.675-17.37l-20.83 15.75c-0.3268 0.2466-0.6964 0.1371-0.8222-0.2442" style="fill:#fff;stroke-width:.1809"/>
   <path  class="A-8" d="m545 100.2-1.805-3.58c-0.1796-0.3577-0.6587-0.6601-1.063-0.672l-10.37-0.31c-0.3484-0.903-0.8366-1.915-1.03-1.991-0.8347-0.3294-3.077 0.6378-3.426 1.478-0.0244 0.0587-7e-3 0.1965 0.0373 0.3819l-2.222-0.06647c-0.3495-0.9202-0.8576-1.986-1.058-2.062-0.8348-0.3291-3.077 0.6383-3.426 1.478-0.0274 0.06576-3e-3 0.2303 0.0554 0.4523l-5.367-0.1603c-0.715-1.842-1.452-3.683-2.207-5.502-3.337-8.052-7.778-11.64-10.87-10.31l22.17 53.5c0.5864-0.2536 0.8374-1.257 0.8033-2.851l6.899-1.39c0.401-0.0675 0.5815-0.4148 0.4012-0.7721l-1.387-2.569c-0.1797-0.358-0.6591-0.6601-1.064-0.6725l-5.583-0.1486c-1.002-5.027-2.961-11.84-5.476-19.19l25.59-4.275c0.4008-0.0673 0.5815-0.4147 0.4012-0.7721" style="fill:#e7e8e9;stroke-width:.1809"/>
  </g>
  <g id="g49" class="hide" transform="matrix(.63279 -.04938 .04938 .63279 177.49 31.639)">
   <path  class="A-9" d="m443.4 38.15-1.259-3.815c-0.1258-0.3811-5e-3 -0.9424 0.2683-1.247l7.008-7.81c-0.3916-0.8841-0.7643-1.947-0.6829-2.143 0.35-0.8406 2.592-1.808 3.426-1.478 0.0583 0.02299 0.1436 0.1305 0.2416 0.2938l1.501-1.673c-0.4031-0.8968-0.797-2.01-0.7135-2.212 0.3499-0.8401 2.592-1.808 3.426-1.478 0.0654 0.0258 0.1644 0.1578 0.2793 0.3556l3.627-4.041c-0.7969-1.807-1.578-3.629-2.332-5.448-3.337-8.052-2.767-13.8 0.3234-15.14l22.17 53.5c-0.5867 0.2535-1.467-0.2624-2.565-1.397l-5.784 4.083c-0.3268 0.2466-0.6964 0.1371-0.822-0.2444l-0.8409-2.805c-0.1257-0.3813-5e-3 -0.9424 0.2685-1.247l3.786-4.191c-2.837-4.236-6.264-10.42-9.675-17.37l-20.83 15.75c-0.3268 0.2466-0.6964 0.1371-0.8222-0.2441" style="fill:#fff;stroke-width:.1809"/>
   <path  class="A-9" d="m501.3 13.19-1.805-3.58c-0.1796-0.3577-0.6587-0.6601-1.063-0.672l-10.37-0.31c-0.3484-0.903-0.8366-1.915-1.03-1.991-0.8347-0.3294-3.077 0.6378-3.426 1.478-0.0244 0.0587-7e-3 0.1965 0.0373 0.3819l-2.222-0.06647c-0.3495-0.9202-0.8576-1.986-1.058-2.062-0.8348-0.3291-3.077 0.6383-3.426 1.478-0.0274 0.06576-3e-3 0.2303 0.0554 0.4523l-5.367-0.1603c-0.715-1.842-1.452-3.683-2.207-5.502-3.337-8.052-7.778-11.64-10.87-10.31l22.17 53.5c0.5864-0.2536 0.8374-1.257 0.8033-2.851l6.899-1.39c0.401-0.0675 0.5815-0.4148 0.4012-0.7721l-1.387-2.569c-0.1797-0.358-0.6591-0.6601-1.064-0.6725l-5.583-0.1486c-1.002-5.027-2.961-11.84-5.476-19.19l25.59-4.275c0.4008-0.0673 0.5815-0.4147 0.4012-0.7721" style="fill:#e7e8e9;stroke-width:.1809"/>
  </g>
 </g>
 <g id="planeB-icons" transform="matrix(.5479 0 0 .5479 -.75 -.746)">
  <g id="g54" class="hide" transform="rotate(237.7 521.7 323.4)">
   <path class="B-1" d="m546.4 681.8 1.256-3.816c0.1254-0.3813 0.5561-0.7608 0.957-0.8429l10.28-2.113c0.2108-0.9437 0.543-2.02 0.725-2.129 0.7812-0.4678 3.159 0.0876 3.634 0.8482 0.0332 0.0532 0.0379 0.1903 0.0196 0.3798l2.202-0.4525c0.2091-0.9607 0.5544-2.09 0.7415-2.203 0.7808-0.4674 3.159 0.088 3.634 0.8484 0.0373 0.0596 0.0384 0.2246 0.0132 0.452l5.318-1.093c0.4339-1.927 0.8889-3.856 1.364-5.767 2.104-8.458 5.983-12.74 9.26-11.98l-13.99 56.2c-0.6224-0.1449-1.024-1.083-1.231-2.648l-7.078-0.1563c-0.4094 4e-3 -0.6414-0.3038-0.5156-0.6852l0.9918-2.755c0.1256-0.3813 0.5564-0.7606 0.9574-0.8431l5.536-1.119c0.237-5.093 1.157-12.1 2.549-19.72l-26.12 0.2812c-0.4094 4e-3 -0.6414-0.3039-0.5159-0.6851" style="fill:#fff;stroke-width:.1809"/>
   <path class="B-1" id="path13797-6-4" d="m607.8 696.1 0.6766-3.952c0.0682-0.3944-0.1372-0.9224-0.4554-1.173l-8.156-6.417c0.2568-0.9332 0.4659-2.037 0.3555-2.214-0.4753-0.7612-2.853-1.317-3.634-0.8484-0.0545 0.0327-0.1228 0.1536-0.1971 0.3292l-1.747-1.375c0.266-0.9477 0.4911-2.106 0.3757-2.287-0.4755-0.7609-2.854-1.316-3.634-0.8485-0.0611 0.0366-0.1393 0.1834-0.2244 0.3966l-4.22-3.32c0.5202-1.906 1.022-3.825 1.497-5.736 2.104-8.458 0.6678-13.99-2.609-14.75l-13.99 56.2c0.6222 0.1447 1.42-0.5125 2.341-1.815l6.373 2.984c0.3626 0.1842 0.7142 0.0122 0.7817-0.3822l0.4128-2.89c0.0684-0.3947-0.1375-0.9226-0.4554-1.173l-4.401-3.439c2.183-4.638 4.661-11.28 7.005-18.68l23.11 11.77c0.3623 0.1842 0.7141 0.0123 0.7816-0.3822" style="fill:#e7e8e9;stroke-width:.1809"/>
  </g>
  <g id="g58" class="hide">
   <path class="B-2" id="path13797-6-4-7" transform="rotate(239.3 479.9 362.8)" d="m607.8 696.1 0.6766-3.952c0.0682-0.3944-0.1372-0.9224-0.4554-1.173l-8.156-6.417c0.2568-0.9332 0.4659-2.037 0.3555-2.214-0.4753-0.7612-2.853-1.317-3.634-0.8484-0.0545 0.0327-0.1228 0.1536-0.1971 0.3292l-1.747-1.375c0.266-0.9477 0.4911-2.106 0.3757-2.287-0.4755-0.7609-2.854-1.316-3.634-0.8485-0.0611 0.0366-0.1393 0.1834-0.2244 0.3966l-4.22-3.32c0.5202-1.906 1.022-3.825 1.497-5.736 2.104-8.458 0.6678-13.99-2.609-14.75l-13.99 56.2c0.6222 0.1447 1.42-0.5125 2.341-1.815l6.373 2.984c0.3626 0.1842 0.7142 0.0122 0.7817-0.3822l0.4128-2.89c0.0684-0.3947-0.1375-0.9226-0.4554-1.173l-4.401-3.439c2.183-4.638 4.661-11.28 7.005-18.68l23.11 11.77c0.3623 0.1842 0.7141 0.0123 0.7816-0.3822" style="fill:#e7e8e9;stroke-width:.1809"/>
   <path class="B-2" id="path13807-6-6-0" transform="rotate(239.3 479.9 362.8)" d="m546.4 681.8 1.256-3.816c0.1254-0.3813 0.5561-0.7608 0.957-0.8429l10.28-2.113c0.2108-0.9437 0.543-2.02 0.725-2.129 0.7812-0.4678 3.159 0.0876 3.634 0.8482 0.0332 0.0532 0.0379 0.1903 0.0196 0.3798l2.202-0.4525c0.2091-0.9607 0.5544-2.09 0.7415-2.203 0.7808-0.4674 3.159 0.088 3.634 0.8484 0.0373 0.0596 0.0384 0.2246 0.0132 0.452l5.318-1.093c0.4339-1.927 0.8889-3.856 1.364-5.767 2.104-8.458 5.983-12.74 9.26-11.98l-13.99 56.2c-0.6224-0.1449-1.024-1.083-1.231-2.648l-7.078-0.1563c-0.4094 4e-3 -0.6414-0.3038-0.5156-0.6852l0.9918-2.755c0.1256-0.3813 0.5564-0.7606 0.9574-0.8431l5.536-1.119c0.237-5.093 1.157-12.1 2.549-19.72l-26.12 0.2812c-0.4094 4e-3 -0.6414-0.3039-0.5159-0.6851" style="fill:#fff;stroke-width:.1809"/>
  </g>
  <g id="g62" class="hide" transform="rotate(239.3 442 400.7)">
   <path class="B-3" id="path13807-6-6-0-9" d="m546.4 681.8 1.256-3.816c0.1254-0.3813 0.5561-0.7608 0.957-0.8429l10.28-2.113c0.2108-0.9437 0.543-2.02 0.725-2.129 0.7812-0.4678 3.159 0.0876 3.634 0.8482 0.0332 0.0532 0.0379 0.1903 0.0196 0.3798l2.202-0.4525c0.2091-0.9607 0.5544-2.09 0.7415-2.203 0.7808-0.4674 3.159 0.088 3.634 0.8484 0.0373 0.0596 0.0384 0.2246 0.0132 0.452l5.318-1.093c0.4339-1.927 0.8889-3.856 1.364-5.767 2.104-8.458 5.983-12.74 9.26-11.98l-13.99 56.2c-0.6224-0.1449-1.024-1.083-1.231-2.648l-7.078-0.1563c-0.4094 4e-3 -0.6414-0.3038-0.5156-0.6852l0.9918-2.755c0.1256-0.3813 0.5564-0.7606 0.9574-0.8431l5.536-1.119c0.237-5.093 1.157-12.1 2.549-19.72l-26.12 0.2812c-0.4094 4e-3 -0.6414-0.3039-0.5159-0.6851" style="fill:#fff;stroke-width:.1809"/>
   <path class="B-3" id="path13797-6-4-7-3" d="m607.8 696.1 0.6766-3.952c0.0682-0.3944-0.1372-0.9224-0.4554-1.173l-8.156-6.417c0.2568-0.9332 0.4659-2.037 0.3555-2.214-0.4753-0.7612-2.853-1.317-3.634-0.8484-0.0545 0.0327-0.1228 0.1536-0.1971 0.3292l-1.747-1.375c0.266-0.9477 0.4911-2.106 0.3757-2.287-0.4755-0.7609-2.854-1.316-3.634-0.8485-0.0611 0.0366-0.1393 0.1834-0.2244 0.3966l-4.22-3.32c0.5202-1.906 1.022-3.825 1.497-5.736 2.104-8.458 0.6678-13.99-2.609-14.75l-13.99 56.2c0.6222 0.1447 1.42-0.5125 2.341-1.815l6.373 2.984c0.3626 0.1842 0.7142 0.0122 0.7817-0.3822l0.4128-2.89c0.0684-0.3947-0.1375-0.9226-0.4554-1.173l-4.401-3.439c2.183-4.638 4.661-11.28 7.005-18.68l23.11 11.77c0.3623 0.1842 0.7141 0.0123 0.7816-0.3822" style="fill:#e7e8e9;stroke-width:.1809"/>
  </g>
  <g id="g66" class="hide" transform="rotate(247 368.6 443.4)">
   <path class="B-4"  id="path13807-6-6-0-8" d="m546.4 681.8 1.256-3.816c0.1254-0.3813 0.5561-0.7608 0.957-0.8429l10.28-2.113c0.2108-0.9437 0.543-2.02 0.725-2.129 0.7812-0.4678 3.159 0.0876 3.634 0.8482 0.0332 0.0532 0.0379 0.1903 0.0196 0.3798l2.202-0.4525c0.2091-0.9607 0.5544-2.09 0.7415-2.203 0.7808-0.4674 3.159 0.088 3.634 0.8484 0.0373 0.0596 0.0384 0.2246 0.0132 0.452l5.318-1.093c0.4339-1.927 0.8889-3.856 1.364-5.767 2.104-8.458 5.983-12.74 9.26-11.98l-13.99 56.2c-0.6224-0.1449-1.024-1.083-1.231-2.648l-7.078-0.1563c-0.4094 4e-3 -0.6414-0.3038-0.5156-0.6852l0.9918-2.755c0.1256-0.3813 0.5564-0.7606 0.9574-0.8431l5.536-1.119c0.237-5.093 1.157-12.1 2.549-19.72l-26.12 0.2812c-0.4094 4e-3 -0.6414-0.3039-0.5159-0.6851" style="fill:#fff;stroke-width:.1809"/>
   <path class="B-4" id="path13797-6-4-7-2" d="m607.8 696.1 0.6766-3.952c0.0682-0.3944-0.1372-0.9224-0.4554-1.173l-8.156-6.417c0.2568-0.9332 0.4659-2.037 0.3555-2.214-0.4753-0.7612-2.853-1.317-3.634-0.8484-0.0545 0.0327-0.1228 0.1536-0.1971 0.3292l-1.747-1.375c0.266-0.9477 0.4911-2.106 0.3757-2.287-0.4755-0.7609-2.854-1.316-3.634-0.8485-0.0611 0.0366-0.1393 0.1834-0.2244 0.3966l-4.22-3.32c0.5202-1.906 1.022-3.825 1.497-5.736 2.104-8.458 0.6678-13.99-2.609-14.75l-13.99 56.2c0.6222 0.1447 1.42-0.5125 2.341-1.815l6.373 2.984c0.3626 0.1842 0.7142 0.0122 0.7817-0.3822l0.4128-2.89c0.0684-0.3947-0.1375-0.9226-0.4554-1.173l-4.401-3.439c2.183-4.638 4.661-11.28 7.005-18.68l23.11 11.77c0.3623 0.1842 0.7141 0.0123 0.7816-0.3822" style="fill:#e7e8e9;stroke-width:.1809"/>
  </g>
  <g id="g70" class="hide" transform="rotate(251.7 307.8 486.8)">
   <path class="B-5" id="path13807-6-6-0-8-1" d="m546.4 681.8 1.256-3.816c0.1254-0.3813 0.5561-0.7608 0.957-0.8429l10.28-2.113c0.2108-0.9437 0.543-2.02 0.725-2.129 0.7812-0.4678 3.159 0.0876 3.634 0.8482 0.0332 0.0532 0.0379 0.1903 0.0196 0.3798l2.202-0.4525c0.2091-0.9607 0.5544-2.09 0.7415-2.203 0.7808-0.4674 3.159 0.088 3.634 0.8484 0.0373 0.0596 0.0384 0.2246 0.0132 0.452l5.318-1.093c0.4339-1.927 0.8889-3.856 1.364-5.767 2.104-8.458 5.983-12.74 9.26-11.98l-13.99 56.2c-0.6224-0.1449-1.024-1.083-1.231-2.648l-7.078-0.1563c-0.4094 4e-3 -0.6414-0.3038-0.5156-0.6852l0.9918-2.755c0.1256-0.3813 0.5564-0.7606 0.9574-0.8431l5.536-1.119c0.237-5.093 1.157-12.1 2.549-19.72l-26.12 0.2812c-0.4094 4e-3 -0.6414-0.3039-0.5159-0.6851" style="fill:#fff;stroke-width:.1809"/>
   <path class="B-5" id="path13797-6-4-7-2-1" d="m607.8 696.1 0.6766-3.952c0.0682-0.3944-0.1372-0.9224-0.4554-1.173l-8.156-6.417c0.2568-0.9332 0.4659-2.037 0.3555-2.214-0.4753-0.7612-2.853-1.317-3.634-0.8484-0.0545 0.0327-0.1228 0.1536-0.1971 0.3292l-1.747-1.375c0.266-0.9477 0.4911-2.106 0.3757-2.287-0.4755-0.7609-2.854-1.316-3.634-0.8485-0.0611 0.0366-0.1393 0.1834-0.2244 0.3966l-4.22-3.32c0.5202-1.906 1.022-3.825 1.497-5.736 2.104-8.458 0.6678-13.99-2.609-14.75l-13.99 56.2c0.6222 0.1447 1.42-0.5125 2.341-1.815l6.373 2.984c0.3626 0.1842 0.7142 0.0122 0.7817-0.3822l0.4128-2.89c0.0684-0.3947-0.1375-0.9226-0.4554-1.173l-4.401-3.439c2.183-4.638 4.661-11.28 7.005-18.68l23.11 11.77c0.3623 0.1842 0.7141 0.0123 0.7816-0.3822" style="fill:#e7e8e9;stroke-width:.1809"/>
  </g>
  <g id="B-6" class="hide" transform="rotate(258.4 233 539.5)">
   <path class="B-6" id="path13807-6-6-0-8-1-5" d="m546.4 681.8 1.256-3.816c0.1254-0.3813 0.5561-0.7608 0.957-0.8429l10.28-2.113c0.2108-0.9437 0.543-2.02 0.725-2.129 0.7812-0.4678 3.159 0.0876 3.634 0.8482 0.0332 0.0532 0.0379 0.1903 0.0196 0.3798l2.202-0.4525c0.2091-0.9607 0.5544-2.09 0.7415-2.203 0.7808-0.4674 3.159 0.088 3.634 0.8484 0.0373 0.0596 0.0384 0.2246 0.0132 0.452l5.318-1.093c0.4339-1.927 0.8889-3.856 1.364-5.767 2.104-8.458 5.983-12.74 9.26-11.98l-13.99 56.2c-0.6224-0.1449-1.024-1.083-1.231-2.648l-7.078-0.1563c-0.4094 4e-3 -0.6414-0.3038-0.5156-0.6852l0.9918-2.755c0.1256-0.3813 0.5564-0.7606 0.9574-0.8431l5.536-1.119c0.237-5.093 1.157-12.1 2.549-19.72l-26.12 0.2812c-0.4094 4e-3 -0.6414-0.3039-0.5159-0.6851" style="fill:#fff;stroke-width:.1809"/>
   <path class="B-6" id="path13797-6-4-7-2-1-5" d="m607.8 696.1 0.6766-3.952c0.0682-0.3944-0.1372-0.9224-0.4554-1.173l-8.156-6.417c0.2568-0.9332 0.4659-2.037 0.3555-2.214-0.4753-0.7612-2.853-1.317-3.634-0.8484-0.0545 0.0327-0.1228 0.1536-0.1971 0.3292l-1.747-1.375c0.266-0.9477 0.4911-2.106 0.3757-2.287-0.4755-0.7609-2.854-1.316-3.634-0.8485-0.0611 0.0366-0.1393 0.1834-0.2244 0.3966l-4.22-3.32c0.5202-1.906 1.022-3.825 1.497-5.736 2.104-8.458 0.6678-13.99-2.609-14.75l-13.99 56.2c0.6222 0.1447 1.42-0.5125 2.341-1.815l6.373 2.984c0.3626 0.1842 0.7142 0.0122 0.7817-0.3822l0.4128-2.89c0.0684-0.3947-0.1375-0.9226-0.4554-1.173l-4.401-3.439c2.183-4.638 4.661-11.28 7.005-18.68l23.11 11.77c0.3623 0.1842 0.7141 0.0123 0.7816-0.3822" style="fill:#e7e8e9;stroke-width:.1809"/>
  </g>
  <g id="g77" transform="rotate(-99.7,170.6,584)">
   <path class="B-7" id="path13807-6-6-0-8-1-52" d="m546.4 681.8 1.256-3.816c0.1254-0.3813 0.5561-0.7608 0.957-0.8429l10.28-2.113c0.2108-0.9437 0.543-2.02 0.725-2.129 0.7812-0.4678 3.159 0.0876 3.634 0.8482 0.0332 0.0532 0.0379 0.1903 0.0196 0.3798l2.202-0.4525c0.2091-0.9607 0.5544-2.09 0.7415-2.203 0.7808-0.4674 3.159 0.088 3.634 0.8484 0.0373 0.0596 0.0384 0.2246 0.0132 0.452l5.318-1.093c0.4339-1.927 0.8889-3.856 1.364-5.767 2.104-8.458 5.983-12.74 9.26-11.98l-13.99 56.2c-0.6224-0.1449-1.024-1.083-1.231-2.648l-7.078-0.1563c-0.4094 4e-3 -0.6414-0.3038-0.5156-0.6852l0.9918-2.755c0.1256-0.3813 0.5564-0.7606 0.9574-0.8431l5.536-1.119c0.237-5.093 1.157-12.1 2.549-19.72l-26.12 0.2812c-0.4094 4e-3 -0.6414-0.3039-0.5159-0.6851" style="fill:#fff;stroke-width:.1809"/>
   <path class="B-7" id="path13797-6-4-7-2-1-1" d="m607.8 696.1 0.6766-3.952c0.0682-0.3944-0.1372-0.9224-0.4554-1.173l-8.156-6.417c0.2568-0.9332 0.4659-2.037 0.3555-2.214-0.4753-0.7612-2.853-1.317-3.634-0.8484-0.0545 0.0327-0.1228 0.1536-0.1971 0.3292l-1.747-1.375c0.266-0.9477 0.4911-2.106 0.3757-2.287-0.4755-0.7609-2.854-1.316-3.634-0.8485-0.0611 0.0366-0.1393 0.1834-0.2244 0.3966l-4.22-3.32c0.5202-1.906 1.022-3.825 1.497-5.736 2.104-8.458 0.6678-13.99-2.609-14.75l-13.99 56.2c0.6222 0.1447 1.42-0.5125 2.341-1.815l6.373 2.984c0.3626 0.1842 0.7142 0.0122 0.7817-0.3822l0.4128-2.89c0.0684-0.3947-0.1375-0.9226-0.4554-1.173l-4.401-3.439c2.183-4.638 4.661-11.28 7.005-18.68l23.11 11.77c0.3623 0.1842 0.7141 0.0123 0.7816-0.3822" style="fill:#e7e8e9;stroke-width:.1809"/>
  </g>
  <g id="g81" transform="rotate(-94.3,87.11,644.1)">
   <path class="B-8" id="path13807-6-6-0-8-1-7" d="m546.4 681.8 1.256-3.816c0.1254-0.3813 0.5561-0.7608 0.957-0.8429l10.28-2.113c0.2108-0.9437 0.543-2.02 0.725-2.129 0.7812-0.4678 3.159 0.0876 3.634 0.8482 0.0332 0.0532 0.0379 0.1903 0.0196 0.3798l2.202-0.4525c0.2091-0.9607 0.5544-2.09 0.7415-2.203 0.7808-0.4674 3.159 0.088 3.634 0.8484 0.0373 0.0596 0.0384 0.2246 0.0132 0.452l5.318-1.093c0.4339-1.927 0.8889-3.856 1.364-5.767 2.104-8.458 5.983-12.74 9.26-11.98l-13.99 56.2c-0.6224-0.1449-1.024-1.083-1.231-2.648l-7.078-0.1563c-0.4094 4e-3 -0.6414-0.3038-0.5156-0.6852l0.9918-2.755c0.1256-0.3813 0.5564-0.7606 0.9574-0.8431l5.536-1.119c0.237-5.093 1.157-12.1 2.549-19.72l-26.12 0.2812c-0.4094 4e-3 -0.6414-0.3039-0.5159-0.6851" style="fill:#fff;stroke-width:.1809"/>
   <path class="B-8" id="path13797-6-4-7-2-1-3" d="m607.8 696.1 0.6766-3.952c0.0682-0.3944-0.1372-0.9224-0.4554-1.173l-8.156-6.417c0.2568-0.9332 0.4659-2.037 0.3555-2.214-0.4753-0.7612-2.853-1.317-3.634-0.8484-0.0545 0.0327-0.1228 0.1536-0.1971 0.3292l-1.747-1.375c0.266-0.9477 0.4911-2.106 0.3757-2.287-0.4755-0.7609-2.854-1.316-3.634-0.8485-0.0611 0.0366-0.1393 0.1834-0.2244 0.3966l-4.22-3.32c0.5202-1.906 1.022-3.825 1.497-5.736 2.104-8.458 0.6678-13.99-2.609-14.75l-13.99 56.2c0.6222 0.1447 1.42-0.5125 2.341-1.815l6.373 2.984c0.3626 0.1842 0.7142 0.0122 0.7817-0.3822l0.4128-2.89c0.0684-0.3947-0.1375-0.9226-0.4554-1.173l-4.401-3.439c2.183-4.638 4.661-11.28 7.005-18.68l23.11 11.77c0.3623 0.1842 0.7141 0.0123 0.7816-0.3822" style="fill:#e7e8e9;stroke-width:.1809"/>
  </g>
  <g id="g85" transform="rotate(-91,21.51,690.9)">
   <path class="B-9" id="path13807-6-6-0-8-1-2" d="m546.4 681.8 1.256-3.816c0.1254-0.3813 0.5561-0.7608 0.957-0.8429l10.28-2.113c0.2108-0.9437 0.543-2.02 0.725-2.129 0.7812-0.4678 3.159 0.0876 3.634 0.8482 0.0332 0.0532 0.0379 0.1903 0.0196 0.3798l2.202-0.4525c0.2091-0.9607 0.5544-2.09 0.7415-2.203 0.7808-0.4674 3.159 0.088 3.634 0.8484 0.0373 0.0596 0.0384 0.2246 0.0132 0.452l5.318-1.093c0.4339-1.927 0.8889-3.856 1.364-5.767 2.104-8.458 5.983-12.74 9.26-11.98l-13.99 56.2c-0.6224-0.1449-1.024-1.083-1.231-2.648l-7.078-0.1563c-0.4094 4e-3 -0.6414-0.3038-0.5156-0.6852l0.9918-2.755c0.1256-0.3813 0.5564-0.7606 0.9574-0.8431l5.536-1.119c0.237-5.093 1.157-12.1 2.549-19.72l-26.12 0.2812c-0.4094 4e-3 -0.6414-0.3039-0.5159-0.6851" style="fill:#fff;stroke-width:.1809"/>
   <path class="B-9" id="path13797-6-4-7-2-1-4" d="m607.8 696.1 0.6766-3.952c0.0682-0.3944-0.1372-0.9224-0.4554-1.173l-8.156-6.417c0.2568-0.9332 0.4659-2.037 0.3555-2.214-0.4753-0.7612-2.853-1.317-3.634-0.8484-0.0545 0.0327-0.1228 0.1536-0.1971 0.3292l-1.747-1.375c0.266-0.9477 0.4911-2.106 0.3757-2.287-0.4755-0.7609-2.854-1.316-3.634-0.8485-0.0611 0.0366-0.1393 0.1834-0.2244 0.3966l-4.22-3.32c0.5202-1.906 1.022-3.825 1.497-5.736 2.104-8.458 0.6678-13.99-2.609-14.75l-13.99 56.2c0.6222 0.1447 1.42-0.5125 2.341-1.815l6.373 2.984c0.3626 0.1842 0.7142 0.0122 0.7817-0.3822l0.4128-2.89c0.0684-0.3947-0.1375-0.9226-0.4554-1.173l-4.401-3.439c2.183-4.638 4.661-11.28 7.005-18.68l23.11 11.77c0.3623 0.1842 0.7141 0.0123 0.7816-0.3822" style="fill:#e7e8e9;stroke-width:.1809"/>
  </g>
 </g>
 <g id="planeC-icons" transform="matrix(-.5429 .07447 .07447 .5429 339.55 -42.79)">
  <g id="g90" transform="matrix(.7617 .013588 -.013588 .7617 129.95 171.79)">
   <path class="C-1" id="path13807-39" d="m529.8 767.4 1.256-3.816c0.1254-0.3813 0.5561-0.7608 0.957-0.8429l10.28-2.113c0.2108-0.9437 0.543-2.02 0.725-2.129 0.7812-0.4678 3.159 0.0876 3.634 0.8482 0.0332 0.0532 0.0379 0.1903 0.0196 0.3798l2.202-0.4525c0.2091-0.9607 0.5544-2.09 0.7415-2.203 0.7808-0.4674 3.159 0.088 3.634 0.8484 0.0373 0.0596 0.0384 0.2246 0.0132 0.452l5.318-1.093c0.4339-1.927 0.8889-3.856 1.364-5.767 2.104-8.458 5.983-12.74 9.26-11.98l-13.99 56.2c-0.6224-0.1449-1.024-1.083-1.231-2.648l-7.078-0.1563c-0.4094 4e-3 -0.6414-0.3038-0.5156-0.6852l0.9918-2.755c0.1256-0.3813 0.5564-0.7606 0.9574-0.8431l5.536-1.119c0.237-5.093 1.157-12.1 2.549-19.72l-26.12 0.2812c-0.4094 4e-3 -0.6414-0.3039-0.5159-0.6851" style="fill:#fff"/>
   <path class="C-1" id="path13797-8" d="m591.2 781.7 0.6766-3.952c0.0682-0.3944-0.1372-0.9224-0.4554-1.173l-8.156-6.417c0.2568-0.9332 0.4659-2.037 0.3555-2.214-0.4753-0.7612-2.853-1.317-3.634-0.8484-0.0545 0.0327-0.1228 0.1536-0.1971 0.3292l-1.747-1.375c0.266-0.9477 0.4911-2.106 0.3757-2.287-0.4755-0.7609-2.854-1.316-3.634-0.8485-0.0611 0.0366-0.1393 0.1834-0.2244 0.3966l-4.22-3.32c0.5202-1.906 1.022-3.825 1.497-5.736 2.104-8.458 0.6678-13.99-2.609-14.75l-13.99 56.2c0.6222 0.1447 1.42-0.5125 2.341-1.815l6.373 2.984c0.3626 0.1842 0.7142 0.0122 0.7817-0.3822l0.4128-2.89c0.0684-0.3947-0.1375-0.9226-0.4554-1.173l-4.401-3.439c2.183-4.638 4.661-11.28 7.005-18.68l23.11 11.77c0.3623 0.1842 0.7141 0.0123 0.7816-0.3822" style="fill:#e7e8e9;stroke-width:.1809"/>
  </g>
  <g id="g94" transform="matrix(.75157 -.020087 .020087 .75157 124.47 170.54)">
   <path class="C-2"  id="path13807-6-9" d="m546.4 681.8 1.256-3.816c0.1254-0.3813 0.5561-0.7608 0.957-0.8429l10.28-2.113c0.2108-0.9437 0.543-2.02 0.725-2.129 0.7812-0.4678 3.159 0.0876 3.634 0.8482 0.0332 0.0532 0.0379 0.1903 0.0196 0.3798l2.202-0.4525c0.2091-0.9607 0.5544-2.09 0.7415-2.203 0.7808-0.4674 3.159 0.088 3.634 0.8484 0.0373 0.0596 0.0384 0.2246 0.0132 0.452l5.318-1.093c0.4339-1.927 0.8889-3.856 1.364-5.767 2.104-8.458 5.983-12.74 9.26-11.98l-13.99 56.2c-0.6224-0.1449-1.024-1.083-1.231-2.648l-7.078-0.1563c-0.4094 4e-3 -0.6414-0.3038-0.5156-0.6852l0.9918-2.755c0.1256-0.3813 0.5564-0.7606 0.9574-0.8431l5.536-1.119c0.237-5.093 1.157-12.1 2.549-19.72l-26.12 0.2812c-0.4094 4e-3 -0.6414-0.3039-0.5159-0.6851" style="fill:#fff;stroke-width:.1809"/>
   <path class="C-2" id="path13797-6-82" d="m607.8 696.1 0.6766-3.952c0.0682-0.3944-0.1372-0.9224-0.4554-1.173l-8.156-6.417c0.2568-0.9332 0.4659-2.037 0.3555-2.214-0.4753-0.7612-2.853-1.317-3.634-0.8484-0.0545 0.0327-0.1228 0.1536-0.1971 0.3292l-1.747-1.375c0.266-0.9477 0.4911-2.106 0.3757-2.287-0.4755-0.7609-2.854-1.316-3.634-0.8485-0.0611 0.0366-0.1393 0.1834-0.2244 0.3966l-4.22-3.32c0.5202-1.906 1.022-3.825 1.497-5.736 2.104-8.458 0.6678-13.99-2.609-14.75l-13.99 56.2c0.6222 0.1447 1.42-0.5125 2.341-1.815l6.373 2.984c0.3626 0.1842 0.7142 0.0122 0.7817-0.3822l0.4128-2.89c0.0684-0.3947-0.1375-0.9226-0.4554-1.173l-4.401-3.439c2.183-4.638 4.661-11.28 7.005-18.68l23.11 11.77c0.3623 0.1842 0.7141 0.0123 0.7816-0.3822" style="fill:#e7e8e9;stroke-width:.1809"/>
  </g>
  <g id="g98" transform="matrix(.73098 -.02858 .02858 .73098 139.92 180.36)">
   <path class="C-3" id="path13807-4-6" d="m555.5 592.2 0.7967-3.938c0.0795-0.3934 0.4624-0.8212 0.8508-0.95l9.957-3.312c0.0979-0.962 0.3007-2.07 0.4685-2.2 0.7205-0.5568 3.148-0.2861 3.708 0.4131 0.0393 0.0489 0.0601 0.1845 0.0643 0.3749l2.133-0.7094c0.0942-0.9787 0.3037-2.141 0.4762-2.275 0.7202-0.5564 3.147-0.2857 3.708 0.4134 0.0441 0.0548 0.0647 0.2185 0.0665 0.4473l5.152-1.713c0.2033-1.965 0.4273-3.934 0.6738-5.888 1.091-8.647 4.436-13.36 7.781-12.99l-7.251 57.46c-0.6352-0.0704-1.144-0.9548-1.536-2.484l-7.047 0.6807c-0.406 0.0523-0.6728-0.226-0.5929-0.6195l0.6594-2.853c0.0797-0.3935 0.4626-0.821 0.8511-0.9503l5.365-1.765c-0.3661-5.085-0.2798-12.15 0.2024-19.88l-25.9 3.363c-0.406 0.0523-0.6728-0.226-0.5932-0.6194" style="fill:#fff;stroke-width:.1809"/>
   <path class="C-3" id="path13797-0-4" d="m618.2 599.2 0.2052-4.004c0.0211-0.3997-0.2451-0.8997-0.5906-1.111l-8.857-5.409c0.1448-0.957 0.2221-2.078 0.0916-2.24-0.5619-0.6997-2.989-0.9706-3.708-0.4134-0.0503 0.0389-0.1038 0.167-0.1568 0.3502l-1.897-1.159c0.1523-0.9724 0.2389-2.15 0.103-2.316-0.562-0.6995-2.989-0.9701-3.708-0.4134-0.0563 0.0436-0.1167 0.1986-0.176 0.4203l-4.583-2.798c0.2915-1.954 0.5631-3.919 0.8092-5.873 1.091-8.647-0.9884-13.97-4.333-14.34l-7.251 57.46c0.635 0.0702 1.35-0.6766 2.11-2.079l6.681 2.211c0.3818 0.1401 0.7106-0.0722 0.7311-0.4719l0.0685-2.919c0.0213-0.4-0.2455-0.9-0.5908-1.111l-4.776-2.895c1.62-4.863 3.296-11.75 4.75-19.38l24.34 8.963c0.3816 0.1401 0.7105-0.0721 0.731-0.4719" style="fill:#e7e8e9;stroke-width:.1809"/>
  </g>
  <g id="g102" transform="matrix(.72116 -.078242 .078242 .72116 134.94 180.93)">
   <path class="C-4" id="path13807-0-5" d="m555.7 484.7 0.5796-3.976c0.0579-0.3972 0.4166-0.8453 0.7974-0.9952l9.76-3.853c0.045-0.9659 0.1868-2.083 0.3472-2.222 0.6889-0.5954 3.127-0.4582 3.725 0.2092 0.0419 0.0467 0.0701 0.181 0.0848 0.3708l2.091-0.8252c0.0404-0.9824 0.1859-2.155 0.3508-2.298 0.6886-0.595 3.127-0.4578 3.725 0.2095 0.047 0.0523 0.0765 0.2146 0.0909 0.4429l5.05-1.993c0.0953-1.973 0.2111-3.951 0.3501-5.916 0.6152-8.694 3.697-13.58 7.057-13.4l-4.09 57.77c-0.6381-0.0355-1.195-0.8907-1.669-2.396l-6.999 1.066c-0.4025 0.0745-0.6842-0.1888-0.626-0.5861l0.502-2.885c0.058-0.3973 0.4169-0.8451 0.7978-0.9955l5.26-2.056c-0.6442-5.057-0.9455-12.12-0.8877-19.86l-25.68 4.778c-0.4026 0.0745-0.6842-0.1888-0.6262-0.586" style="fill:#fff;stroke-width:.1809"/>
   <path class="C-4" id="path13797-5-6" d="m618.6 488.3-0.0146-4.009c-7.9e-4 -0.4003-0.2941-0.8849-0.6506-1.076l-9.14-4.915c0.0921-0.9635 0.1079-2.087-0.0313-2.242-0.5994-0.6678-3.038-0.8053-3.725-0.2095-0.048 0.0416-0.0945 0.1724-0.1374 0.3583l-1.958-1.053c0.0987-0.9793 0.1207-2.159-0.0241-2.318-0.5995-0.6676-3.038-0.8048-3.725-0.2095-0.0539 0.0466-0.1056 0.2047-0.1527 0.4293l-4.729-2.543c0.1839-1.967 0.3474-3.944 0.4862-5.908 0.6152-8.694-1.752-13.89-5.112-14.08l-4.09 57.77c0.6379 0.0353 1.311-0.7496 1.993-2.191l6.792 1.841c0.3889 0.1189 0.7056-0.1111 0.7041-0.5112l-0.0915-2.918c-6.4e-4 -0.4006-0.2944-0.8851-0.6508-1.077l-4.928-2.629c1.351-4.944 2.646-11.92 3.681-19.61l24.8 7.615c0.3887 0.119 0.7055-0.111 0.704-0.5112" style="fill:#e7e8e9;stroke-width:.1809"/>
  </g>
  <g id="g106" transform="matrix(.72379 0 0 .72379 168.58 114.36)">
   <path class="C-5" id="path13807-08-2" d="m551.6 385.4-0.2138-4.012c-0.0214-0.4008 0.2422-0.9107 0.5861-1.133l8.812-5.698c-0.1459-0.9559-0.2266-2.079-0.0967-2.247 0.5583-0.7193 2.976-1.064 3.694-0.5277 0.0502 0.0375 0.1044 0.1636 0.1561 0.3469l1.888-1.22c-0.1536-0.9712-0.2416-2.149-0.1081-2.322 0.5581-0.7189 2.976-1.064 3.694-0.5274 0.0564 0.042 0.1173 0.1954 0.1763 0.4164l4.56-2.947c-0.2947-1.953-0.5704-3.916-0.8206-5.869-1.107-8.645 0.9522-14.05 4.284-14.52l7.355 57.45c-0.6326 0.0907-1.347-0.6382-2.108-2.021l-6.653 2.422c-0.38 0.1522-0.708-0.0505-0.7291-0.4515l-0.0753-2.928c-0.0213-0.4009 0.2425-0.9106 0.5863-1.133l4.753-3.051c-1.627-4.832-3.311-11.7-4.778-19.3l-24.23 9.736c-0.38 0.1522-0.708-0.0505-0.7293-0.4513" style="fill:#fff;stroke-width:.1809"/>
   <path class="C-5" id="path13797-4-5" d="m614 376.5-0.803-3.928c-0.0795-0.3923-0.4624-0.8098-0.8497-0.9274l-9.928-3.021c-0.0992-0.9628-0.3048-2.067-0.4717-2.192-0.7191-0.5369-3.137-0.192-3.694 0.5274-0.0389 0.0503-0.0588 0.1876-0.0642 0.3783l-2.127-0.6472c-0.0958-0.9796-0.3065-2.141-0.4796-2.268-0.7192-0.5366-3.137-0.1915-3.694 0.5274-0.0437 0.0563-0.0633 0.2215-0.0652 0.4509l-5.137-1.563c-0.2066-1.965-0.4352-3.935-0.6856-5.888-1.107-8.645-4.451-13.27-7.782-12.8l7.355 57.45c0.6324-0.0909 1.138-0.9928 1.523-2.54l7.022 0.4692c0.4047 0.0401 0.67-0.2477 0.5898-0.6398l-0.6639-2.843c-0.0794-0.3926-0.4628-0.8099-0.85-0.928l-5.349-1.608c0.3522-5.114 0.2502-12.2-0.2494-19.95l25.81 2.588c0.4045 0.0402 0.6699-0.2476 0.5897-0.6397" style="fill:#e7e8e9;stroke-width:.1809"/>
  </g>
  <g id="g110" transform="matrix(.72481 -.10432 .10432 .72481 125.12 136.07)">
   <path class="C-6" id="path13807-5-3" d="m537.1 295.4-0.4231-3.995c-0.0423-0.3992 0.1943-0.9221 0.5261-1.162l8.502-6.15c-0.1956-0.947-0.3349-2.065-0.2139-2.239 0.52-0.7475 2.916-1.218 3.661-0.72 0.0521 0.0349 0.1128 0.158 0.174 0.3382l1.821-1.317c-0.2042-0.9618-0.3535-2.133-0.2292-2.313 0.5198-0.747 2.916-1.218 3.661-0.7197 0.0584 0.039 0.1273 0.189 0.1978 0.4066l4.4-3.182c-0.3963-1.935-0.7741-3.881-1.126-5.818-1.557-8.575 0.2173-14.08 3.52-14.73l10.35 56.98c-0.627 0.1236-1.378-0.567-2.211-1.908l-6.517 2.766c-0.3716 0.1719-0.7096-0.0134-0.7517-0.4128l-0.2282-2.92c-0.0422-0.3993 0.1946-0.9221 0.5263-1.162l4.587-3.295c-1.877-4.74-3.918-11.51-5.78-19.03l-23.69 10.99c-0.3716 0.1719-0.7096-0.0134-0.7519-0.4126" style="fill:#fff;stroke-width:.1809"/>
   <path class="C-6"  id="path13797-54-0" d="m599 283.3-1.007-3.881c-0.0999-0.3876-0.5041-0.7845-0.897-0.8818l-10.07-2.498c-0.1494-0.9563-0.4124-2.049-0.5855-2.164-0.7461-0.4986-3.143-0.0279-3.661 0.7197-0.0362 0.0523-0.0489 0.1905-0.0443 0.3812l-2.158-0.5353c-0.1469-0.9733-0.4179-2.122-0.5974-2.24-0.7462-0.4983-3.143-0.0274-3.661 0.7197-0.0407 0.0585-0.0516 0.2245-0.0416 0.4537l-5.212-1.293c-0.309-1.951-0.6401-3.907-0.9923-5.844-1.557-8.575-5.138-13.02-8.44-12.37l10.35 56.98c0.6267-0.1238 1.084-1.051 1.389-2.617l7.036 0.1018c0.4062 0.0189 0.6561-0.2824 0.5555-0.6697l-0.8114-2.805c-0.0998-0.3879-0.5045-0.7846-0.8973-0.8824l-5.425-1.327c0.0847-5.125-0.3877-12.2-1.291-19.91l25.91 1.236c0.406 0.019 0.656-0.2822 0.5555-0.6697" style="fill:#e7e8e9;stroke-width:.1809"/>
  </g>
  <g id="g114" transform="matrix(.7514 -.12248 .12248 .7514 92.5 105.27)">
   <path class="C-7" id="path13807-69-3" d="m516.5 209-0.9007-3.916c-0.09-0.3912 0.082-0.9388 0.3825-1.217l7.7-7.129c-0.3081-0.9165-0.5809-2.009-0.4817-2.197 0.4263-0.8046 2.749-1.56 3.548-1.155 0.0559 0.0283 0.1309 0.1432 0.2134 0.3149l1.65-1.527c-0.3184-0.9302-0.6076-2.075-0.5058-2.269 0.4261-0.8041 2.749-1.56 3.548-1.155 0.0628 0.0317 0.1491 0.1723 0.2452 0.3799l3.985-3.688c-0.6262-1.873-1.235-3.759-1.818-5.641-2.578-8.326-1.478-14 1.723-15.04l17.13 55.33c-0.6076 0.1982-1.437-0.397-2.424-1.628l-6.137 3.53c-0.3482 0.2153-0.7061 0.0721-0.7958-0.3194l-0.5778-2.871c-0.0899-0.3913 0.0823-0.9388 0.3827-1.217l4.158-3.823c-2.433-4.48-5.274-10.95-8.027-18.19l-22.2 13.76c-0.3482 0.2153-0.7061 0.072-0.796-0.3192" style="fill:#fff;stroke-width:.1809"/>
   <path class="C-7" id="path13797-3-8" d="m576.4 189.5-1.467-3.731c-0.1458-0.3727-0.5948-0.7182-0.9965-0.7675l-10.3-1.268c-0.2633-0.9314-0.6558-1.984-0.8416-2.078-0.8007-0.4052-3.123 0.3504-3.548 1.155-0.0297 0.0562-0.0256 0.195 2e-3 0.3837l-2.207-0.2718c-0.2629-0.9486-0.6702-2.056-0.8625-2.151-0.8007-0.4049-3.123 0.3509-3.548 1.155-0.0333 0.0629-0.0243 0.2291 0.0133 0.4554l-5.329-0.6562c-0.5415-1.9-1.105-3.801-1.688-5.683-2.578-8.326-6.668-12.31-9.867-11.27l17.13 55.33c0.6073-0.1983 0.95-1.174 1.064-2.765l6.998-0.7454c0.4056-0.0301 0.6174-0.3592 0.471-0.7316l-1.143-2.687c-0.1458-0.3731-0.5952-0.7182-0.9969-0.768l-5.545-0.6645c-0.5325-5.098-1.853-12.07-3.677-19.61l25.87-1.89c0.4054-0.03 0.6173-0.3591 0.4709-0.7316" style="fill:#e7e8e9;stroke-width:.1809"/>
  </g>
  <g id="g118" transform="matrix(.7769 -.16136 .16136 .7769 59.632 96.514)">
   <path class="C-8" id="path13807-9-1" d="m487.1 125.2-1.259-3.815c-0.1258-0.3812-5e-3 -0.9424 0.2683-1.247l7.008-7.81c-0.3916-0.8841-0.7643-1.947-0.6829-2.143 0.35-0.8406 2.592-1.808 3.426-1.478 0.0583 0.023 0.1436 0.1305 0.2416 0.2938l1.501-1.673c-0.4031-0.8968-0.797-2.01-0.7135-2.212 0.3499-0.8401 2.592-1.808 3.426-1.478 0.0654 0.0258 0.1644 0.1578 0.2793 0.3556l3.627-4.041c-0.7969-1.807-1.578-3.629-2.332-5.448-3.337-8.052-2.767-13.8 0.3234-15.14l22.17 53.5c-0.5867 0.2535-1.467-0.2624-2.565-1.397l-5.784 4.083c-0.3268 0.2466-0.6964 0.1371-0.822-0.2444l-0.8409-2.805c-0.1257-0.3813-5e-3 -0.9424 0.2685-1.247l3.786-4.191c-2.837-4.236-6.264-10.42-9.675-17.37l-20.83 15.75c-0.3268 0.2466-0.6964 0.1371-0.8222-0.2442" style="fill:#fff;stroke-width:.1809"/>
   <path class="C-8" id="path13797-43-06" d="m545 100.2-1.805-3.58c-0.1796-0.3577-0.6587-0.6601-1.063-0.672l-10.37-0.31c-0.3484-0.903-0.8366-1.915-1.03-1.991-0.8347-0.3294-3.077 0.6378-3.426 1.478-0.0244 0.0587-7e-3 0.1965 0.0373 0.3819l-2.222-0.06647c-0.3495-0.9202-0.8576-1.986-1.058-2.062-0.8348-0.3291-3.077 0.6383-3.426 1.478-0.0274 0.06576-3e-3 0.2303 0.0554 0.4523l-5.367-0.1603c-0.715-1.842-1.452-3.683-2.207-5.502-3.337-8.052-7.778-11.64-10.87-10.31l22.17 53.5c0.5864-0.2536 0.8374-1.257 0.8033-2.851l6.899-1.39c0.401-0.0675 0.5815-0.4148 0.4012-0.7721l-1.387-2.569c-0.1797-0.358-0.6591-0.6601-1.064-0.6725l-5.583-0.1486c-1.002-5.027-2.961-11.84-5.476-19.19l25.59-4.275c0.4008-0.0673 0.5815-0.4147 0.4012-0.7721" style="fill:#e7e8e9;stroke-width:.1809"/>
  </g>
  <g id="g122" transform="matrix(.7757 -.1714 .1714 .7757 55.108 85.723)">
   <path class="C-9"  id="path13807-9-3-5" d="m443.4 38.15-1.259-3.815c-0.1258-0.3811-5e-3 -0.9424 0.2683-1.247l7.008-7.81c-0.3916-0.8841-0.7643-1.947-0.6829-2.143 0.35-0.8406 2.592-1.808 3.426-1.478 0.0583 0.02299 0.1436 0.1305 0.2416 0.2938l1.501-1.673c-0.4031-0.8968-0.797-2.01-0.7135-2.212 0.3499-0.8401 2.592-1.808 3.426-1.478 0.0654 0.0258 0.1644 0.1578 0.2793 0.3556l3.627-4.041c-0.7969-1.807-1.578-3.629-2.332-5.448-3.337-8.052-2.767-13.8 0.3234-15.14l22.17 53.5c-0.5867 0.2535-1.467-0.2624-2.565-1.397l-5.784 4.083c-0.3268 0.2466-0.6964 0.1371-0.822-0.2444l-0.8409-2.805c-0.1257-0.3813-5e-3 -0.9424 0.2685-1.247l3.786-4.191c-2.837-4.236-6.264-10.42-9.675-17.37l-20.83 15.75c-0.3268 0.2466-0.6964 0.1371-0.8222-0.2441" style="fill:#fff;stroke-width:.1809"/>
   <path class="C-9"  id="path13797-43-0-5" d="m501.3 13.19-1.805-3.58c-0.1796-0.3577-0.6587-0.6601-1.063-0.672l-10.37-0.31c-0.3484-0.903-0.8366-1.915-1.03-1.991-0.8347-0.3294-3.077 0.6378-3.426 1.478-0.0244 0.0587-7e-3 0.1965 0.0373 0.3819l-2.222-0.06647c-0.3495-0.9202-0.8576-1.986-1.058-2.062-0.8348-0.3291-3.077 0.6383-3.426 1.478-0.0274 0.06576-3e-3 0.2303 0.0554 0.4523l-5.367-0.1603c-0.715-1.842-1.452-3.683-2.207-5.502-3.337-8.052-7.778-11.64-10.87-10.31l22.17 53.5c0.5864-0.2536 0.8374-1.257 0.8033-2.851l6.899-1.39c0.401-0.0675 0.5815-0.4148 0.4012-0.7721l-1.387-2.569c-0.1797-0.358-0.6591-0.6601-1.064-0.6725l-5.583-0.1486c-1.002-5.027-2.961-11.84-5.476-19.19l25.59-4.275c0.4008-0.0673 0.5815-0.4147 0.4012-0.7721" style="fill:#e7e8e9;stroke-width:.1809"/>
  </g>
 </g>
 <g id="planeD-icons" transform="matrix(.35316 -.12558 -.12558 -.35316 56.232 361.26)">
  <g id="g127" transform="rotate(237.7 614.32 239.64)">
   <path id="path13807-6-6-04" d="m546.4 681.8 1.256-3.816c0.1254-0.3813 0.5561-0.7608 0.957-0.8429l10.28-2.113c0.2108-0.9437 0.543-2.02 0.725-2.129 0.7812-0.4678 3.159 0.0876 3.634 0.8482 0.0332 0.0532 0.0379 0.1903 0.0196 0.3798l2.202-0.4525c0.2091-0.9607 0.5544-2.09 0.7415-2.203 0.7808-0.4674 3.159 0.088 3.634 0.8484 0.0373 0.0596 0.0384 0.2246 0.0132 0.452l5.318-1.093c0.4339-1.927 0.8889-3.856 1.364-5.767 2.104-8.458 5.983-12.74 9.26-11.98l-13.99 56.2c-0.6224-0.1449-1.024-1.083-1.231-2.648l-7.078-0.1563c-0.4094 4e-3 -0.6414-0.3038-0.5156-0.6852l0.9918-2.755c0.1256-0.3813 0.5564-0.7606 0.9574-0.8431l5.536-1.119c0.237-5.093 1.157-12.1 2.549-19.72l-26.12 0.2812c-0.4094 4e-3 -0.6414-0.3039-0.5159-0.6851" style="fill:#fff;stroke-width:.1809"/>
   <path id="path13797-6-4-8" d="m607.8 696.1 0.6766-3.952c0.0682-0.3944-0.1372-0.9224-0.4554-1.173l-8.156-6.417c0.2568-0.9332 0.4659-2.037 0.3555-2.214-0.4753-0.7612-2.853-1.317-3.634-0.8484-0.0545 0.0327-0.1228 0.1536-0.1971 0.3292l-1.747-1.375c0.266-0.9477 0.4911-2.106 0.3757-2.287-0.4755-0.7609-2.854-1.316-3.634-0.8485-0.0611 0.0366-0.1393 0.1834-0.2244 0.3966l-4.22-3.32c0.5202-1.906 1.022-3.825 1.497-5.736 2.104-8.458 0.6678-13.99-2.609-14.75l-13.99 56.2c0.6222 0.1447 1.42-0.5125 2.341-1.815l6.373 2.984c0.3626 0.1842 0.7142 0.0122 0.7817-0.3822l0.4128-2.89c0.0684-0.3947-0.1375-0.9226-0.4554-1.173l-4.401-3.439c2.183-4.638 4.661-11.28 7.005-18.68l23.11 11.77c0.3623 0.1842 0.7141 0.0123 0.7816-0.3822" style="fill:#e7e8e9;stroke-width:.1809"/>
  </g>
  <g id="g131" transform="translate(147.47 -31.205)">
   <path id="path13797-6-4-7-6" transform="rotate(239.3 479.9 362.8)" d="m607.8 696.1 0.6766-3.952c0.0682-0.3944-0.1372-0.9224-0.4554-1.173l-8.156-6.417c0.2568-0.9332 0.4659-2.037 0.3555-2.214-0.4753-0.7612-2.853-1.317-3.634-0.8484-0.0545 0.0327-0.1228 0.1536-0.1971 0.3292l-1.747-1.375c0.266-0.9477 0.4911-2.106 0.3757-2.287-0.4755-0.7609-2.854-1.316-3.634-0.8485-0.0611 0.0366-0.1393 0.1834-0.2244 0.3966l-4.22-3.32c0.5202-1.906 1.022-3.825 1.497-5.736 2.104-8.458 0.6678-13.99-2.609-14.75l-13.99 56.2c0.6222 0.1447 1.42-0.5125 2.341-1.815l6.373 2.984c0.3626 0.1842 0.7142 0.0122 0.7817-0.3822l0.4128-2.89c0.0684-0.3947-0.1375-0.9226-0.4554-1.173l-4.401-3.439c2.183-4.638 4.661-11.28 7.005-18.68l23.11 11.77c0.3623 0.1842 0.7141 0.0123 0.7816-0.3822" style="fill:#e7e8e9;stroke-width:.1809"/>
   <path id="path13807-6-6-0-85" transform="rotate(239.3 479.9 362.8)" d="m546.4 681.8 1.256-3.816c0.1254-0.3813 0.5561-0.7608 0.957-0.8429l10.28-2.113c0.2108-0.9437 0.543-2.02 0.725-2.129 0.7812-0.4678 3.159 0.0876 3.634 0.8482 0.0332 0.0532 0.0379 0.1903 0.0196 0.3798l2.202-0.4525c0.2091-0.9607 0.5544-2.09 0.7415-2.203 0.7808-0.4674 3.159 0.088 3.634 0.8484 0.0373 0.0596 0.0384 0.2246 0.0132 0.452l5.318-1.093c0.4339-1.927 0.8889-3.856 1.364-5.767 2.104-8.458 5.983-12.74 9.26-11.98l-13.99 56.2c-0.6224-0.1449-1.024-1.083-1.231-2.648l-7.078-0.1563c-0.4094 4e-3 -0.6414-0.3038-0.5156-0.6852l0.9918-2.755c0.1256-0.3813 0.5564-0.7606 0.9574-0.8431l5.536-1.119c0.237-5.093 1.157-12.1 2.549-19.72l-26.12 0.2812c-0.4094 4e-3 -0.6414-0.3039-0.5159-0.6851" style="fill:#fff;stroke-width:.1809"/>
  </g>
  <g id="g135" transform="rotate(246.5 439.57 374.85)">
   <path id="path13807-6-6-0-9-5" d="m546.4 681.8 1.256-3.816c0.1254-0.3813 0.5561-0.7608 0.957-0.8429l10.28-2.113c0.2108-0.9437 0.543-2.02 0.725-2.129 0.7812-0.4678 3.159 0.0876 3.634 0.8482 0.0332 0.0532 0.0379 0.1903 0.0196 0.3798l2.202-0.4525c0.2091-0.9607 0.5544-2.09 0.7415-2.203 0.7808-0.4674 3.159 0.088 3.634 0.8484 0.0373 0.0596 0.0384 0.2246 0.0132 0.452l5.318-1.093c0.4339-1.927 0.8889-3.856 1.364-5.767 2.104-8.458 5.983-12.74 9.26-11.98l-13.99 56.2c-0.6224-0.1449-1.024-1.083-1.231-2.648l-7.078-0.1563c-0.4094 4e-3 -0.6414-0.3038-0.5156-0.6852l0.9918-2.755c0.1256-0.3813 0.5564-0.7606 0.9574-0.8431l5.536-1.119c0.237-5.093 1.157-12.1 2.549-19.72l-26.12 0.2812c-0.4094 4e-3 -0.6414-0.3039-0.5159-0.6851" style="fill:#fff;stroke-width:.1809"/>
   <path id="path13797-6-4-7-3-8" d="m607.8 696.1 0.6766-3.952c0.0682-0.3944-0.1372-0.9224-0.4554-1.173l-8.156-6.417c0.2568-0.9332 0.4659-2.037 0.3555-2.214-0.4753-0.7612-2.853-1.317-3.634-0.8484-0.0545 0.0327-0.1228 0.1536-0.1971 0.3292l-1.747-1.375c0.266-0.9477 0.4911-2.106 0.3757-2.287-0.4755-0.7609-2.854-1.316-3.634-0.8485-0.0611 0.0366-0.1393 0.1834-0.2244 0.3966l-4.22-3.32c0.5202-1.906 1.022-3.825 1.497-5.736 2.104-8.458 0.6678-13.99-2.609-14.75l-13.99 56.2c0.6222 0.1447 1.42-0.5125 2.341-1.815l6.373 2.984c0.3626 0.1842 0.7142 0.0122 0.7817-0.3822l0.4128-2.89c0.0684-0.3947-0.1375-0.9226-0.4554-1.173l-4.401-3.439c2.183-4.638 4.661-11.28 7.005-18.68l23.11 11.77c0.3623 0.1842 0.7141 0.0123 0.7816-0.3822" style="fill:#e7e8e9;stroke-width:.1809"/>
  </g>
  <g id="g139" transform="rotate(251.56 358.42 432.39)">
   <path id="path13807-6-6-0-8-5" d="m546.4 681.8 1.256-3.816c0.1254-0.3813 0.5561-0.7608 0.957-0.8429l10.28-2.113c0.2108-0.9437 0.543-2.02 0.725-2.129 0.7812-0.4678 3.159 0.0876 3.634 0.8482 0.0332 0.0532 0.0379 0.1903 0.0196 0.3798l2.202-0.4525c0.2091-0.9607 0.5544-2.09 0.7415-2.203 0.7808-0.4674 3.159 0.088 3.634 0.8484 0.0373 0.0596 0.0384 0.2246 0.0132 0.452l5.318-1.093c0.4339-1.927 0.8889-3.856 1.364-5.767 2.104-8.458 5.983-12.74 9.26-11.98l-13.99 56.2c-0.6224-0.1449-1.024-1.083-1.231-2.648l-7.078-0.1563c-0.4094 4e-3 -0.6414-0.3038-0.5156-0.6852l0.9918-2.755c0.1256-0.3813 0.5564-0.7606 0.9574-0.8431l5.536-1.119c0.237-5.093 1.157-12.1 2.549-19.72l-26.12 0.2812c-0.4094 4e-3 -0.6414-0.3039-0.5159-0.6851" style="fill:#fff;stroke-width:.1809"/>
   <path id="path13797-6-4-7-2-0" d="m607.8 696.1 0.6766-3.952c0.0682-0.3944-0.1372-0.9224-0.4554-1.173l-8.156-6.417c0.2568-0.9332 0.4659-2.037 0.3555-2.214-0.4753-0.7612-2.853-1.317-3.634-0.8484-0.0545 0.0327-0.1228 0.1536-0.1971 0.3292l-1.747-1.375c0.266-0.9477 0.4911-2.106 0.3757-2.287-0.4755-0.7609-2.854-1.316-3.634-0.8485-0.0611 0.0366-0.1393 0.1834-0.2244 0.3966l-4.22-3.32c0.5202-1.906 1.022-3.825 1.497-5.736 2.104-8.458 0.6678-13.99-2.609-14.75l-13.99 56.2c0.6222 0.1447 1.42-0.5125 2.341-1.815l6.373 2.984c0.3626 0.1842 0.7142 0.0122 0.7817-0.3822l0.4128-2.89c0.0684-0.3947-0.1375-0.9226-0.4554-1.173l-4.401-3.439c2.183-4.638 4.661-11.28 7.005-18.68l23.11 11.77c0.3623 0.1842 0.7141 0.0123 0.7816-0.3822" style="fill:#e7e8e9;stroke-width:.1809"/>
  </g>
  <g id="g143" transform="rotate(255.3 256.17 507.71)">
   <path id="path13807-6-6-0-8-1-22" d="m546.4 681.8 1.256-3.816c0.1254-0.3813 0.5561-0.7608 0.957-0.8429l10.28-2.113c0.2108-0.9437 0.543-2.02 0.725-2.129 0.7812-0.4678 3.159 0.0876 3.634 0.8482 0.0332 0.0532 0.0379 0.1903 0.0196 0.3798l2.202-0.4525c0.2091-0.9607 0.5544-2.09 0.7415-2.203 0.7808-0.4674 3.159 0.088 3.634 0.8484 0.0373 0.0596 0.0384 0.2246 0.0132 0.452l5.318-1.093c0.4339-1.927 0.8889-3.856 1.364-5.767 2.104-8.458 5.983-12.74 9.26-11.98l-13.99 56.2c-0.6224-0.1449-1.024-1.083-1.231-2.648l-7.078-0.1563c-0.4094 4e-3 -0.6414-0.3038-0.5156-0.6852l0.9918-2.755c0.1256-0.3813 0.5564-0.7606 0.9574-0.8431l5.536-1.119c0.237-5.093 1.157-12.1 2.549-19.72l-26.12 0.2812c-0.4094 4e-3 -0.6414-0.3039-0.5159-0.6851" style="fill:#fff;stroke-width:.1809"/>
   <path id="path13797-6-4-7-2-1-14" d="m607.8 696.1 0.6766-3.952c0.0682-0.3944-0.1372-0.9224-0.4554-1.173l-8.156-6.417c0.2568-0.9332 0.4659-2.037 0.3555-2.214-0.4753-0.7612-2.853-1.317-3.634-0.8484-0.0545 0.0327-0.1228 0.1536-0.1971 0.3292l-1.747-1.375c0.266-0.9477 0.4911-2.106 0.3757-2.287-0.4755-0.7609-2.854-1.316-3.634-0.8485-0.0611 0.0366-0.1393 0.1834-0.2244 0.3966l-4.22-3.32c0.5202-1.906 1.022-3.825 1.497-5.736 2.104-8.458 0.6678-13.99-2.609-14.75l-13.99 56.2c0.6222 0.1447 1.42-0.5125 2.341-1.815l6.373 2.984c0.3626 0.1842 0.7142 0.0122 0.7817-0.3822l0.4128-2.89c0.0684-0.3947-0.1375-0.9226-0.4554-1.173l-4.401-3.439c2.183-4.638 4.661-11.28 7.005-18.68l23.11 11.77c0.3623 0.1842 0.7141 0.0123 0.7816-0.3822" style="fill:#e7e8e9;stroke-width:.1809"/>
  </g>
  <g id="g147" transform="rotate(258.4 178.46 563.49)">
   <path id="path13807-6-6-0-8-1-5-2" d="m546.4 681.8 1.256-3.816c0.1254-0.3813 0.5561-0.7608 0.957-0.8429l10.28-2.113c0.2108-0.9437 0.543-2.02 0.725-2.129 0.7812-0.4678 3.159 0.0876 3.634 0.8482 0.0332 0.0532 0.0379 0.1903 0.0196 0.3798l2.202-0.4525c0.2091-0.9607 0.5544-2.09 0.7415-2.203 0.7808-0.4674 3.159 0.088 3.634 0.8484 0.0373 0.0596 0.0384 0.2246 0.0132 0.452l5.318-1.093c0.4339-1.927 0.8889-3.856 1.364-5.767 2.104-8.458 5.983-12.74 9.26-11.98l-13.99 56.2c-0.6224-0.1449-1.024-1.083-1.231-2.648l-7.078-0.1563c-0.4094 4e-3 -0.6414-0.3038-0.5156-0.6852l0.9918-2.755c0.1256-0.3813 0.5564-0.7606 0.9574-0.8431l5.536-1.119c0.237-5.093 1.157-12.1 2.549-19.72l-26.12 0.2812c-0.4094 4e-3 -0.6414-0.3039-0.5159-0.6851" style="fill:#fff;stroke-width:.1809"/>
   <path id="path13797-6-4-7-2-1-5-5" d="m607.8 696.1 0.6766-3.952c0.0682-0.3944-0.1372-0.9224-0.4554-1.173l-8.156-6.417c0.2568-0.9332 0.4659-2.037 0.3555-2.214-0.4753-0.7612-2.853-1.317-3.634-0.8484-0.0545 0.0327-0.1228 0.1536-0.1971 0.3292l-1.747-1.375c0.266-0.9477 0.4911-2.106 0.3757-2.287-0.4755-0.7609-2.854-1.316-3.634-0.8485-0.0611 0.0366-0.1393 0.1834-0.2244 0.3966l-4.22-3.32c0.5202-1.906 1.022-3.825 1.497-5.736 2.104-8.458 0.6678-13.99-2.609-14.75l-13.99 56.2c0.6222 0.1447 1.42-0.5125 2.341-1.815l6.373 2.984c0.3626 0.1842 0.7142 0.0122 0.7817-0.3822l0.4128-2.89c0.0684-0.3947-0.1375-0.9226-0.4554-1.173l-4.401-3.439c2.183-4.638 4.661-11.28 7.005-18.68l23.11 11.77c0.3623 0.1842 0.7141 0.0123 0.7816-0.3822" style="fill:#e7e8e9;stroke-width:.1809"/>
  </g>
  <g id="g151" transform="rotate(260.3 99.805 618.15)">
   <path id="path13807-6-6-0-8-1-52-4" d="m546.4 681.8 1.256-3.816c0.1254-0.3813 0.5561-0.7608 0.957-0.8429l10.28-2.113c0.2108-0.9437 0.543-2.02 0.725-2.129 0.7812-0.4678 3.159 0.0876 3.634 0.8482 0.0332 0.0532 0.0379 0.1903 0.0196 0.3798l2.202-0.4525c0.2091-0.9607 0.5544-2.09 0.7415-2.203 0.7808-0.4674 3.159 0.088 3.634 0.8484 0.0373 0.0596 0.0384 0.2246 0.0132 0.452l5.318-1.093c0.4339-1.927 0.8889-3.856 1.364-5.767 2.104-8.458 5.983-12.74 9.26-11.98l-13.99 56.2c-0.6224-0.1449-1.024-1.083-1.231-2.648l-7.078-0.1563c-0.4094 4e-3 -0.6414-0.3038-0.5156-0.6852l0.9918-2.755c0.1256-0.3813 0.5564-0.7606 0.9574-0.8431l5.536-1.119c0.237-5.093 1.157-12.1 2.549-19.72l-26.12 0.2812c-0.4094 4e-3 -0.6414-0.3039-0.5159-0.6851" style="fill:#fff;stroke-width:.1809"/>
   <path id="path13797-6-4-7-2-1-1-6" d="m607.8 696.1 0.6766-3.952c0.0682-0.3944-0.1372-0.9224-0.4554-1.173l-8.156-6.417c0.2568-0.9332 0.4659-2.037 0.3555-2.214-0.4753-0.7612-2.853-1.317-3.634-0.8484-0.0545 0.0327-0.1228 0.1536-0.1971 0.3292l-1.747-1.375c0.266-0.9477 0.4911-2.106 0.3757-2.287-0.4755-0.7609-2.854-1.316-3.634-0.8485-0.0611 0.0366-0.1393 0.1834-0.2244 0.3966l-4.22-3.32c0.5202-1.906 1.022-3.825 1.497-5.736 2.104-8.458 0.6678-13.99-2.609-14.75l-13.99 56.2c0.6222 0.1447 1.42-0.5125 2.341-1.815l6.373 2.984c0.3626 0.1842 0.7142 0.0122 0.7817-0.3822l0.4128-2.89c0.0684-0.3947-0.1375-0.9226-0.4554-1.173l-4.401-3.439c2.183-4.638 4.661-11.28 7.005-18.68l23.11 11.77c0.3623 0.1842 0.7141 0.0123 0.7816-0.3822" style="fill:#e7e8e9;stroke-width:.1809"/>
  </g>
  <g id="g155" transform="rotate(265.7 14.963 683.49)">
   <path id="path13807-6-6-0-8-1-7-0" d="m546.4 681.8 1.256-3.816c0.1254-0.3813 0.5561-0.7608 0.957-0.8429l10.28-2.113c0.2108-0.9437 0.543-2.02 0.725-2.129 0.7812-0.4678 3.159 0.0876 3.634 0.8482 0.0332 0.0532 0.0379 0.1903 0.0196 0.3798l2.202-0.4525c0.2091-0.9607 0.5544-2.09 0.7415-2.203 0.7808-0.4674 3.159 0.088 3.634 0.8484 0.0373 0.0596 0.0384 0.2246 0.0132 0.452l5.318-1.093c0.4339-1.927 0.8889-3.856 1.364-5.767 2.104-8.458 5.983-12.74 9.26-11.98l-13.99 56.2c-0.6224-0.1449-1.024-1.083-1.231-2.648l-7.078-0.1563c-0.4094 4e-3 -0.6414-0.3038-0.5156-0.6852l0.9918-2.755c0.1256-0.3813 0.5564-0.7606 0.9574-0.8431l5.536-1.119c0.237-5.093 1.157-12.1 2.549-19.72l-26.12 0.2812c-0.4094 4e-3 -0.6414-0.3039-0.5159-0.6851" style="fill:#fff;stroke-width:.1809"/>
   <path id="path13797-6-4-7-2-1-3-1" d="m607.8 696.1 0.6766-3.952c0.0682-0.3944-0.1372-0.9224-0.4554-1.173l-8.156-6.417c0.2568-0.9332 0.4659-2.037 0.3555-2.214-0.4753-0.7612-2.853-1.317-3.634-0.8484-0.0545 0.0327-0.1228 0.1536-0.1971 0.3292l-1.747-1.375c0.266-0.9477 0.4911-2.106 0.3757-2.287-0.4755-0.7609-2.854-1.316-3.634-0.8485-0.0611 0.0366-0.1393 0.1834-0.2244 0.3966l-4.22-3.32c0.5202-1.906 1.022-3.825 1.497-5.736 2.104-8.458 0.6678-13.99-2.609-14.75l-13.99 56.2c0.6222 0.1447 1.42-0.5125 2.341-1.815l6.373 2.984c0.3626 0.1842 0.7142 0.0122 0.7817-0.3822l0.4128-2.89c0.0684-0.3947-0.1375-0.9226-0.4554-1.173l-4.401-3.439c2.183-4.638 4.661-11.28 7.005-18.68l23.11 11.77c0.3623 0.1842 0.7141 0.0123 0.7816-0.3822" style="fill:#e7e8e9;stroke-width:.1809"/>
  </g>
  <g id="g159" transform="rotate(269 -63.938 736.59)">
   <path id="path13807-6-6-0-8-1-2-6" d="m546.4 681.8 1.256-3.816c0.1254-0.3813 0.5561-0.7608 0.957-0.8429l10.28-2.113c0.2108-0.9437 0.543-2.02 0.725-2.129 0.7812-0.4678 3.159 0.0876 3.634 0.8482 0.0332 0.0532 0.0379 0.1903 0.0196 0.3798l2.202-0.4525c0.2091-0.9607 0.5544-2.09 0.7415-2.203 0.7808-0.4674 3.159 0.088 3.634 0.8484 0.0373 0.0596 0.0384 0.2246 0.0132 0.452l5.318-1.093c0.4339-1.927 0.8889-3.856 1.364-5.767 2.104-8.458 5.983-12.74 9.26-11.98l-13.99 56.2c-0.6224-0.1449-1.024-1.083-1.231-2.648l-7.078-0.1563c-0.4094 4e-3 -0.6414-0.3038-0.5156-0.6852l0.9918-2.755c0.1256-0.3813 0.5564-0.7606 0.9574-0.8431l5.536-1.119c0.237-5.093 1.157-12.1 2.549-19.72l-26.12 0.2812c-0.4094 4e-3 -0.6414-0.3039-0.5159-0.6851" style="fill:#fff;stroke-width:.1809"/>
   <path id="path13797-6-4-7-2-1-4-8" d="m607.8 696.1 0.6766-3.952c0.0682-0.3944-0.1372-0.9224-0.4554-1.173l-8.156-6.417c0.2568-0.9332 0.4659-2.037 0.3555-2.214-0.4753-0.7612-2.853-1.317-3.634-0.8484-0.0545 0.0327-0.1228 0.1536-0.1971 0.3292l-1.747-1.375c0.266-0.9477 0.4911-2.106 0.3757-2.287-0.4755-0.7609-2.854-1.316-3.634-0.8485-0.0611 0.0366-0.1393 0.1834-0.2244 0.3966l-4.22-3.32c0.5202-1.906 1.022-3.825 1.497-5.736 2.104-8.458 0.6678-13.99-2.609-14.75l-13.99 56.2c0.6222 0.1447 1.42-0.5125 2.341-1.815l6.373 2.984c0.3626 0.1842 0.7142 0.0122 0.7817-0.3822l0.4128-2.89c0.0684-0.3947-0.1375-0.9226-0.4554-1.173l-4.401-3.439c2.183-4.638 4.661-11.28 7.005-18.68l23.11 11.77c0.3623 0.1842 0.7141 0.0123 0.7816-0.3822" style="fill:#e7e8e9;stroke-width:.1809"/>
  </g>
 </g>
 <g id="planeE-icons" transform="matrix(-.4249 .346 -.346 -.4249 509.15 146.15)">
  <g id="g164" transform="matrix(.46691 .0083292 -.0083292 .46691 301.65 409.42)">
   <path id="path13807-3" d="m529.8 767.4 1.256-3.816c0.1254-0.3813 0.5561-0.7608 0.957-0.8429l10.28-2.113c0.2108-0.9437 0.543-2.02 0.725-2.129 0.7812-0.4678 3.159 0.0876 3.634 0.8482 0.0332 0.0532 0.0379 0.1903 0.0196 0.3798l2.202-0.4525c0.2091-0.9607 0.5544-2.09 0.7415-2.203 0.7808-0.4674 3.159 0.088 3.634 0.8484 0.0373 0.0596 0.0384 0.2246 0.0132 0.452l5.318-1.093c0.4339-1.927 0.8889-3.856 1.364-5.767 2.104-8.458 5.983-12.74 9.26-11.98l-13.99 56.2c-0.6224-0.1449-1.024-1.083-1.231-2.648l-7.078-0.1563c-0.4094 4e-3 -0.6414-0.3038-0.5156-0.6852l0.9918-2.755c0.1256-0.3813 0.5564-0.7606 0.9574-0.8431l5.536-1.119c0.237-5.093 1.157-12.1 2.549-19.72l-26.12 0.2812c-0.4094 4e-3 -0.6414-0.3039-0.5159-0.6851" style="fill:#fff"/>
   <path id="path13797-1" d="m591.2 781.7 0.6766-3.952c0.0682-0.3944-0.1372-0.9224-0.4554-1.173l-8.156-6.417c0.2568-0.9332 0.4659-2.037 0.3555-2.214-0.4753-0.7612-2.853-1.317-3.634-0.8484-0.0545 0.0327-0.1228 0.1536-0.1971 0.3292l-1.747-1.375c0.266-0.9477 0.4911-2.106 0.3757-2.287-0.4755-0.7609-2.854-1.316-3.634-0.8485-0.0611 0.0366-0.1393 0.1834-0.2244 0.3966l-4.22-3.32c0.5202-1.906 1.022-3.825 1.497-5.736 2.104-8.458 0.6678-13.99-2.609-14.75l-13.99 56.2c0.6222 0.1447 1.42-0.5125 2.341-1.815l6.373 2.984c0.3626 0.1842 0.7142 0.0122 0.7817-0.3822l0.4128-2.89c0.0684-0.3947-0.1375-0.9226-0.4554-1.173l-4.401-3.439c2.183-4.638 4.661-11.28 7.005-18.68l23.11 11.77c0.3623 0.1842 0.7141 0.0123 0.7816-0.3822" style="fill:#e7e8e9;stroke-width:.1809"/>
  </g>
  <g id="g168" transform="matrix(.57797 -.035283 .035283 .57797 211.7 346.38)">
   <path id="path13807-6-1" d="m546.4 681.8 1.256-3.816c0.1254-0.3813 0.5561-0.7608 0.957-0.8429l10.28-2.113c0.2108-0.9437 0.543-2.02 0.725-2.129 0.7812-0.4678 3.159 0.0876 3.634 0.8482 0.0332 0.0532 0.0379 0.1903 0.0196 0.3798l2.202-0.4525c0.2091-0.9607 0.5544-2.09 0.7415-2.203 0.7808-0.4674 3.159 0.088 3.634 0.8484 0.0373 0.0596 0.0384 0.2246 0.0132 0.452l5.318-1.093c0.4339-1.927 0.8889-3.856 1.364-5.767 2.104-8.458 5.983-12.74 9.26-11.98l-13.99 56.2c-0.6224-0.1449-1.024-1.083-1.231-2.648l-7.078-0.1563c-0.4094 4e-3 -0.6414-0.3038-0.5156-0.6852l0.9918-2.755c0.1256-0.3813 0.5564-0.7606 0.9574-0.8431l5.536-1.119c0.237-5.093 1.157-12.1 2.549-19.72l-26.12 0.2812c-0.4094 4e-3 -0.6414-0.3039-0.5159-0.6851" style="fill:#fff;stroke-width:.1809"/>
   <path id="path13797-6-8" d="m607.8 696.1 0.6766-3.952c0.0682-0.3944-0.1372-0.9224-0.4554-1.173l-8.156-6.417c0.2568-0.9332 0.4659-2.037 0.3555-2.214-0.4753-0.7612-2.853-1.317-3.634-0.8484-0.0545 0.0327-0.1228 0.1536-0.1971 0.3292l-1.747-1.375c0.266-0.9477 0.4911-2.106 0.3757-2.287-0.4755-0.7609-2.854-1.316-3.634-0.8485-0.0611 0.0366-0.1393 0.1834-0.2244 0.3966l-4.22-3.32c0.5202-1.906 1.022-3.825 1.497-5.736 2.104-8.458 0.6678-13.99-2.609-14.75l-13.99 56.2c0.6222 0.1447 1.42-0.5125 2.341-1.815l6.373 2.984c0.3626 0.1842 0.7142 0.0122 0.7817-0.3822l0.4128-2.89c0.0684-0.3947-0.1375-0.9226-0.4554-1.173l-4.401-3.439c2.183-4.638 4.661-11.28 7.005-18.68l23.11 11.77c0.3623 0.1842 0.7141 0.0123 0.7816-0.3822" style="fill:#e7e8e9;stroke-width:.1809"/>
  </g>
  <g id="g172" transform="matrix(.70972 .031025 -.031025 .70972 181.56 231.23)">
   <path id="path13807-4-9" d="m555.5 592.2 0.7967-3.938c0.0795-0.3934 0.4624-0.8212 0.8508-0.95l9.957-3.312c0.0979-0.962 0.3007-2.07 0.4685-2.2 0.7205-0.5568 3.148-0.2861 3.708 0.4131 0.0393 0.0489 0.0601 0.1845 0.0643 0.3749l2.133-0.7094c0.0942-0.9787 0.3037-2.141 0.4762-2.275 0.7202-0.5564 3.147-0.2857 3.708 0.4134 0.0441 0.0548 0.0647 0.2185 0.0665 0.4473l5.152-1.713c0.2033-1.965 0.4273-3.934 0.6738-5.888 1.091-8.647 4.436-13.36 7.781-12.99l-7.251 57.46c-0.6352-0.0704-1.144-0.9548-1.536-2.484l-7.047 0.6807c-0.406 0.0523-0.6728-0.226-0.5929-0.6195l0.6594-2.853c0.0797-0.3935 0.4626-0.821 0.8511-0.9503l5.365-1.765c-0.3661-5.085-0.2798-12.15 0.2024-19.88l-25.9 3.363c-0.406 0.0523-0.6728-0.226-0.5932-0.6194" style="fill:#fff;stroke-width:.1809"/>
   <path id="path13797-0-0" d="m618.2 599.2 0.2052-4.004c0.0211-0.3997-0.2451-0.8997-0.5906-1.111l-8.857-5.409c0.1448-0.957 0.2221-2.078 0.0916-2.24-0.5619-0.6997-2.989-0.9706-3.708-0.4134-0.0503 0.0389-0.1038 0.167-0.1568 0.3502l-1.897-1.159c0.1523-0.9724 0.2389-2.15 0.103-2.316-0.562-0.6995-2.989-0.9701-3.708-0.4134-0.0563 0.0436-0.1167 0.1986-0.176 0.4203l-4.583-2.798c0.2915-1.954 0.5631-3.919 0.8092-5.873 1.091-8.647-0.9884-13.97-4.333-14.34l-7.251 57.46c0.635 0.0702 1.35-0.6766 2.11-2.079l6.681 2.211c0.3818 0.1401 0.7106-0.0722 0.7311-0.4719l0.0685-2.919c0.0213-0.4-0.2455-0.9-0.5908-1.111l-4.776-2.895c1.62-4.863 3.296-11.75 4.75-19.38l24.34 8.963c0.3816 0.1401 0.7105-0.0721 0.731-0.4719" style="fill:#e7e8e9;stroke-width:.1809"/>
  </g>
  <g id="g176" transform="matrix(.88236 -.031493 .031493 .88236 64.187 113.62)">
   <path id="path13807-0-2" d="m555.7 484.7 0.5796-3.976c0.0579-0.3972 0.4166-0.8453 0.7974-0.9952l9.76-3.853c0.045-0.9659 0.1868-2.083 0.3472-2.222 0.6889-0.5954 3.127-0.4582 3.725 0.2092 0.0419 0.0467 0.0701 0.181 0.0848 0.3708l2.091-0.8252c0.0404-0.9824 0.1859-2.155 0.3508-2.298 0.6886-0.595 3.127-0.4578 3.725 0.2095 0.047 0.0523 0.0765 0.2146 0.0909 0.4429l5.05-1.993c0.0953-1.973 0.2111-3.951 0.3501-5.916 0.6152-8.694 3.697-13.58 7.057-13.4l-4.09 57.77c-0.6381-0.0355-1.195-0.8907-1.669-2.396l-6.999 1.066c-0.4025 0.0745-0.6842-0.1888-0.626-0.5861l0.502-2.885c0.058-0.3973 0.4169-0.8451 0.7978-0.9955l5.26-2.056c-0.6442-5.057-0.9455-12.12-0.8877-19.86l-25.68 4.778c-0.4026 0.0745-0.6842-0.1888-0.6262-0.586" style="fill:#fff;stroke-width:.1809"/>
   <path id="path13797-5-3" d="m618.6 488.3-0.0146-4.009c-7.9e-4 -0.4003-0.2941-0.8849-0.6506-1.076l-9.14-4.915c0.0921-0.9635 0.1079-2.087-0.0313-2.242-0.5994-0.6678-3.038-0.8053-3.725-0.2095-0.048 0.0416-0.0945 0.1724-0.1374 0.3583l-1.958-1.053c0.0987-0.9793 0.1207-2.159-0.0241-2.318-0.5995-0.6676-3.038-0.8048-3.725-0.2095-0.0539 0.0466-0.1056 0.2047-0.1527 0.4293l-4.729-2.543c0.1839-1.967 0.3474-3.944 0.4862-5.908 0.6152-8.694-1.752-13.89-5.112-14.08l-4.09 57.77c0.6379 0.0353 1.311-0.7496 1.993-2.191l6.792 1.841c0.3889 0.1189 0.7056-0.1111 0.7041-0.5112l-0.0915-2.918c-6.4e-4 -0.4006-0.2944-0.8851-0.6508-1.077l-4.928-2.629c1.351-4.944 2.646-11.92 3.681-19.61l24.8 7.615c0.3887 0.119 0.7055-0.111 0.704-0.5112" style="fill:#e7e8e9;stroke-width:.1809"/>
  </g>
  <g id="g180" transform="matrix(1.0103 .046116 -.046116 1.0103 28.113 20.207)">
   <path id="path13807-08-7" d="m551.6 385.4-0.2138-4.012c-0.0214-0.4008 0.2422-0.9107 0.5861-1.133l8.812-5.698c-0.1459-0.9559-0.2266-2.079-0.0967-2.247 0.5583-0.7193 2.976-1.064 3.694-0.5277 0.0502 0.0375 0.1044 0.1636 0.1561 0.3469l1.888-1.22c-0.1536-0.9712-0.2416-2.149-0.1081-2.322 0.5581-0.7189 2.976-1.064 3.694-0.5274 0.0564 0.042 0.1173 0.1954 0.1763 0.4164l4.56-2.947c-0.2947-1.953-0.5704-3.916-0.8206-5.869-1.107-8.645 0.9522-14.05 4.284-14.52l7.355 57.45c-0.6326 0.0907-1.347-0.6382-2.108-2.021l-6.653 2.422c-0.38 0.1522-0.708-0.0505-0.7291-0.4515l-0.0753-2.928c-0.0213-0.4009 0.2425-0.9106 0.5863-1.133l4.753-3.051c-1.627-4.832-3.311-11.7-4.778-19.3l-24.23 9.736c-0.38 0.1522-0.708-0.0505-0.7293-0.4513" style="fill:#fff;stroke-width:.1809"/>
   <path id="path13797-4-9" d="m614 376.5-0.803-3.928c-0.0795-0.3923-0.4624-0.8098-0.8497-0.9274l-9.928-3.021c-0.0992-0.9628-0.3048-2.067-0.4717-2.192-0.7191-0.5369-3.137-0.192-3.694 0.5274-0.0389 0.0503-0.0588 0.1876-0.0642 0.3783l-2.127-0.6472c-0.0958-0.9796-0.3065-2.141-0.4796-2.268-0.7192-0.5366-3.137-0.1915-3.694 0.5274-0.0437 0.0563-0.0633 0.2215-0.0652 0.4509l-5.137-1.563c-0.2066-1.965-0.4352-3.935-0.6856-5.888-1.107-8.645-4.451-13.27-7.782-12.8l7.355 57.45c0.6324-0.0909 1.138-0.9928 1.523-2.54l7.022 0.4692c0.4047 0.0401 0.67-0.2477 0.5898-0.6398l-0.6639-2.843c-0.0794-0.3926-0.4628-0.8099-0.85-0.928l-5.349-1.608c0.3522-5.114 0.2502-12.2-0.2494-19.95l25.81 2.588c0.4045 0.0402 0.6699-0.2476 0.5897-0.6397" style="fill:#e7e8e9;stroke-width:.1809"/>
  </g>
  <g id="g184" transform="matrix(1.0735 -.00077524 .00077524 1.0735 -17.483 17.679)">
   <path id="path13807-5-7" d="m537.1 295.4-0.4231-3.995c-0.0423-0.3992 0.1943-0.9221 0.5261-1.162l8.502-6.15c-0.1956-0.947-0.3349-2.065-0.2139-2.239 0.52-0.7475 2.916-1.218 3.661-0.72 0.0521 0.0349 0.1128 0.158 0.174 0.3382l1.821-1.317c-0.2042-0.9618-0.3535-2.133-0.2292-2.313 0.5198-0.747 2.916-1.218 3.661-0.7197 0.0584 0.039 0.1273 0.189 0.1978 0.4066l4.4-3.182c-0.3963-1.935-0.7741-3.881-1.126-5.818-1.557-8.575 0.2173-14.08 3.52-14.73l10.35 56.98c-0.627 0.1236-1.378-0.567-2.211-1.908l-6.517 2.766c-0.3716 0.1719-0.7096-0.0134-0.7517-0.4128l-0.2282-2.92c-0.0422-0.3993 0.1946-0.9221 0.5263-1.162l4.587-3.295c-1.877-4.74-3.918-11.51-5.78-19.03l-23.69 10.99c-0.3716 0.1719-0.7096-0.0134-0.7519-0.4126" style="fill:#fff;stroke-width:.1809"/>
   <path id="path13797-54-3" d="m599 283.3-1.007-3.881c-0.0999-0.3876-0.5041-0.7845-0.897-0.8818l-10.07-2.498c-0.1494-0.9563-0.4124-2.049-0.5855-2.164-0.7461-0.4986-3.143-0.0279-3.661 0.7197-0.0362 0.0523-0.0489 0.1905-0.0443 0.3812l-2.158-0.5353c-0.1469-0.9733-0.4179-2.122-0.5974-2.24-0.7462-0.4983-3.143-0.0274-3.661 0.7197-0.0407 0.0585-0.0516 0.2245-0.0416 0.4537l-5.212-1.293c-0.309-1.951-0.6401-3.907-0.9923-5.844-1.557-8.575-5.138-13.02-8.44-12.37l10.35 56.98c0.6267-0.1238 1.084-1.051 1.389-2.617l7.036 0.1018c0.4062 0.0189 0.6561-0.2824 0.5555-0.6697l-0.8114-2.805c-0.0998-0.3879-0.5045-0.7846-0.8973-0.8824l-5.425-1.327c0.0847-5.125-0.3877-12.2-1.291-19.91l25.91 1.236c0.406 0.019 0.656-0.2822 0.5555-0.6697" style="fill:#e7e8e9;stroke-width:.1809"/>
  </g>
  <g id="g188" transform="matrix(1.1363 .024225 -.024225 1.1363 -46.673 -15.992)">
   <path id="path13807-69-7" d="m516.5 209-0.9007-3.916c-0.09-0.3912 0.082-0.9388 0.3825-1.217l7.7-7.129c-0.3081-0.9165-0.5809-2.009-0.4817-2.197 0.4263-0.8046 2.749-1.56 3.548-1.155 0.0559 0.0283 0.1309 0.1432 0.2134 0.3149l1.65-1.527c-0.3184-0.9302-0.6076-2.075-0.5058-2.269 0.4261-0.8041 2.749-1.56 3.548-1.155 0.0628 0.0317 0.1491 0.1723 0.2452 0.3799l3.985-3.688c-0.6262-1.873-1.235-3.759-1.818-5.641-2.578-8.326-1.478-14 1.723-15.04l17.13 55.33c-0.6076 0.1982-1.437-0.397-2.424-1.628l-6.137 3.53c-0.3482 0.2153-0.7061 0.0721-0.7958-0.3194l-0.5778-2.871c-0.0899-0.3913 0.0823-0.9388 0.3827-1.217l4.158-3.823c-2.433-4.48-5.274-10.95-8.027-18.19l-22.2 13.76c-0.3482 0.2153-0.7061 0.072-0.796-0.3192" style="fill:#fff;stroke-width:.1809"/>
   <path id="path13797-3-1" d="m576.4 189.5-1.467-3.731c-0.1458-0.3727-0.5948-0.7182-0.9965-0.7675l-10.3-1.268c-0.2633-0.9314-0.6558-1.984-0.8416-2.078-0.8007-0.4052-3.123 0.3504-3.548 1.155-0.0297 0.0562-0.0256 0.195 2e-3 0.3837l-2.207-0.2718c-0.2629-0.9486-0.6702-2.056-0.8625-2.151-0.8007-0.4049-3.123 0.3509-3.548 1.155-0.0333 0.0629-0.0243 0.2291 0.0133 0.4554l-5.329-0.6562c-0.5415-1.9-1.105-3.801-1.688-5.683-2.578-8.326-6.668-12.31-9.867-11.27l17.13 55.33c0.6073-0.1983 0.95-1.174 1.064-2.765l6.998-0.7454c0.4056-0.0301 0.6174-0.3592 0.471-0.7316l-1.143-2.687c-0.1458-0.3731-0.5952-0.7182-0.9969-0.768l-5.545-0.6645c-0.5325-5.098-1.853-12.07-3.677-19.61l25.87-1.89c0.4054-0.03 0.6173-0.3591 0.4709-0.7316" style="fill:#e7e8e9;stroke-width:.1809"/>
  </g>
  <g id="g192" transform="matrix(1.1985 0 0 1.1985 -82.946 -11.607)">
   <path id="path13807-9-9" d="m487.1 125.2-1.259-3.815c-0.1258-0.3812-5e-3 -0.9424 0.2683-1.247l7.008-7.81c-0.3916-0.8841-0.7643-1.947-0.6829-2.143 0.35-0.8406 2.592-1.808 3.426-1.478 0.0583 0.023 0.1436 0.1305 0.2416 0.2938l1.501-1.673c-0.4031-0.8968-0.797-2.01-0.7135-2.212 0.3499-0.8401 2.592-1.808 3.426-1.478 0.0654 0.0258 0.1644 0.1578 0.2793 0.3556l3.627-4.041c-0.7969-1.807-1.578-3.629-2.332-5.448-3.337-8.052-2.767-13.8 0.3234-15.14l22.17 53.5c-0.5867 0.2535-1.467-0.2624-2.565-1.397l-5.784 4.083c-0.3268 0.2466-0.6964 0.1371-0.822-0.2444l-0.8409-2.805c-0.1257-0.3813-5e-3 -0.9424 0.2685-1.247l3.786-4.191c-2.837-4.236-6.264-10.42-9.675-17.37l-20.83 15.75c-0.3268 0.2466-0.6964 0.1371-0.8222-0.2442" style="fill:#fff;stroke-width:.1809"/>
   <path id="path13797-43-1" d="m545 100.2-1.805-3.58c-0.1796-0.3577-0.6587-0.6601-1.063-0.672l-10.37-0.31c-0.3484-0.903-0.8366-1.915-1.03-1.991-0.8347-0.3294-3.077 0.6378-3.426 1.478-0.0244 0.0587-7e-3 0.1965 0.0373 0.3819l-2.222-0.06647c-0.3495-0.9202-0.8576-1.986-1.058-2.062-0.8348-0.3291-3.077 0.6383-3.426 1.478-0.0274 0.06576-3e-3 0.2303 0.0554 0.4523l-5.367-0.1603c-0.715-1.842-1.452-3.683-2.207-5.502-3.337-8.052-7.778-11.64-10.87-10.31l22.17 53.5c0.5864-0.2536 0.8374-1.257 0.8033-2.851l6.899-1.39c0.401-0.0675 0.5815-0.4148 0.4012-0.7721l-1.387-2.569c-0.1797-0.358-0.6591-0.6601-1.064-0.6725l-5.583-0.1486c-1.002-5.027-2.961-11.84-5.476-19.19l25.59-4.275c0.4008-0.0673 0.5815-0.4147 0.4012-0.7721" style="fill:#e7e8e9;stroke-width:.1809"/>
  </g>
  <g id="g196" transform="matrix(1.2607 -.15391 .15391 1.2607 -108.13 65.851)">
   <path id="path13807-9-3-6" d="m443.4 38.15-1.259-3.815c-0.1258-0.3811-5e-3 -0.9424 0.2683-1.247l7.008-7.81c-0.3916-0.8841-0.7643-1.947-0.6829-2.143 0.35-0.8406 2.592-1.808 3.426-1.478 0.0583 0.02299 0.1436 0.1305 0.2416 0.2938l1.501-1.673c-0.4031-0.8968-0.797-2.01-0.7135-2.212 0.3499-0.8401 2.592-1.808 3.426-1.478 0.0654 0.0258 0.1644 0.1578 0.2793 0.3556l3.627-4.041c-0.7969-1.807-1.578-3.629-2.332-5.448-3.337-8.052-2.767-13.8 0.3234-15.14l22.17 53.5c-0.5867 0.2535-1.467-0.2624-2.565-1.397l-5.784 4.083c-0.3268 0.2466-0.6964 0.1371-0.822-0.2444l-0.8409-2.805c-0.1257-0.3813-5e-3 -0.9424 0.2685-1.247l3.786-4.191c-2.837-4.236-6.264-10.42-9.675-17.37l-20.83 15.75c-0.3268 0.2466-0.6964 0.1371-0.8222-0.2441" style="fill:#fff;stroke-width:.1809"/>
   <path id="path13797-43-0-6" d="m501.3 13.19-1.805-3.58c-0.1796-0.3577-0.6587-0.6601-1.063-0.672l-10.37-0.31c-0.3484-0.903-0.8366-1.915-1.03-1.991-0.8347-0.3294-3.077 0.6378-3.426 1.478-0.0244 0.0587-7e-3 0.1965 0.0373 0.3819l-2.222-0.06647c-0.3495-0.9202-0.8576-1.986-1.058-2.062-0.8348-0.3291-3.077 0.6383-3.426 1.478-0.0274 0.06576-3e-3 0.2303 0.0554 0.4523l-5.367-0.1603c-0.715-1.842-1.452-3.683-2.207-5.502-3.337-8.052-7.778-11.64-10.87-10.31l22.17 53.5c0.5864-0.2536 0.8374-1.257 0.8033-2.851l6.899-1.39c0.401-0.0675 0.5815-0.4148 0.4012-0.7721l-1.387-2.569c-0.1797-0.358-0.6591-0.6601-1.064-0.6725l-5.583-0.1486c-1.002-5.027-2.961-11.84-5.476-19.19l25.59-4.275c0.4008-0.0673 0.5815-0.4147 0.4012-0.7721" style="fill:#e7e8e9;stroke-width:.1809"/>
  </g>
  <g id="g200" transform="matrix(1.3017 -.28618 .28618 1.3017 -197.93 15.743)">
   <path id="path13807-9-3-6-2" d="m443.4 38.15-1.259-3.815c-0.1258-0.3811-5e-3 -0.9424 0.2683-1.247l7.008-7.81c-0.3916-0.8841-0.7643-1.947-0.6829-2.143 0.35-0.8406 2.592-1.808 3.426-1.478 0.0583 0.02299 0.1436 0.1305 0.2416 0.2938l1.501-1.673c-0.4031-0.8968-0.797-2.01-0.7135-2.212 0.3499-0.8401 2.592-1.808 3.426-1.478 0.0654 0.0258 0.1644 0.1578 0.2793 0.3556l3.627-4.041c-0.7969-1.807-1.578-3.629-2.332-5.448-3.337-8.052-2.767-13.8 0.3234-15.14l22.17 53.5c-0.5867 0.2535-1.467-0.2624-2.565-1.397l-5.784 4.083c-0.3268 0.2466-0.6964 0.1371-0.822-0.2444l-0.8409-2.805c-0.1257-0.3813-5e-3 -0.9424 0.2685-1.247l3.786-4.191c-2.837-4.236-6.264-10.42-9.675-17.37l-20.83 15.75c-0.3268 0.2466-0.6964 0.1371-0.8222-0.2441" style="fill:#fff;stroke-width:.1809"/>
   <path id="path13797-43-0-6-3" d="m501.3 13.19-1.805-3.58c-0.1796-0.3577-0.6587-0.6601-1.063-0.672l-10.37-0.31c-0.3484-0.903-0.8366-1.915-1.03-1.991-0.8347-0.3294-3.077 0.6378-3.426 1.478-0.0244 0.0587-7e-3 0.1965 0.0373 0.3819l-2.222-0.06647c-0.3495-0.9202-0.8576-1.986-1.058-2.062-0.8348-0.3291-3.077 0.6383-3.426 1.478-0.0274 0.06576-3e-3 0.2303 0.0554 0.4523l-5.367-0.1603c-0.715-1.842-1.452-3.683-2.207-5.502-3.337-8.052-7.778-11.64-10.87-10.31l22.17 53.5c0.5864-0.2536 0.8374-1.257 0.8033-2.851l6.899-1.39c0.401-0.0675 0.5815-0.4148 0.4012-0.7721l-1.387-2.569c-0.1797-0.358-0.6591-0.6601-1.064-0.6725l-5.583-0.1486c-1.002-5.027-2.961-11.84-5.476-19.19l25.59-4.275c0.4008-0.0673 0.5815-0.4147 0.4012-0.7721" style="fill:#e7e8e9;stroke-width:.1809"/>
  </g>
  <g id="g204" transform="matrix(1.3746 -.36698 .36698 1.3746 -294.92 -31.542)">
   <path id="path13807-9-3-6-2-5" d="m443.4 38.15-1.259-3.815c-0.1258-0.3811-5e-3 -0.9424 0.2683-1.247l7.008-7.81c-0.3916-0.8841-0.7643-1.947-0.6829-2.143 0.35-0.8406 2.592-1.808 3.426-1.478 0.0583 0.02299 0.1436 0.1305 0.2416 0.2938l1.501-1.673c-0.4031-0.8968-0.797-2.01-0.7135-2.212 0.3499-0.8401 2.592-1.808 3.426-1.478 0.0654 0.0258 0.1644 0.1578 0.2793 0.3556l3.627-4.041c-0.7969-1.807-1.578-3.629-2.332-5.448-3.337-8.052-2.767-13.8 0.3234-15.14l22.17 53.5c-0.5867 0.2535-1.467-0.2624-2.565-1.397l-5.784 4.083c-0.3268 0.2466-0.6964 0.1371-0.822-0.2444l-0.8409-2.805c-0.1257-0.3813-5e-3 -0.9424 0.2685-1.247l3.786-4.191c-2.837-4.236-6.264-10.42-9.675-17.37l-20.83 15.75c-0.3268 0.2466-0.6964 0.1371-0.8222-0.2441" style="fill:#fff;stroke-width:.1809"/>
   <path id="path13797-43-0-6-3-1" d="m501.3 13.19-1.805-3.58c-0.1796-0.3577-0.6587-0.6601-1.063-0.672l-10.37-0.31c-0.3484-0.903-0.8366-1.915-1.03-1.991-0.8347-0.3294-3.077 0.6378-3.426 1.478-0.0244 0.0587-7e-3 0.1965 0.0373 0.3819l-2.222-0.06647c-0.3495-0.9202-0.8576-1.986-1.058-2.062-0.8348-0.3291-3.077 0.6383-3.426 1.478-0.0274 0.06576-3e-3 0.2303 0.0554 0.4523l-5.367-0.1603c-0.715-1.842-1.452-3.683-2.207-5.502-3.337-8.052-7.778-11.64-10.87-10.31l22.17 53.5c0.5864-0.2536 0.8374-1.257 0.8033-2.851l6.899-1.39c0.401-0.0675 0.5815-0.4148 0.4012-0.7721l-1.387-2.569c-0.1797-0.358-0.6591-0.6601-1.064-0.6725l-5.583-0.1486c-1.002-5.027-2.961-11.84-5.476-19.19l25.59-4.275c0.4008-0.0673 0.5815-0.4147 0.4012-0.7721" style="fill:#e7e8e9;stroke-width:.1809"/>
  </g>
 </g>
</svg>
