<svg width="114" height="121.8" version="1.1" viewBox="0 0 30.165445 32.226482" xmlns="http://www.w3.org/2000/svg">
 <g transform="translate(-64.69 -59.61)">
  <path d="m78.28 59.78c-0.7118-0.0722-1.444-0.1182-2.163-0.1737-0.2082-0.0161-0.3376 0.1367-0.2879 0.3395l3.181 12.94c-4.033 0.2325-7.698 0.6261-10.31 1.126l-1.212-2.614c-0.0885-0.1892-0.3313-0.357-0.5396-0.3731l-1.514-0.1582c-0.2083-0.0162-0.3377 0.1365-0.2879 0.3392l0.7444 3.535c-0.7703 0.2927-1.2 0.606-1.201 0.9325-1e-3 0.3266 0.4255 0.6433 1.193 0.9426l-0.774 3.527c-0.0514 0.2024 0.0768 0.3562 0.285 0.3419l1.516-0.1457c0.2083-0.0144 0.4525-0.1802 0.5427-0.3686l1.234-2.604c2.609 0.5218 6.272 0.9463 10.3 1.213l-3.289 12.91c-0.0514 0.2023 0.0769 0.3562 0.285 0.3419l2.085-0.1434c0.2082-0.0143 0.4522-0.1802 0.5422-0.3684l2.309-4.829c0.5038 0.0144 1.089-0.0154 1.166-0.0919 0.3313-0.3284 0.3366-1.577 8e-3 -1.908-0.023-0.0231-0.0921-0.0423-0.1901-0.0579l0.4946-1.035c0.512 0.0172 1.126-0.0123 1.206-0.0908 0.331-0.3284 0.3361-1.577 8e-3 -1.908-0.0257-0.026-0.1092-0.047-0.2274-0.0633l1.194-2.499c1.029 0.0272 2.061 0.0435 3.088 0.0477 4.538 0.0192 7.179-1.365 7.187-3.085 7e-3 -1.721-2.62-3.128-7.161-3.146-1.026-4e-3 -2.058 3e-3 -3.088 0.0221l-1.174-2.509c0.1183-0.0154 0.202-0.0357 0.228-0.0614 0.331-0.3284 0.3363-1.577 8e-3 -1.908-0.0787-0.0792-0.6925-0.1137-1.205-0.1008l-0.4861-1.039c0.0981-0.0148 0.1674-0.0334 0.1904-0.0562 0.331-0.3284 0.3363-1.577 8e-3 -1.908-0.0765-0.0771-0.6613-0.1118-1.165-0.1016l-2.269-4.848c-0.0773-0.1656-0.2728-0.3149-0.4602-0.3604z" style="stroke-width:.2646"/>
 </g>
</svg>
