<svg width="122" height="114.2" version="1.1" viewBox="0 0 121.99064 114.17068" xmlns="http://www.w3.org/2000/svg">
 <path d="m638.1 59.72-0.5721-7.892c-0.057-0.7884-0.6882-1.71-1.402-2.048l-18.31-8.671c0.048-1.906-0.074-4.121-0.3647-4.41-1.248-1.249-5.973-1.251-7.221-3e-3 -0.088 0.0867-0.159 0.3485-0.2165 0.7197l-3.922-1.858c0.058-1.938-0.062-4.261-0.3602-4.561-1.248-1.248-5.973-1.251-7.221-3e-3 -0.098 0.0978-0.1767 0.4142-0.2369 0.8618l-9.474-4.486a521.3 521.3 0 0 0 0.138 -11.68c0.01-17.18-5.268-27.16-11.78-27.16l-0.054 114.2c1.236 0 2.429-1.62 3.551-4.532l13.36 2.878c0.7669 0.1923 1.347-0.2952 1.29-1.084l-0.5726-5.735c-0.058-0.7881-0.6885-1.71-1.403-2.048l-9.871-4.635c1.938-9.882 3.493-23.75 4.444-39.01l48.92 12.27c0.7669 0.1919 1.347-0.2955 1.29-1.084" style="fill:#e7e8e9;stroke-miterlimit:10;stroke-width:5.3"/>
 <path d="m516.1 59.64 0.5798-7.889c0.058-0.7881 0.6898-1.709 1.404-2.046l18.32-8.655c-0.045-1.906 0.078-4.121 0.3686-4.41 1.249-1.248 5.976-1.246 7.221 3e-3 0.087 0.0868 0.1586 0.3487 0.2153 0.7197l3.925-1.854c-0.056-1.938 0.066-4.261 0.3652-4.561 1.249-1.247 5.973-1.245 7.221 3e-3 0.098 0.098 0.1764 0.4147 0.2358 0.8618l9.479-4.478a526.8 526.8 0 0 1 -0.1269 -11.68c0.01-17.18 5.295-27.14 11.81-27.14l-0.054 114.2c-1.237 0-2.427-1.622-3.546-4.534l-13.37 2.867c-0.7669 0.1914-1.346-0.2968-1.288-1.085l0.5785-5.735c0.058-0.7884 0.6895-1.709 1.404-2.047l9.876-4.627c-1.929-9.884-3.472-23.75-4.407-39.01l-48.92 12.22c-0.7669 0.1911-1.346-0.2968-1.289-1.085" style="fill:#ffffff;stroke-miterlimit:10;stroke-width:5.3"/>
</svg>
