<?xml version="1.0" encoding="UTF-8" standalone="no"?>
<svg
   xmlns:dc="http://purl.org/dc/elements/1.1/"
   xmlns:cc="http://creativecommons.org/ns#"
   xmlns:rdf="http://www.w3.org/1999/02/22-rdf-syntax-ns#"
   xmlns:svg="http://www.w3.org/2000/svg"
   xmlns="http://www.w3.org/2000/svg"
   xmlns:sodipodi="http://sodipodi.sourceforge.net/DTD/sodipodi-0.dtd"
   xmlns:inkscape="http://www.inkscape.org/namespaces/inkscape"
   viewBox="0 0 210 297"
   version="1.1"
   id="svg7253"
   sodipodi:docname="plane-path.svg"
   inkscape:version="0.92.1 r15371">
  <metadata
     id="metadata7259">
    <rdf:RDF>
      <cc:Work
         rdf:about="">
        <dc:format>image/svg+xml</dc:format>
        <dc:type
           rdf:resource="http://purl.org/dc/dcmitype/StillImage" />
        <dc:title></dc:title>
      </cc:Work>
    </rdf:RDF>
  </metadata>
  <defs
     id="defs7257" />
  <sodipodi:namedview
     pagecolor="#ffffff"
     bordercolor="#666666"
     borderopacity="1"
     objecttolerance="10"
     gridtolerance="10"
     guidetolerance="10"
     inkscape:pageopacity="0"
     inkscape:pageshadow="2"
     inkscape:window-width="1920"
     inkscape:window-height="1001"
     id="namedview7255"
     showgrid="false"
     inkscape:zoom="17.980035"
     inkscape:cx="962.482"
     inkscape:cy="9.0901563"
     inkscape:window-x="-9"
     inkscape:window-y="41"
     inkscape:window-maximized="1"
     inkscape:current-layer="svg7253" />
  <path
     style="display:inline;fill:#000000;fill-opacity:1;fill-rule:nonzero;stroke:none;stroke-width:0.35277769"
     d="m 981.20001,271.24516 c -2.69008,-0.27288 -5.45691,-0.44676 -8.17483,-0.65653 -0.78674,-0.0608 -1.27599,0.51651 -1.08761,1.28287 l 12.0213,48.89079 c -15.2368,0.87861 -29.08841,2.36624 -38.96401,4.2561 l -4.58197,-9.87804 c -0.33457,-0.71487 -1.25208,-1.34919 -2.03906,-1.41048 l -5.72267,-0.59772 c -0.78698,-0.0613 -1.27642,0.5159 -1.08805,1.28229 l 2.81258,13.3561 c -2.91106,1.10597 -4.53499,2.28951 -4.54005,3.52433 -0.005,1.23435 1.60821,2.43122 4.51037,3.56165 l -2.92475,13.33211 c -0.19414,0.76505 0.29035,1.34605 1.07685,1.29187 l 5.72806,-0.55071 c 0.78727,-0.0543 1.70995,-0.68092 2.05083,-1.39267 l 4.66425,-9.83906 c 9.85998,1.97193 23.69858,3.57642 38.92739,4.58261 l -12.43182,48.78873 c -0.19436,0.76458 0.29052,1.34602 1.07737,1.29193 l 7.88046,-0.54168 c 0.78683,-0.0541 1.70914,-0.68082 2.04921,-1.39244 l 8.72636,-18.25153 c 1.90354,0.0545 4.11438,-0.0582 4.40589,-0.34737 1.2516,-1.24122 1.27154,-5.95894 0.0306,-7.2101 -0.0869,-0.0874 -0.34807,-0.15996 -0.71849,-0.21887 l 1.86921,-3.90975 c 1.93541,0.0649 4.25627,-0.0464 4.55567,-0.34312 1.251,-1.24144 1.2705,-5.95961 0.03,-7.21021 -0.097,-0.0981 -0.4127,-0.17772 -0.8592,-0.23935 l 4.5145,-9.44321 c 3.8877,0.10282 7.7887,0.16444 11.6658,0.18042 17.155,0.0724 27.1279,-5.15845 27.1551,-11.66125 0.027,-6.50272 -9.9012,-11.81696 -27.0567,-11.88907 -3.8768,-0.0159 -7.7784,0.013 -11.6671,0.0836 l -4.4347,-9.481 c 0.447,-0.0583 0.7635,-0.13492 0.8615,-0.23214 1.251,-1.24067 1.2708,-5.95933 0.031,-7.21063 -0.2975,-0.29926 -2.61688,-0.42969 -4.55231,-0.38091 l -1.83667,-3.92556 c 0.37085,-0.0559 0.63249,-0.12628 0.7197,-0.21248 1.25138,-1.24056 1.27125,-5.95877 0.0301,-7.21071 -0.28918,-0.2915 -2.49895,-0.42258 -4.4024,-0.38401 l -8.57273,-18.32319 c -0.29207,-0.62565 -1.03138,-1.18962 -1.73866,-1.36151 z"
     id="path7251"
     inkscape:connector-curvature="0"
     sodipodi:nodetypes="cccccccccccccccccccccccccccccccccccccccccccccc" />
</svg>
