            <svg xmlns:svg="http://www.w3.org/2000/svg" xmlns="http://www.w3.org/2000/svg" id="svg5296" viewBox="0 0 425 425">
                <defs>              
                <path id="plane">                  
                        <path class="right" d="m529.8 767.4 1.256-3.816c0.1254-0.3813 0.5561-0.7608 0.957-0.8429l10.28-2.113c0.2108-0.9437 0.543-2.02 0.725-2.129 0.7812-0.4678 3.159 0.0876 3.634 0.8482 0.0332 0.0532 0.0379 0.1903 0.0196 0.3798l2.202-0.4525c0.2091-0.9607 0.5544-2.09 0.7415-2.203 0.7808-0.4674 3.159 0.088 3.634 0.8484 0.0373 0.0596 0.0384 0.2246 0.0132 0.452l5.318-1.093c0.4339-1.927 0.8889-3.856 1.364-5.767 2.104-8.458 5.983-12.74 9.26-11.98l-13.99 56.2c-0.6224-0.1449-1.024-1.083-1.231-2.648l-7.078-0.1563c-0.4094 4e-3 -0.6414-0.3038-0.5156-0.6852l0.9918-2.755c0.1256-0.3813 0.5564-0.7606 0.9574-0.8431l5.536-1.119c0.237-5.093 1.157-12.1 2.549-19.72l-26.12 0.2812c-0.4094 4e-3 -0.6414-0.3039-0.5159-0.6851" style="fill:#fff" />
                        <path class="left" d="m591.2 781.7 0.6766-3.952c0.0682-0.3944-0.1372-0.9224-0.4554-1.173l-8.156-6.417c0.2568-0.9332 0.4659-2.037 0.3555-2.214-0.4753-0.7612-2.853-1.317-3.634-0.8484-0.0545 0.0327-0.1228 0.1536-0.1971 0.3292l-1.747-1.375c0.266-0.9477 0.4911-2.106 0.3757-2.287-0.4755-0.7609-2.854-1.316-3.634-0.8485-0.0611 0.0366-0.1393 0.1834-0.2244 0.3966l-4.22-3.32c0.5202-1.906 1.022-3.825 1.497-5.736 2.104-8.458 0.6678-13.99-2.609-14.75l-13.99 56.2c0.6222 0.1447 1.42-0.5125 2.341-1.815l6.373 2.984c0.3626 0.1842 0.7142 0.0122 0.7817-0.3822l0.4128-2.89c0.0684-0.3947-0.1375-0.9226-0.4554-1.173l-4.401-3.439c2.183-4.638 4.661-11.28 7.005-18.68l23.11 11.77c0.3623 0.1842 0.7141 0.0123 0.7816-0.3822" style="fill:#e7e8e9" />
                      </path>
            </defs>
                <path id="sky" d="m0 425h425v-425h-425z" style="fill:url(#radialGradient30)" />
                <g id="flightpaths" transform="matrix(.5479 0 0 .5479 486.2 244.8)" stroke-miterlimit="10">
                    <path id="pathE" d="m-880.2-433.7c213.1 493.4 649.2 681.5 1174 626.6" style="fill:none;stroke-dasharray:12, 12;stroke-width:3;stroke:#fff" />
                    <path id="pathD" d="m-1012 272.5c216.9-193.9 662.8-388.4 1092-283.4" style="fill:none;stroke-dasharray:12;stroke-width:3;stroke:#fff" />
                    <path id="pathC" d="m-637.8-520.3c-166.5 249.5-244.1 518-30.86 895.8" style="fill:none;stroke-dasharray:12;stroke-width:3;stroke:#fff" />
                    <path id="pathB" d="m-1018-375.2c157 118.5 744.5 172.8 1098-88.93" style="fill:none;stroke-dasharray:12;stroke-width:3;stroke:#fff" />
                    <path id="pathA" d="m-486.5-545.6c178.3 230 271.4 662.4 108.5 1005" style="fill:none;stroke-dasharray:12;stroke-width:3;stroke:#fff"/>
                </g>
                <use x=0 y=0 xlink:href="#plane"/>             
                </svg> 